<?xml version="1.0" encoding="utf-8"?>
<!-- Generator: Adobe Illustrator 17.0.0, SVG Export Plug-In . SVG Version: 6.00 Build 0)  -->
<!DOCTYPE svg PUBLIC "-//W3C//DTD SVG 1.1//EN" "http://www.w3.org/Graphics/SVG/1.1/DTD/svg11.dtd">
<svg version="1.1" id="Слой_1" xmlns="http://www.w3.org/2000/svg" xmlns:xlink="http://www.w3.org/1999/xlink" x="0px" y="0px"
	 width="595.3px" height="841.9px" viewBox="0 0 595.3 841.9" style="enable-background:new 0 0 595.3 841.9;" xml:space="preserve"
	>
<style type="text/css">
	.st0{fill:#FFFFFF;}
	.st1{fill-rule:evenodd;clip-rule:evenodd;fill:#FFFFFF;}
</style>
<g>
	<path class="st0" d="M319.4,239.2l-4.3,56.7l-19,6.2l-18.9-6.2l-4.3-56.7H319.4 M321.3,237.3h-50.2l4.6,60.2l20.5,6.7l20.6-6.7
		L321.3,237.3L321.3,237.3z"/>
	<path class="st0" d="M275.8,220.9h3.2v3.7h2.9v-3.7h3.2v11.2h-3.2v-3.8h-2.9v3.8h-3.2L275.8,220.9L275.8,220.9z"/>
	<path class="st0" d="M289.3,224.6h-2.8v-3.7h8.8v3.7h-2.8v7.5h-3.2L289.3,224.6L289.3,224.6z"/>
	<path class="st0" d="M296.7,220.9h3.3l2,3.9l2-3.9h3.3v11.2h-3.2v-5.6l-2.2,4H302l-2.2-4v5.6h-3.1V220.9z"/>
	<path class="st0" d="M309,220.9h3.2v7.5h4.5v3.7H309V220.9z"/>
	<polygon class="st0" points="296.2,249.6 296.2,249.6 280.4,249.6 280.6,251.6 282.1,271.9 296.2,271.9 296.2,271.9 303.9,271.9 
		303.2,281.5 296.2,283.7 296.2,283.7 296.2,283.7 289.2,281.5 288.7,275.6 285.3,275.6 282.4,275.6 283.3,287.2 296.2,291.4 
		296.2,291.4 296.2,291.4 309.1,287.2 309.1,286 310.6,266.5 310.8,264.5 309.1,264.5 296.2,264.5 296.2,264.5 287.9,264.5 
		287.3,257 296.2,257 296.2,257 311.3,257 311.3,257 311.5,255.3 311.8,251.6 311.9,249.6 	"/>
</g>
<g>
	<g>
		<path class="st0" d="M192.9,239.3l-4.5,56.9l-19,6l-19-6l-4.5-56.9H192.9 M194.8,237.3h-50.6l4.7,60.4l20.6,6.5l20.6-6.5
			L194.8,237.3L194.8,237.3z"/>
		<g>
			<polygon class="st0" points="157.8,228.4 157.8,224.8 162.3,224.8 162.3,220.9 154.5,220.9 154.5,232 162.3,232 162.3,228.4 			
				"/>
			<path class="st0" d="M170.3,224.8h3.1v-3.9h-7.8c0,0,0,2,0,3.9c1,1.2,1.6,1.8,3.1,3.6c-0.9,0-3.1,0-3.1,0v3.6h7.8v-3.6
				L170.3,224.8z"/>
			<path class="st0" d="M181.4,224.8h3.1v-3.9h-7.8c0,0,0,2,0,3.9c1,1.2,1.6,1.8,3.1,3.6c-0.9,0-3.1,0-3.1,0v3.6h7.8v-3.6
				L181.4,224.8z"/>
		</g>
		<polygon class="st0" points="184.6,256.9 185.2,249.6 169.5,249.6 153.4,249.6 154.2,256.9 169.5,256.9 170.3,256.9 169.5,257.3 
			154.8,264.5 155.2,271.6 169.5,271.7 169.5,271.7 177.1,271.7 176.6,281.2 169.5,283.6 169.5,283.6 169.4,283.6 162.5,281.5 
			162.1,275.6 162.1,275.6 155.7,275.6 155.7,275.6 156.5,287 169.5,291.5 169.5,291.5 169.5,291.5 182.4,287.1 184.1,264.5 
			169.5,264.5 169.4,264.5 169.5,264.5 		"/>
	</g>
</g>
<g>
	<path class="st0" d="M176.3,390.5c-29.3,0-53.1,14.7-53.1,32.8c0,18.1,23.8,32.8,53.1,32.8s53.1-14.7,53.1-32.8
		C229.4,405.2,205.7,390.5,176.3,390.5z M176.3,453.8c-28.2,0-51-13.6-51-30.4c0-16.8,22.8-30.4,51-30.4c28.2,0,51,13.6,51,30.4
		C227.4,440.2,204.5,453.8,176.3,453.8z"/>
	<g>
		<path class="st0" d="M156.6,414.2c2.3,0,3.9,0.5,4.6,1.5c0.8,1,1,2.7,0.6,5.2c-0.4,2.5-1.2,4.4-2.4,5.5s-3,1.6-5.5,1.6h-3.7
			l2.3-13.8H156.6z M141.7,441.9h6.1l1.4-8.7h5.2c2.3,0,4.2-0.3,5.7-0.9c1.5-0.6,2.8-1.5,4.1-2.9c1-1.1,1.8-2.3,2.5-3.7
			c0.6-1.3,1.1-2.8,1.3-4.4c0.6-3.9,0.2-6.9-1.5-9.1c-1.6-2.2-4.2-3.3-7.7-3.3h-11.7L141.7,441.9z"/>
		<path class="st0" d="M172.6,400.3h6.1l-1.4,8.7h5.4c3.4,0,5.7,0.7,7,2.1c1.3,1.4,1.7,3.6,1.2,6.8l-2.5,15.3H182l2.4-14.6
			c0.3-1.7,0.2-2.8-0.3-3.4c-0.5-0.6-1.5-0.9-3-0.9h-4.8l-3.1,18.9h-6.1L172.6,400.3z"/>
		<path class="st0" d="M204.2,414.2c2.3,0,3.9,0.5,4.6,1.5c0.8,1,1,2.7,0.6,5.2c-0.4,2.5-1.2,4.4-2.4,5.5c-1.2,1.1-3,1.6-5.5,1.6
			h-3.7l2.3-13.8H204.2z M189.3,441.9h6.1l1.4-8.7h5.2c2.3,0,4.2-0.3,5.7-0.9c1.5-0.6,2.8-1.5,4.1-2.9c1-1.1,1.8-2.3,2.5-3.7
			c0.6-1.3,1.1-2.8,1.3-4.4c0.6-3.9,0.2-6.9-1.5-9.1c-1.6-2.2-4.2-3.3-7.7-3.3h-11.7L189.3,441.9z"/>
	</g>
</g>
<g>
	<path class="st0" d="M267,439.2h3.3v-15.3l5.1,13.4c0.6,1.6,1.4,2.2,3,2.2c1.6,0,2.4-0.6,3-2.2l5.1-13.4v15.3h3.3v-15.3
		c0-1.5-0.5-2.2-1.6-2.6c-2.5-0.9-4.2-0.1-4.9,1.9l-5,13.2l-4.9-13.2c-0.7-2-2.4-2.8-5-1.9c-1,0.4-1.5,1.1-1.5,2.6V439.2L267,439.2z
		"/>
	<path class="st0" d="M292.6,426.8h3.3v8.4c0,0.5,0.1,1.5,1.9,1.6c0.9,0,7.1,0,7.2,0v-10.1h3.3c0,0,0,13.7,0,13.8
		c0,3.4-3.6,4.1-5.2,4.2h-10.4V442c0,0,10.4,0,10.4,0c2.1-0.3,1.9-1.5,1.9-1.9v-1h-7c-3.3,0-5.4-1.7-5.4-3.7
		C292.6,435.3,292.7,426.8,292.6,426.8L292.6,426.8z"/>
	<path class="st0" d="M363.7,417c-2-0.1-3.6,0.2-4.9,0.8c-0.4,0.2-1,0.2-1,0.7c0.2,0.2,0.2,0.6,0.4,1c0.3,0.6,0.8,1.4,1.3,1.8
		c0.5,0.5,1.1,1,1.6,1.4c1,0.7,2.1,1.1,3.1,1.8c0.6,0.4,1.1,1,1.7,1.4c0.3,0.2,0.5,0.6,0.8,0.8c0,0,0-0.1,0-0.1
		c-0.2-0.3-0.2-0.7-0.4-1c-0.3-0.3-0.5-0.6-0.8-0.9c-0.7-1.2-1.6-2.2-2.6-3c-0.8-0.7-2.6-1.5-2.9-2.6c0,0,0,0-0.1-0.1
		c0.6-0.1,1.2-0.3,1.7-0.5c0.9-0.3,1.6-0.2,2.5-0.5c0.4-0.1,0.8-0.3,1.2-0.4c0-0.1,0-0.2,0-0.3c-0.5-0.5-0.8-1.2-1.3-1.8
		c-1.3-1.3-2.7-2.6-4.2-3.7c-0.8-0.6-1.8-1-2.6-1.5c-0.3-0.2-0.8-0.3-1-0.6c-0.5-0.7-0.7-1.5-1-2.3c-0.7-1.6-1.4-3.4-2.1-5.2
		c-0.5-1.2-0.7-2.3-1.3-3.4c-2.6-5.1-5.4-8.1-9.8-11.1c-0.9-0.6-2-0.9-3.2-1.2c-0.6,0-1.3-0.1-1.9-0.1c-0.4-0.2-0.8-0.8-1.2-1
		c-1.4-1.1-5.2-3.4-6.2-0.3c-0.7,1.9,1,3.8,1.6,4.8c0.4,0.7,1,1.5,1.3,2.2c0.2,0.5,0.2,1,0.4,1.6c0.4,1.3,0.8,2.8,1.3,4
		c0.3,0.6,0.6,1.3,0.9,1.8c0.2,0.3,0.6,0.5,0.6,1c-0.4,0.6-0.4,1.5-0.6,2.2c-0.9,3.4-0.6,7.5,0.7,10c0.4,0.7,1.4,2.4,2.7,1.8
		c1.1-0.5,0.9-2.2,1.2-3.7c0.1-0.4,0-0.6,0.2-0.8c0,0,0,0.1,0,0.1c0.4,0.8,0.7,1.6,1,2.5c0.8,1.5,2.2,3,3.3,4
		c0.6,0.5,1.1,1.5,1.8,1.8c0,0,0-0.1,0-0.1c0,0,0,0-0.1,0c-0.2-0.3-0.4-0.4-0.6-0.6c-0.5-0.5-1-1.2-1.3-1.8c-1.1-1.7-2-3.5-2.8-5.4
		c-0.4-0.9-0.8-1.9-1.1-2.9c-0.2-0.4-0.2-0.9-0.4-1.1c-0.4,0.7-0.9,1.2-1.2,2c-0.5,1.3-0.5,2.9-0.7,4.5c-0.1,0-0.1,0-0.1,0.1
		c-0.8-0.2-1.1-1.2-1.4-2.1c-0.8-2.1-0.9-5.5-0.2-7.9c0.2-0.6,0.9-2.6,0.6-3.2c-0.2-0.6-0.7-0.9-0.9-1.3c-0.3-0.6-0.7-1.3-0.9-1.9
		c-0.6-1.7-0.9-3.5-1.6-5.2c-0.3-0.8-0.8-1.6-1.3-2.3c-0.5-0.8-1-1.4-1.4-2.3c-0.1-0.3-0.3-0.9-0.1-1.2c0.1-0.2,0.2-0.3,0.4-0.4
		c0.3-0.3,1.3,0.1,1.6,0.3c0.9,0.4,1.7,0.9,2.5,1.5c0.4,0.3,0.7,0.9,1.2,1c0.2,0,0.4,0,0.5,0c0.8,0.2,1.7,0.1,2.5,0.3
		c1.3,0.5,2.6,1.2,3.6,2.1c3.3,2.5,6,6,7.9,10.2c0.3,0.7,0.4,1.3,0.7,2c0.5,1.5,1.2,2.9,1.7,4.4c0.5,1.4,1,2.8,1.8,4
		c0.4,0.6,1.9,1,2.6,1.3c0.5,0.3,1.3,0.5,1.7,0.8c0.9,0.6,1.7,1.3,2.5,2C362.4,415.7,363.6,416.4,363.7,417L363.7,417z"/>
	<path class="st0" d="M337.9,391.2c-0.4,0-0.7,0.1-1,0.1c0,0,0,0,0,0.1c0,0,0,0,0.1,0c0.2,0.5,0.6,0.8,0.8,1.2
		c0.2,0.5,0.4,1,0.6,1.4c0,0,0.1-0.1,0.1-0.1c0.4-0.3,0.5-0.8,0.5-1.5c-0.2-0.2-0.2-0.4-0.3-0.6
		C338.4,391.6,338.1,391.4,337.9,391.2L337.9,391.2z"/>
	<path class="st0" d="M310.9,439.2h9.5c1.1,0,2.2-0.3,3-0.7c1.4-0.8,2.1-1.8,2.1-3.2v-2.9c0-1.1-0.8-2.1-2.4-2.9
		c-0.8-0.4-1.8-0.6-2.8-0.6h-4c-1.3,0-2-0.5-2.2-1.5c0-0.1,0-0.2,0-0.4v-1.8c0-0.1,0-0.2,0-0.3c0.2-0.8,0.5-1,1.7-1.2
		c0.1,0,0.2,0,0.3,0h9.4v-2.6h-9.3c-1.3,0-2,0.1-2.7,0.3c-1.9,0.7-2.8,1.8-2.8,3.8v2.3c0,1.8,1.7,3.2,4.5,3.6c0.3,0,0.6,0,1,0h3.4
		c0.1,0,0.3,0,0.4,0c1,0.1,1.5,0.3,1.8,0.8c0.2,0.2,0.3,0.4,0.3,0.7v2.3c0,0.3-0.2,0.6-0.5,0.9c-0.3,0.3-0.8,0.5-1.4,0.5
		c-0.1,0-0.2,0-0.3,0h-9.1V439.2L310.9,439.2z"/>
	<path class="st0" d="M346.1,434.7c0,2.6,1.7,4.1,5.1,4.4c0.3,0,0.6,0.1,1,0.1h8.6v-2.6h-8.7c-1.9,0-2.7-0.6-2.7-1.9v-13.4h-3.3
		V434.7L346.1,434.7z"/>
	<path class="st0" d="M327.6,434.8v-9.2c0-2.3,1.4-3.8,4.2-4.2c0.3,0,0.6-0.1,0.9-0.1h6.3c0.3,0,0.6,0,0.9,0.1
		c2.8,0.4,4.1,1.9,4.1,4.2v9.2c0,1.9-0.6,2.9-1.9,3.6l3.2,3.4h-3.8l-2.6-2.8l-2.7,0.2h-3.5c-0.6,0-1.2-0.1-1.9-0.3
		C328.7,438.3,327.6,437,327.6,434.8L327.6,434.8z M331.2,434.6c0,0.1,0.1,0.2,0.1,0.4c0.2,1.1,1,1.7,2.4,1.7h3l-2.7-2.9h3.8
		l2.4,2.6c0.5-0.3,0.7-0.7,0.8-1.2c0-0.1,0-0.3,0-0.4v-8.8c0-0.1,0-0.2,0-0.4c-0.2-1-1-1.6-2.3-1.6h-5c-1.5,0-2.4,0.7-2.4,1.9V434.6
		L331.2,434.6z"/>
	<path class="st0" d="M362.3,439.3h0.5v-2.2h0.6v-0.4h-1.8v0.4h0.7V439.3L362.3,439.3z M366,439.3h0.5v-2.6h-0.7l-0.6,1.8l-0.6-1.8
		h-0.7v2.6h0.4v-2h0l0.6,2h0.3l0.6-2l0,0V439.3L366,439.3z"/>
</g>
<g>
	<path class="st0" d="M458.6,227.8v69.4h-59.1v-69.4H458.6 M460.6,225.5h-63v74h63V225.5L460.6,225.5z"/>
	<path class="st0" d="M418.1,282.9c1.1,2,2,3.6,4,3.6c1.9,0,3.2-0.9,3.2-4.3v-23.6h5.9v23.7c0,7.2-3.6,10.5-8.8,10.5
		c-4.7,0-7.5-2.9-8.9-6.3"/>
	<path class="st0" d="M439.2,282.3c1.3,2.5,2.9,4.2,5.8,4.2c2.5,0,4-1.4,4-3.4c0-2.3-1.6-3.2-4.3-4.6l-1.5-0.7
		c-4.3-2.1-7.1-4.8-7.1-10.5c0-5.2,3.4-9.2,8.7-9.2c3.8,0,6.5,1.5,8.4,5.5l-4.6,3.5c-1-2.1-2.1-2.9-3.8-2.9c-1.7,0-2.8,1.3-2.8,2.9
		c0,2.1,1.1,2.9,3.6,4.2l1.5,0.7c5,2.6,7.9,5.2,7.9,10.9c0,6.2-4.2,9.6-9.8,9.6c-5.5,0-9.1-3.1-10.8-7"/>
</g>
<g>
	<path class="st0" d="M443,388c7.5,0,14.6,3.5,20,9.7c5.3,6.3,8.3,14.6,8.3,23.5c0,8.9-2.9,17.2-8.3,23.5s-12.4,9.7-20,9.7
		c-7.5,0-14.6-3.5-20-9.7c-5.3-6.3-8.3-14.6-8.3-23.5c0-8.9,2.9-17.2,8.3-23.5C428.4,391.4,435.5,388,443,388 M443,385.6
		c-16.7,0-30.2,15.9-30.2,35.5c0,19.6,13.5,35.5,30.2,35.5c16.7,0,30.2-15.9,30.2-35.5C473.2,401.5,459.7,385.6,443,385.6L443,385.6
		z"/>
	<g>
		<path class="st1" d="M443.7,406.3L443.7,406.3c-1.2,1.8-2.3,3.9-3.1,6.1l-2.2,6.4c0,0,0,0,0,0c-0.7,2.4-1.4,4.3-2,5.7c0,0,0,0,0,0
			c-0.7,1.8-1.4,3.2-2,4.1c-0.7,1.1-1.5,1.8-2.4,2.3c-1,0.5-2.1,0.8-3.4,0.8c-0.5,0-0.8,0.4-0.8,1v8.2c0,0.5,0.4,1,0.8,1
			c5.2,0,9.4-2.3,12.6-7c0.9-1.5,1.8-3,2.5-4.8c0,0,0,0,0-0.1c0,0,1.3-3.6,1.7-4.5c1,0,7.4,0,7.4,0c0.5,0,0.8-0.4,0.8-1v-8.1
			c0-0.5-0.4-1-0.8-1c0,0-2.4,0-3.9,0c0.3-0.7,0.6-1.4,0.9-2c0.6-1,1.1-1.8,1.6-2.3c0,0,0,0,0,0c0.6-0.7,1.3-1.1,2.1-1.4
			c0.8-0.3,1.7-0.5,2.7-0.5c0.5,0,0.8-0.4,0.8-1v-8.1c0-0.5-0.4-1-0.8-1C451.1,399.3,446.9,401.7,443.7,406.3z"/>
	</g>
</g>
<g>
	<g>
		<path class="st0" d="M148.3,585.3c0,12.1,6,22.5,14.6,27.5l-12.4-39.9C149.1,576.7,148.3,580.9,148.3,585.3z"/>
		<path class="st0" d="M191.8,583.8c0-3.8-1.2-6.4-2.1-8.4c-1.3-2.5-2.6-4.6-2.6-7.2c0-2.8,1.8-5.4,4.4-5.4c0.1,0,0.2,0,0.3,0
			c-4.6-5-10.8-8-17.5-8c-9.1,0-17.1,5.5-21.7,13.8c0.6,0,1.2,0,1.7,0c2.7,0,6.9-0.4,6.9-0.4c1.4-0.1,1.6,2.3,0.2,2.5
			c0,0-1.4,0.2-3,0.3l9.5,33.1l5.7-20l-4-13c-1.4-0.1-2.7-0.3-2.7-0.3c-1.4-0.1-1.2-2.6,0.2-2.5c0,0,4.3,0.4,6.8,0.4
			c2.7,0,6.9-0.4,6.9-0.4c1.4-0.1,1.6,2.3,0.2,2.5c0,0-1.4,0.2-3,0.3l9.4,32.8l2.6-10.2C190.9,589.4,191.8,586.4,191.8,583.8z"/>
		<path class="st0" d="M174.7,588l-7.8,26.6c2.3,0.8,4.8,1.2,7.3,1.2c3,0,5.9-0.6,8.6-1.7c-0.1-0.1-0.1-0.3-0.2-0.4L174.7,588z"/>
		<path class="st0" d="M197,570.7c0.1,1,0.2,2,0.2,3.1c0,3.1-0.5,6.6-2,10.9l-7.9,27c7.7-5.3,12.9-15.1,12.9-26.4
			C200.2,580,199.1,575,197,570.7z"/>
		<path class="st0" d="M174.3,549.7c-16.7,0-30.3,16-30.3,35.6c0,19.6,13.6,35.6,30.3,35.6c16.7,0,30.3-16,30.3-35.6
			C204.5,565.7,190.9,549.7,174.3,549.7z M174.3,619.3c-15.9,0-28.9-15.2-28.9-33.9c0-18.7,13-33.9,28.9-33.9
			c15.9,0,28.9,15.2,28.9,33.9C203.1,604,190.2,619.3,174.3,619.3z"/>
	</g>
</g>
<g>
	<g>
		<path class="st0" d="M311.6,612.9c0,1.4-0.5,2.6-1.7,2.6c-1.2,0-1.8-1.2-1.8-2.6V608h-2.2v4.9c0,2.8,1.6,5.1,4,5.1
			c2.4,0,4-2.3,4-5.1V608h-2.2L311.6,612.9z"/>
		<rect x="334" y="605" class="st0" width="2.2" height="12.7"/>
		<path class="st0" d="M300.8,609.7c0,0.1,0,0.1-0.1,0.1c-0.1,0-0.1-0.1-0.1-0.1l-0.2-1.7h-2v9.7h2.2v-5.2c0-0.4,1-2.5,2.9-2
			c1,0.3,1.4,0.7,1.4,0.7s0-1.9,0-3c-0.4-0.2-0.6-0.3-0.9-0.4C302.1,607.4,300.9,609.6,300.8,609.7z"/>
		<path class="st0" d="M319,607.8c-2.4,0-4.4,2.3-4.4,5.1c0,0,0,7,0,8h2.2v-3.5l0-1.3c0,0,0-0.1,0.1-0.1c0.1,0,0.1,0.1,0.1,0.1
			c0.2,0.5,1.1,2.4,3.2,1.8c1.9-0.6,3.2-2.6,3.2-4.9C323.4,610.1,321.5,607.8,319,607.8z M319,615.5c-1.2,0-2.2-1.2-2.2-2.6
			c0-1.4,1-2.6,2.2-2.6c1.2,0,2.2,1.2,2.2,2.6C321.3,614.4,320.3,615.5,319,615.5z"/>
		<path class="st0" d="M328.7,607.8c-2.4,0-4.4,2.3-4.4,5.1c0,2.4,1.4,4.3,3.2,4.9c2.1,0.6,3-1.3,3.2-1.8c0,0,0-0.1,0.1-0.1
			c0.1,0,0.1,0.1,0.1,0.1l0,1.6h2.2v-4.8C333.1,610.1,331.1,607.8,328.7,607.8z M328.7,615.5c-1.2,0-2.2-1.2-2.2-2.6
			c0-1.4,1-2.6,2.2-2.6c1.2,0,2.2,1.2,2.2,2.6C330.9,614.4,329.9,615.5,328.7,615.5z"/>
		<path class="st0" d="M291.6,605h-2.7v12.7h2.5c3.3,0,6-0.8,6-6.3C297.4,605.7,294.9,605,291.6,605z M292,615.5l-0.9,0v-8.3h0.9
			c2.1,0,3.1,0.3,3.1,4.1C295.2,615.3,293.9,615.5,292,615.5z"/>
	</g>
	<g>
		<ellipse class="st0" cx="312.5" cy="584.6" rx="8" ry="9.4"/>
		<path class="st0" d="M322.5,573.4c2.4,2.9,3.8,6.9,3.8,11.2c0,5.5-2.3,10.4-5.9,13.3c6.6-2.4,12.1-8.2,14.5-15.3
			c3.4-9.8,0.2-17.1-5.1-23.8c0.2,0.9,0.3,1.8,0.3,2.7C330.1,567.1,326.9,571.9,322.5,573.4z"/>
		<ellipse class="st0" cx="319.6" cy="561.5" rx="6.1" ry="7.2"/>
		<path class="st0" d="M302,595c-2-2.8-3.2-6.5-3.2-10.4c0-8.3,5.3-15.1,12.1-16.1c-1.2-2-1.9-4.4-1.9-7c0-6.8,4.7-12.4,10.6-12.4
			c0.5,0,1,0,1.4,0.1c-3.5-3.5-6.9-7.1-9.6-10.9c1.4,17-13.2,10.8-18.6,26.5C289.2,575.2,292.5,588.2,302,595z"/>
	</g>
</g>
<g>
	<path id="T_5_" class="st0" d="M461.4,571.1v0.2h-0.5v1.6h-0.2v-1.6h-0.5v-0.2H461.4z"/>
	<path id="j-green_5_" class="st0" d="M416.4,586.6l-1.1-1.3c-3.5-4.1-4.6-10-3.3-15.3c-3.5-0.9-6.1-4.6-6.1-9
		c0-5.1,3.5-9.3,7.9-9.3c3.9,0,7.2,3.4,7.8,7.8c4.3-1.2,8.9,0.2,12.2,4.1l0.5,0.5l-5.8,6.8l-0.5-0.5c-1.9-2.2-4.9-2.2-6.8,0
		c-1.9,2.2-1.9,5.8,0,8l1.1,1.3l5.8,6.8l6.2,7.2l-5.8,6.8l-6.2-7.2L416.4,586.6L416.4,586.6z"/>
	<path id="j-yellow_5_" class="st0" d="M422.9,579l6.2-7.2l5.8-6.8l1.1-1.3c3.5-4.1,8.5-5.4,12.9-3.9c0.5-4.5,3.8-8,7.8-8
		c4.4,0,7.9,4.1,7.9,9.3c0,4.7-3,8.6-6.8,9.2c1.3,5.2,0.2,11-3.3,15.1l-0.5,0.5l-5.8-6.8l0.4-0.5c1.9-2.2,1.9-5.8,0-8
		c-1.9-2.2-4.9-2.2-6.8,0l-1.1,1.3l-5.8,6.8l-6.2,7.2L422.9,579L422.9,579z"/>
	<path id="j-red_5_" class="st0" d="M449.1,613.5c-4.5,1.6-9.5,0.3-13.1-3.8l-0.4-0.5l5.8-6.8l0.4,0.5c1.9,2.2,5,2.2,6.8,0
		c1.9-2.2,1.9-5.8,0-8l-1.1-1.3l-5.8-6.8l-6.1-7.2l5.8-6.8l6.1,7.2l5.8,6.8l1.1,1.3c3.3,3.9,4.5,9.5,3.5,14.5
		c3.8,0.6,6.8,4.5,6.8,9.2c0,5.1-3.5,9.3-7.9,9.3C453,620.9,449.8,617.7,449.1,613.5L449.1,613.5z"/>
	<path id="j-blue_5_" class="st0" d="M446.8,594.3l-6.1,7.2l-5.8,6.8l-1.1,1.3c-3.4,4-8.1,5.3-12.4,4c-0.8,4.1-3.9,7.2-7.7,7.2
		c-4.4,0-7.9-4.1-7.9-9.3c0-4.4,2.6-8.1,6.1-9c-1.1-5.1,0-10.7,3.4-14.7l0.4-0.5l5.8,6.8l-0.4,0.5c-1.9,2.2-1.9,5.8,0,8
		c1.9,2.2,5,2.2,6.8,0l1.1-1.3l5.8-6.8l6.1-7.2L446.8,594.3L446.8,594.3z"/>
</g>
</svg>
