<svg xmlns="http://www.w3.org/2000/svg" 
	xmlns:xlink="http://www.w3.org/1999/xlink"
	width="595.3px" height="841.9px" 
	viewBox="0 0 595.3 841.9">
<style type="text/css">
	.st0{fill:#FFFFFF;}
</style>
<g>
	

	<g>
		<g>
			<g>
				<path class="st0" d="M249.1,377.5c0.1,0.2,0.1,0.4,0.1,0.6c0,0,0,0,0,0C249.2,377.9,249.1,377.7,249.1,377.5
					C249.1,377.5,249.1,377.5,249.1,377.5z"/>
				<path class="st0" d="M137.9,389.4c1.1-0.2,2-1.1,2.8-2c-0.1,0.2-0.1,0.4-0.2,0.6c-0.7,2.1-1.6,4.7-0.9,6.9c0,0.1,0.1,0,0.1,0
					c-0.6-2.3,0.4-5.1,1.3-7.2c0.1-0.3,0.2-0.6,0.4-1c0.2-0.2,0.3-0.4,0.5-0.6c0.6-0.6,1.4-1.3,2.2-2.1c-0.2,0.6-0.4,1.2-0.5,1.8
					c-1.8,3.5-3.6,7-3.8,11c0,0,0.1,0,0.1,0c0.4-3.2,1.7-6.2,3.2-9c-0.3,1.1-0.6,2.1-1,3.1c-0.5,1.3-1.1,2.7-1.3,4.1c0,0,0,0,0,0
					c0.3-1.7,1.3-3.1,1.8-4.7c0.4-1.3,0.8-2.6,1.2-3.9c0.6-1.1,1.2-2.2,1.7-3.3c0,0,0,0,0,0c0,0.1,0,0.1,0,0.2c0,0.5,0,1-0.1,1.5
					c-0.2,1.2-0.6,2.4-1,3.5c-0.8,1.9-1.7,3.8-2.9,5.5c-0.1,0.1,0.1,0.2,0.1,0.1c1.5-1.9,2.6-4.1,3.4-6.4c0.4-1.1,0.8-2.3,0.8-3.5
					c0-0.4,0-0.8-0.1-1.3c0-0.1,0.1-0.1,0.1-0.2c0.2,0,0.4,0,0.5,0c0,0.4,0.1,0.8,0.1,1.2c0-0.1-0.1-0.3-0.1-0.4c0,0-0.1,0-0.1,0
					c0,0.2,0.1,0.4,0.2,0.6c-0.1,4.1-2,8.2-4.7,11.2c0,0,0,0.1,0,0c2-1.9,3.4-4.4,4.2-7c0.3-1,0.6-2,0.7-3.1c0.3,0.9,0.6,1.9,1,2.8
					c-0.1,0.1-0.1,0.2-0.2,0.4c0,0,0,0.1,0.1,0c0.1-0.1,0.1-0.2,0.2-0.3c0.8,2,1.9,4,3,5.8c0.3,1,0.8,2,1.5,2.8c0.5,0.5,1,1,1.5,1.4
					c0.2,0.3,0.4,0.5,0.6,0.8c0,0,0,0.1,0,0.1c-0.2,0-0.3,0-0.5,0.1c-0.5-0.3-1.1-0.6-1.5-0.9c-0.9-0.6-1.9-1.3-2.7-2.2
					c-0.1-0.1-0.2,0-0.1,0.1c0.7,1.1,1.9,2.1,3,2.8c0.2,0.1,0.4,0.3,0.7,0.5c-1.8,0.8-3,2.9-3.6,4.8c0,0,0,0,0,0
					c0.8-1.9,2.1-4,4.1-4.5c0.3,0.2,0.7,0.3,1,0.3c0,0,0,0,0,0c0,0,0,0,0,0.1c-3,1.5-4.4,5.8-4.3,8.9c0,0.1,0.1,0.1,0.1,0
					c0.1-3.1,1.5-7,4.4-8.4c0.1,0.1,0.1,0.2,0.2,0.3c0,0,0,0.1,0,0.1c-0.1,0.4-0.2,0.8-0.2,1.3c-0.2,0.4-0.3,0.7-0.4,1.1
					c-0.3,1.4-0.6,2.8-0.8,4.2c-0.3,2.4-0.4,5,0.4,7.3c0,0.1,0.1,0,0.1,0c-0.4-2.7-0.4-5.2,0.1-7.9c0.2-1,0.3-2.1,0.6-3.2
					c0,1.7,0.3,3.5,0.6,5.2c0.5,2.5,1.1,5.8,3.7,7.1c0.1,0,0.1-0.1,0.1-0.1c-1.6-1-2.3-3-2.8-4.7c-0.5-1.9-0.8-3.9-1-5.8
					c-0.1-1-0.2-2.1-0.1-3.1c0.1-0.2,0.2-0.4,0.3-0.7c0,0,0,0.1,0.1,0.1c0,0.1,0,0.2,0.1,0.2c0,0,0.1,0,0.1,0.1
					c-0.3,4,0.3,7.8,2.3,11.4c0,0,0.1,0,0.1,0c-1.5-3-2.1-6.4-2-9.8c0.4,1.6,0.9,3.1,1.6,4.6c0.9,2,2.6,5.5,5.2,5.5
					c0,0,0.1-0.1,0-0.1c-1.3-0.2-2.4-1.4-3.1-2.4c-0.8-1.2-1.4-2.4-2-3.7c-0.6-1.3-1.1-2.7-1.4-4.1c0-0.1,0-0.2-0.1-0.3
					c0.8,1.2,1.8,2.3,2.9,3.2c1.3,1.1,2.9,2.2,4.5,2.8c0,0,0,0,0,0c1.8,1.7,3.6,3.3,5.5,4.9c-0.4,1.9-0.4,3.9-0.3,5.8
					c0.1,1.2,0.2,2.5,0.5,3.7c-0.1,0.2-0.1,0.4-0.2,0.6c0,0,0,0.1,0,0.1c-0.1-0.1-0.3-0.2-0.5-0.2c-0.1,0-0.2,0-0.3,0
					c-0.3-1.5-0.6-3-0.9-4.6c-0.3-1.5-0.5-3.1-0.7-4.6c-0.1-0.9-0.3-1.8-0.2-2.7c0-0.1-0.1-0.1-0.1,0c-0.1,1,0,2.1,0.1,3.1
					c0.2,1.8,0.4,3.5,0.7,5.3c0.1,0.4,0.3,2.7,0.8,4.4c-0.1,0-0.1,0-0.1,0.1c-2.7-2.9-5.6-6.1-6.2-10c0-0.1-0.2-0.1-0.2,0
					c0.4,4.1,3.4,7.4,6.1,10.5c0,0,0,0,0,0c-0.8-0.2-1.5-0.7-2.2-1.1c-0.9-0.6-1.8-1.1-2.5-1.8c-1.8-1.6-3-3.6-3.5-5.9c0,0,0,0,0,0
					c0.2,2.4,1.5,4.6,3.3,6.2c0.8,0.7,1.7,1.3,2.6,1.9c0.6,0.4,1.4,0.9,2.1,1.2c0,0,0,0,0,0c-3.2-0.4-6.4-2-8-4.9
					c0-0.1-0.1,0-0.1,0.1c0.9,3.2,4.6,4.8,7.9,5.4c-0.1,0.2-0.3,0.5-0.4,0.7c-2.3-0.7-4.5-1.6-6.7-2.5c-2.2-0.9-4.3-2-6.5-2.8
					c-1.6-0.6-3.1-1.2-4.7-1.8c-0.4-0.2-0.9-0.4-1.3-0.6c-0.4-0.8-0.9-1.6-1.5-2.4c-1.1-1.4-2.6-2.5-4.1-3.4
					c0.9-0.7,1.6-1.9,1.9-2.8c0.9-2.7,0.9-5.9-0.2-8.6c0-0.1-0.1,0-0.1,0c0.9,2.4,0.9,5.2,0.2,7.6c-0.3,1-1.1,2.7-2.2,3.5
					c-0.2-0.1-0.3-0.2-0.5-0.2c0.6-1.3,0.7-2.9,0.9-4.3c0.3-2.6,0-5.1-0.4-7.6c0-0.1-0.1-0.1-0.1,0c0.3,2.4,0.6,4.8,0.2,7.2
					c-0.2,1.2-0.3,2.7-0.8,3.9c0-0.9-0.1-1.8-0.1-2.2c-0.1-2.6-0.4-5.1-0.9-7.7c0-0.1-0.2-0.1-0.1,0c0.4,2.4,0.6,4.8,0.6,7.3
					c0,1,0.2,2.1,0,3.2c0-0.1-0.1-0.1-0.1-0.2c0,0-0.1-0.1-0.1-0.1c0-1.8-0.2-3.6-0.5-5.4c-0.4-2.5-1.1-5-2-7.4c0,0-0.1,0-0.1,0
					c0.9,4.1,2.1,8.2,2,12.4c-0.2-0.1-0.5,0-0.6,0.3c0,0.2-0.1,0.4-0.1,0.5c-0.4-0.9-0.8-1.7-1.1-2.6c-0.5-1.5-0.9-3.1-0.8-4.6
					c0,0,0,0-0.1,0c-0.2,1.5,0,3,0.4,4.4c0.4,1.3,0.8,2.8,1.4,4c0,0.4,0.1,0.8,0.2,1.1c-0.4,3.2-0.3,6.6,0.7,9.7c0,0.1,0.1,0,0.1,0
					c-0.7-2.9-0.8-6.1-0.4-9.1c0.2,0.2,0.6,0.1,0.6-0.2c0,0,0,0,0,0c0.7,2.2,1,4.4,0.9,6.8c-0.1,3-0.5,6.1-1.9,8.8c0,0,0,0.1,0.1,0
					c1.5-2.7,2.1-5.9,2.2-8.9c0.1-2.1,0-4.6-0.6-6.7c0-0.1,0.1-0.1,0.1-0.2c0.1,0.1,0.1,0.2,0.2,0.3c0.2,0.3,0.5,0.7,0.7,1
					c0.3,0.6,0.6,1.3,0.9,1.9c0.7,3.9-0.3,8.3-1.4,11.9c0,0.1,0.1,0.1,0.1,0c1.1-3.1,2.1-6.8,2-10.2c0.1,0.3,0.2,0.6,0.3,0.9
					c0.9,3.2,0.9,6.4-0.1,9.5c0,0.1,0.1,0.1,0.1,0c1.3-3.3,1.5-6.7,0.4-10c-0.3-0.9-0.6-1.8-0.9-2.7c-0.1-0.6-0.3-1.1-0.5-1.7
					c0.8,0.6,1.6,1.1,2.4,1.6c1.8,2.7,2.6,6,2.1,9.2c0,0.1,0.1,0.1,0.1,0c0.5-3.1,0-6.2-1.5-8.8c0.6,0.3,1.1,0.6,1.7,0.8
					c0.8,1.4,1.4,2.9,2,4.4c0,0.1,0.2,0,0.1,0c-0.5-1.4-1-2.8-1.7-4.1c0.2,0.1,0.5,0.2,0.7,0.3c1.7,0.7,3.4,1.3,5.1,2
					c2.3,1,4.6,2.1,7,3c1.9,0.8,3.8,1.6,5.8,2.3c-0.2,0-0.5,0.1-0.7,0.1c-0.9,0.1-1.8,0.3-2.5,0.7c-0.1,0,0,0.2,0.1,0.1
					c0.7-0.3,1.8-0.3,2.8-0.4c-1.5,1.7-2.3,4.2-2.4,6.3c0,0,0,0,0,0c0.3-1.8,1-4.1,2.2-5.6c-1,2.1-1.7,4.3-1.4,6.7
					c0,0.1,0.1,0.1,0.1,0c-0.2-2.4,0.6-4.7,1.8-6.8c0.1-0.2,0.3-0.5,0.4-0.7c0.2,0,0.4-0.1,0.6-0.1c0.2,0.1,0.4,0.1,0.6,0.2
					c-0.4,1.4-0.6,2.8-0.9,4.3c-0.4,1.9-1,4-0.5,6c-2.1,1.4-4.1,3-5.8,4.7c-1.1,1.1-2.2,2.3-3.1,3.6c-0.2-1.3-0.7-2.6-1.2-3.7
					c-1.3-2.7-3.7-5.3-6.7-5.9c0,0-0.1,0.1,0,0.1c2.9,0.8,5.1,3.3,6.2,6c0.5,1.1,1,2.5,1.1,3.9c-0.4,0.1-0.9,0.2-1.2,0.4
					c0-1.2-0.1-2.3-0.3-3.5c-0.4-2-1.3-4.1-3.4-4.9c0,0,0,0,0,0c2,0.9,2.8,3.4,3,5.4c0.1,0.7,0.1,1.4,0.1,2.1
					c-1.2-3.4-4-6.1-6.5-8.9c0,0-0.1,0-0.1,0.1c1.5,1.8,3.2,3.5,4.6,5.5c0.6,1,1.1,1.9,1.5,3c-0.9-1.6-2.2-3.1-3.5-4.2
					c-2.3-2-6.2-4.7-9.5-3.8c0,0,0,0.1,0,0.1c3.5,0,6.6,1.8,9.1,4.1c1.6,1.5,3.4,3.5,4.1,5.8c-0.1,0.1-0.2,0.2-0.2,0.4
					c-1.1-3.8-4.9-5.3-7.8-7.5c0,0-0.1,0,0,0c2.7,2.3,6,3.8,7.2,7.3c-0.3-0.1-0.7,0.1-0.5,0.5c0.2,0.5,0.5,0.8,0.8,1.2c0,0,0,0,0,0
					c0.1,0.3,0.3,0.6,0.5,0.9c-0.1,0.1-0.1,0.2-0.1,0.3c0.6,1,1.5,1.7,2.2,2.6c0.7,0.8,1.2,1.8,1.6,2.8c0,0.1,0,0.1,0.1,0.2
					c-0.4,0.6-0.9,1.2-1.4,1.8c-0.1,0.2,0.1,0.4,0.2,0.3c0.5-0.4,1-0.7,1.5-1.1c0.4,1.6,0.3,3.2-0.1,4.8c0,0,0.1,0.1,0.1,0
					c0.6-1.6,0.8-3.4,0.3-5.1c0.6-0.6,1.2-1.1,1.7-1.8c0.3,0.3,0.6,0.7,0.9,1c0.7,0.9,1.2,1.8,1.7,2.8c-1,2.7-2.3,5.2-4.8,7.2
					c-0.2,0.2-0.1,0.5,0.2,0.4c2.6-0.8,4.3-2.4,5.6-4.4c0.1,0.4,0.2,0.9,0.2,1.3c0,0.1,0.1,0.1,0.1,0c0-0.5-0.1-1-0.2-1.5
					c1.1-1.8,1.9-3.9,2.7-6c0.7,0.8,1.3,1.7,1.7,2.7c0,0.1-0.1,0.1-0.1,0.2c-27.9,95.7-45.8,81.2-50.8,157.5
					c-0.4,6,10.9,9.3,9.2,2.3c-12.7-53.5,34.9-110.7,43.5-146.4c1.7-0.6,3.7-0.5,5.5-0.3c-0.2,3.2,0,6.4,0.8,9.5
					c0.1,0.2,0.4,0.2,0.5,0c0.4-3,0.9-6,1.5-9c0.4,0.1,0.8,0.1,1.1,0.2c0.7,0.1,1.6,0.6,2.3,0.4c0,0,0,0,0,0c0.7,0.4,1.5,0.6,2,0
					c0.1,0,0.1,0,0.2,0c0.3-0.1,0.6-0.1,0.9-0.1c1.4,0.5,2.7,1.4,3.8,2.3c1.5,1.2,2.9,2.7,3.8,4.4c0,0,0.1,0,0.1,0
					c-1.3-2.7-3.7-5.2-6.6-6.6c0.2,0,0.4,0.1,0.6,0.1c1,0.2,2.1,0.4,3.1,0.7c1.5,0.4,2.9,0.9,4.3,1.5c1,0.5,1.9,1.2,3,1.3
					c0.1,0,0.1-0.1,0-0.1c-1.5-0.3-2.7-1.5-4.1-2.2c-1.4-0.6-2.9-1.1-4.5-1.4c-1-0.2-2.1-0.5-3.1-0.6c-0.3,0-0.6-0.1-0.9,0
					c0,0-0.1,0-0.1,0c0-0.1-0.1-0.2-0.1-0.2c0,0,0-0.1,0-0.1c0.3-0.2,0.7-0.3,1-0.4c2.1-0.5,4.4,0.2,6.4,0.9c2.3,0.9,4.6,2,6.8,3.1
					c0.1,0,0.1-0.1,0-0.1c-2.5-1.4-5-2.8-7.7-3.7c-0.7-0.2-1.5-0.5-2.4-0.6c0.9,0,1.7,0.1,2.4,0.2c2.4,0.4,4.8,1.3,6.8,2.8
					c0.1,0,0.1,0,0.1-0.1c-2.1-1.8-4.7-2.9-7.4-3.2c-1.3-0.2-2.5-0.2-3.8,0c-0.4,0-0.8,0.1-1.3,0.2c-0.1,0-0.2,0-0.3,0.1
					c0,0,0,0,0,0c0.5-0.6,1.4-1,2.1-1.3c0.9-0.4,1.8-0.7,2.8-0.8c2.9-0.2,5.7,0.8,8.3,1.9c0,0,0.1,0,0-0.1c-2.6-1.5-6.1-2.8-9.1-2.2
					c-1.1,0.2-2.2,0.6-3.1,1.1c-0.5,0.3-1.6,0.8-1.6,1.5c-0.2,0.1-0.4,0.2-0.6,0.3c0,0-0.1,0-0.1-0.1c1.6-2.6,4.4-3.8,7.5-3.6
					c0.1,0,0.1-0.1,0-0.1c-2.9-0.3-5.7,0.6-7.5,2.8c0-0.8-0.3-1.8-0.5-2.1c-0.1-0.3-0.3-0.6-0.4-1c0.4-0.9,0.8-1.7,1.3-2.5
					c0,0,0.1,0.1,0.1,0.1c0,0,0,0,0,0c0,0-0.1-0.1-0.1-0.1c1.3-2.3,2.9-4.4,4.4-6.6c0.9,0.6,2,1.1,3.1,1.4c-0.1,1.5,0,3,0.4,4.7
					c0,0.2,0.3,0.1,0.3-0.1c0-1.5,0.3-2.9,0.6-4.4c0.7,0.1,1.5,0.2,2.2,0.2c2,0,3.9-0.3,5.7-1c0,0,0,0,0,0.1c0,0.1-0.1,0.1-0.1,0.2
					c-0.1,0.2-0.3,0.4-0.5,0.5c-0.7,0.5-1.5,1-2.3,1.4c-1.5,0.6-3.2,1.3-4.9,0.9c-0.1,0-0.1,0.1,0,0.1c1.7,0.6,3.9-0.2,5.4-1
					c0.4-0.2,1.1-0.5,1.7-0.9c-0.9,1.8-1.5,3.8-1.8,5.8c0,0.1,0.1,0.1,0.1,0c0.5-2,1.1-4,2-5.8c0-0.1,0.2-0.3,0.3-0.5
					c0.4-0.3,0.7-0.7,0.8-1.1c0.3,0,0.6,0.1,1,0.1c-0.2,1-0.1,2.3-0.1,2.6c0.1,1.2,0.3,2.5,0.7,3.7c0.3,0.8,0.6,1.7,1.3,2.2
					c0,0,0.1,0,0.1-0.1c-1.2-1.2-1.5-3.6-1.6-5.2c-0.1-0.8-0.3-2.2,0.1-3.1c0,0,0,0,0.1,0c0.2,0,0.5,0,0.8,0c0,0.1,0.1,0.2,0.2,0.3
					c0.1,0.2,0.2,0.4,0.3,0.6c0.2,0.8,0.4,1.6,0.8,2.3c0.6,1.3,1.5,2.3,2.5,3.2c1,1.5,2.2,3,3.5,4.2c-2.3-0.6-4.8-0.6-7.1-0.3
					c0,0,0,0.1,0,0.1c2.7-0.1,5.4-0.1,8,0.9c0.7,0.5,1.4,0.9,2.1,1.2c0,0,0,0,0,0c0.1,0.1,0.2,0.1,0.2,0.2c-0.1,0.1,0,0.2,0.1,0.2
					c0.1,0,0.1,0,0.2,0c0,0,0,0,0,0c-0.5,0-1.1,0-1.7-0.1c-0.4,0-0.8,0-1.2,0c-1.4-0.3-2.7-0.5-4.1-0.8c-2.2-0.5-4.9-1.1-6-3.2
					c0-0.1-0.1,0-0.1,0.1c0.9,2,3.3,2.9,5.3,3.4c0.6,0.2,1.2,0.3,1.9,0.4c-2.3-0.2-4.6-0.2-6.9,0.3c-0.1,0,0,0.1,0,0.1
					c2.5-0.6,5.1-0.3,7.6,0c0.9,0.1,1.7,0.2,2.6,0.3c0.5,0.1,1,0.2,1.5,0.4c-0.9,0.2-1.7,0.3-2.6,0.3c-2.4-0.1-4.8-0.4-7.2-1
					c-0.1,0-0.1,0.1,0,0.2c2.2,0.7,4.6,1.1,6.9,1.3c1,0,1.9,0,2.8-0.2c0.4-0.1,0.7-0.2,1.1-0.3c0.1,0,0.2,0,0.3,0.1
					c-0.4,0.2-0.8,0.4-1.2,0.7c-0.2,0.1-0.5,0.1-0.7,0.2c-1.1,0.2-2.1,0.2-3.2,0.2c-1.8-0.1-3.8-0.1-5.6-0.7c-0.1,0-0.1,0.1-0.1,0.1
					c2,0.8,4.4,0.9,6.5,1c0.4,0,1.3,0,2.3-0.1c-0.3,0.3-0.6,0.6-0.8,0.8c-0.2,0.2-0.3,0.3-0.4,0.5c-0.2,0.1-0.4,0.2-0.6,0.2
					c-2,0.6-4.6,0.2-6.4,1.4c0,0,0,0.1,0,0.1c2.1-1,4.4-0.6,6.6-1.2c-0.5,0.6-1,1.2-1.4,1.8c-0.4,0.6-1,1.2-1.3,1.9c0,0,0,0,0,0
					c0.5-0.4,0.9-1.1,1.3-1.6c0.6-0.7,1.2-1.5,1.9-2.2c0,0,0,0,0.1-0.1c0.1,0,0.2-0.1,0.3-0.1c0.5-0.2,2.4-1.1,3.3-2
					c0,0,0,0.1,0.1,0.1c0,0,0,0,0,0c-1.4,1.4-3.4,2.8-3.4,4.9c0,0,0.1,0,0.1,0c0.1-2.2,2.2-3.3,3.6-4.7c1.6,1.1,3.2,2.2,4.2,4
					c0,0.1,0.1,0,0.1,0c-0.7-1.9-2.5-3-3.9-4.2c0,0,0,0,0,0c1,0.7,2.4,0.8,3.5,0.8c1.7,0,3.4-0.1,5.1,0c0.1,0,0.1-0.1,0-0.1
					c-1.4-0.2-2.7-0.2-4.1-0.2c-0.7,0-1.4-0.1-2.1-0.2c1.2,0,2.6-0.4,3.6-0.7c1.5-0.5,3.2-1,4.5-1.9c0,0,0-0.1,0-0.1
					c-2.9,1.4-6,2.2-9.2,2.2c-0.1,0-0.2,0.1-0.2,0.1c-0.1,0-0.1-0.1-0.2-0.1c0.2-0.1,0.5-0.2,0.7-0.3c0.2-0.1,0.2-0.4,0.1-0.6
					c0.5-0.2,1-0.5,1.6-0.7c2-1,3.9-2,6.1-2.4c0,0,0,0,0,0c-1.8,0.2-3.4,0.9-5,1.6c-0.9,0.4-1.7,0.8-2.6,1.2c0,0,0,0-0.1,0
					c0-0.2-0.2-0.3-0.4-0.3c0,0,0,0-0.1,0c0.8-0.6,1.4-1.4,2-1.9c1.4-1.2,3-2.3,3.8-4c0,0,0,0,0,0c-1,1.6-2.6,2.6-4,3.8
					c-0.8,0.7-1.5,1.3-2.4,1.8c-0.2-0.1-0.4-0.3-0.7-0.4c0.1-0.2,0.2-0.4,0.4-0.6c1-1.4,2.3-2.7,3.6-3.8c0.1,0,0-0.1-0.1-0.1
					c-1.6,1.2-3.1,2.7-4.3,4.3c-0.3-0.1-0.6-0.1-0.9-0.1c-0.5-0.4-1.1-0.7-1.6-1c-0.6-0.3-1.3-0.6-2-0.8c-1.3-1.1-2.4-2.5-3.3-3.9
					c0.5,0.4,1,0.7,1.6,1c0.1,0,0.1-0.1,0.1-0.1c-0.7-0.4-1.3-0.9-1.9-1.4c-0.2-0.2-0.3-0.5-0.5-0.7c-0.9-1.4-1.7-2.8-2.4-4.2
					c0-0.1-0.1-0.2-0.1-0.4c0.8,0.6,1.8,1.2,2,1.3c1.1,0.6,2.2,1.1,3.4,1.5c2,0.6,4.1,0.9,6.2,1.1c0,0,0.1-0.1,0-0.1
					c-2.9-0.6-5.8-1-8.5-2.4c-0.5-0.2-2.4-1.2-3.2-2c0-0.2,0-0.4,0-0.7c0-0.1,0-0.1,0-0.2c0.2,0,0.4-0.1,0.6-0.1
					c0.1,0,0.1,0.1,0.2,0.1c0.1,0,0.1,0,0.2-0.1c0,0,0.1,0,0.1,0c0.2,0.1,0.5,0.1,0.8,0.1c1.9,0.3,3.9,0.5,5.7,0.2
					c1.4-0.3,2.8-0.8,4.2-1.2c1.1,0.5,2.2,1.1,3.4,1.6c-0.3,0-0.5,0-0.8,0c0,0,0,0.1,0,0.1c0.3,0,0.7,0,1,0c1.4,0.6,2.9,1.3,4.3,1.9
					c0.7,0.3,1.3,0.6,2,0.9c-0.5,0.9-1.2,1.8-1.9,2.5c0,0,0,0.1,0.1,0.1c0.8-0.8,1.4-1.6,2-2.5c3.5,1.6,7.1,3.3,10.8,4.4
					c-2,0.2-4,0.8-5.6,1.8c-0.1,0,0,0.1,0,0.1c1.9-0.8,4-1.3,6.1-1.3c-3,0.5-5.7,1.9-8.1,3.8c-0.1,0,0,0.1,0.1,0.1
					c2.5-1.7,5.4-3,8.4-3.4c0.7-0.1,1.5-0.2,2.2-0.2c0.3,0.1,0.6,0.1,0.9,0.2c0,0,0,0,0,0c-0.3-0.1-0.5-0.1-0.8-0.2c0,0,0.1,0,0.1,0
					c0.5,0.1,1.1,0.3,1.6,0.5c0,0,0,0.1,0,0.1c0,0,0,0,0,0c0,0.1,0,0.1,0.1,0.2c0,0,0,0-0.1,0c-0.1,0-0.1,0-0.2,0.1
					c-4.5-0.3-9.2,1.5-12,5c0,0,0,0.1,0,0c2.8-3.1,7-4.6,11.1-4.5c-1.2,0.4-2.4,0.9-3.5,1.5c-1.8,1-3.4,2.5-4.5,4.3c0,0,0,0.1,0.1,0
					c1.3-1.8,3-3.2,5-4.1c1.2-0.6,2.4-0.9,3.7-1.3c0,0.1,0,0.1,0,0.2c-0.7,0.6-1.3,1.5-1.6,1.9c-1,1.4-1.9,2.9-2.4,4.5
					c0,0,0,0.1,0.1,0c0.7-1.4,1.5-2.9,2.5-4.1c0.5-0.7,1.1-1.4,1.7-1.9c0.1-0.1,0.3-0.2,0.4-0.3c0.2,0,0.4-0.1,0.6-0.1c0,0,0,0,0,0
					c-0.1,0.1,0.1,0.3,0.2,0.3c0.4,0,0.9-0.2,1.2-0.4c1.1-0.5,2-0.9,3.1-1.1c2.1-0.3,4.2-0.3,6.3,0c0,0,0.1-0.1,0-0.1
					c-2.2-0.6-4.8-0.6-7-0.2c-0.5,0.1-1,0.2-1.5,0.4c-0.2,0.1-0.4,0.2-0.6,0.3c0.2-0.2,0-0.6-0.2-0.7c3.1-1,6.2-2.2,8.2-4.9
					c0,0,0-0.1-0.1-0.1c-2.3,2.5-5.2,3.7-8.3,4.7c-0.1-0.1-0.2-0.1-0.3-0.1c-0.1,0-0.1,0-0.2,0c0,0,0,0-0.1,0
					c-0.1,0-0.1,0.1-0.2,0.1c-0.1,0-0.1,0.1-0.2,0.1c0,0,0,0,0,0c0,0,0,0,0,0c0,0,0,0,0-0.1c0,0,0,0,0,0c0.1,0,0.3,0,0.3-0.2
					c0.4-0.2,0.8-0.4,1.2-0.5c0.9-0.5,1.6-1.1,2.3-1.8c1.4-1.5,2.8-3,3.6-5c0-0.1-0.1-0.1-0.1,0c-1,2.1-2.7,3.9-4.4,5.4
					c-0.8,0.7-1.7,1.1-2.6,1.6c0.6-0.9,1.3-1.8,2-2.7c1.4-1.8,2.9-3.6,5-4.6c0.1,0,0-0.2-0.1-0.1c-2.3,1.1-3.8,2.9-5.4,4.7
					c-0.4,0.5-1,1.1-1.5,1.7c0-0.1,0.1-0.2,0.1-0.3c0.4-0.9,0.9-1.8,1.4-2.7c1.1-1.8,2.3-3.5,3.6-5.1c0-0.1,0-0.1-0.1-0.1
					c-1.7,1.6-3.1,3.6-4.2,5.6c-0.6,1-1.1,2.1-1.5,3.2c-0.1,0-0.3-0.1-0.4-0.1c0.1-1,0.5-1.9,1.1-2.9c0.8-1.3,1.7-2.8,3-3.7
					c0,0,0-0.1,0-0.1c-1.5,1-2.7,2.7-3.6,4.2c-0.3,0.6-0.8,1.4-1,2.3c-0.6,0-1.2,0-1.8,0c-0.9-0.2-1.9-0.3-2.9-0.2
					c-2.3-0.8-4.5-1.8-6.7-2.8c-1.4-0.6-2.8-1.3-4.2-1.9c1.1-1.7,2-3.7,2.8-5.6c1.2-2.7,2.7-5.5,2.7-8.5c0,0,0.1,0,0.1,0
					c-0.1,1.4-0.2,2.9-0.3,3.2c-0.5,3.6-1.5,7.3-3.9,10c0,0.1,0,0.1,0.1,0.1c2.8-3,3.9-7.1,4.4-11.1c0.1-0.8,0.2-1.6,0.2-2.5
					c0.1,0,0.1-0.1,0.2-0.1c0.2,0.8,0.3,1.6,0.5,2.3c-0.1,0.6-0.2,1.2-0.3,1.7c-0.2,1.2-0.3,2.3,0,3.4c0.6,2.7,1.9,5.7,4.3,7.3
					c0.1,0,0.1-0.1,0.1-0.1c-1.2-1.3-2.2-2.6-2.9-4.2c-0.6-1.3-1.2-3-1.2-4.4c0-0.7,0.2-1.6,0.3-2.5c0.4,1.3,1.1,2.5,2,3.5
					c1.8,2.1,4.4,3.4,7.1,2.7c0,0,0-0.1,0-0.1c-3.1,0.4-5.8-1.3-7.5-3.8c-0.7-1.1-1.2-2.2-1.5-3.4c0.1-1,0.1-2-0.4-2.8
					c0-0.1-0.1-0.1-0.1-0.1c0,0,0-0.1,0-0.1c0-0.1,0.1-0.1,0.1-0.2c0,0,0,0,0,0c1.8,2.3,4.3,4.8,7.1,5.4c2.9,0.7,5.3-1.1,7.7-2.3
					c0,0,0-0.1,0-0.1c-2.4,1-4.9,2.8-7.6,2c-2.6-0.8-4.6-2.8-6.4-4.9c0.2,0,0.4,0.1,0.6,0.1c0.2,0,0.4,0.1,0.6,0.1
					c1,0.4,2.1,0.9,3.1,1.2c1.7,0.5,3.7,1.1,5.6,0.9c1.1-0.1,1.9-0.6,2.7-1.1c4.7,0.4,9.4,0.6,14.1,0.6c-2.7,1.5-6.6,5.2-7.4,5.8
					c0,0,0,0.1,0,0c1.5-1.2,3.1-2.4,4.7-3.6c0.9-0.7,1.9-1.3,3-1.9c0.2-0.1,0.4-0.2,0.7-0.3c0.1,0.1,0.2,0.1,0.2,0.2
					c-0.8,0.8-1.9,1.5-2.7,2.1c-1.9,1.6-3.7,3.4-5.6,5c0,0,0,0.1,0.1,0.1c2.3-1.6,4.3-3.6,6.5-5.2c0.5-0.4,1.4-1,2.2-1.7
					c0,0,0.1,0.1,0.1,0.1c-2.6,4-6.3,7.7-10.9,9.1c0,0,0,0,0,0c4.6-1,8.9-4.7,11.4-8.7c0.1,0.1,0.1,0.1,0.2,0.2
					c0.1,0.1,0.2,0.1,0.3,0c-0.9,1.9-1.8,3.9-3,5.6c-1.5,2.3-3.4,4.4-4.4,6.9c0,0.1,0.1,0.1,0.1,0c1.2-2.5,3.1-4.5,4.6-6.8
					c1.3-1.9,2.1-4,3.2-6c0,0,0,0,0,0c0.1,0,0.1,0.1,0.2,0c0.2-0.1,0.4-0.1,0.7-0.2c0,1.5-0.1,2.9-0.6,4.4c-0.6,2.1-1.7,3.9-3.3,5.4
					c-0.1,0.1,0,0.1,0.1,0.1c2.8-2.4,4.4-6.3,4.3-10.1c3-1.3,5.2-4.7,6.4-7.5c0,0,0-0.1-0.1,0c-1.3,2.7-3.5,5.7-6.3,7
					c0-0.2,0-0.4-0.1-0.6c0.1-0.2,0.1-0.5,0.1-0.7c0.6-0.6,1.1-1.2,1.5-2c1.7-2.8,3.1-5.8,3.6-9.1c0-0.1-0.1-0.1-0.1,0
					c-0.7,3.1-2,6-3.6,8.6c-0.4,0.7-1,1.3-1.5,2c0,0,0,0,0,0c0.9-1.2,1.4-2.8,1.7-3.9c0.7-2.3,1-4.8,1.9-7.1c0-0.1-0.1-0.2-0.1-0.1
					c-0.9,2-1.3,4.2-1.9,6.3c-0.3,1.2-0.7,2.4-1.3,3.5c-0.4,0.7-0.9,1.2-1.4,1.7c-0.1,0-0.1,0.1-0.2,0.1c0.2-0.7,0.4-1.3,0.6-2
					c0.4-1.7,0.6-3.4,0.9-5.1c0.3-2.6,0.6-5.5-0.9-7.8c-0.1-0.1-0.2,0-0.1,0.1c1.6,2.8,0.9,6.4,0.4,9.4c-0.3,1.7-0.6,3.5-1.2,5.2
					c0,0,0-0.1,0-0.1c0-0.1-0.1-0.1-0.1-0.1c0-0.1,0-0.3,0-0.4c0.1-1,0.2-2,0.2-3.1c0.3-3.2-0.8-6.8-2.3-9.6c0-0.1-0.2,0-0.2,0.1
					c1.3,3.5,2.2,7,1.8,10.7c0,0.2-0.1,0.7-0.1,1.4c0,0,0-0.1,0-0.1c-0.3-1.1-0.6-2.1-0.9-3.2c-0.6-2.1-1.1-4.3-1.7-6.4
					c0-0.1-0.2,0-0.1,0c0.4,2.2,0.9,4.3,1.4,6.5c0.3,1.1,0.5,2.1,0.8,3.2c0.1,0.6,0.3,1.1,0.5,1.7c-0.2,0-0.5,0.1-0.8,0.2
					c-0.7-0.5-1.4-0.9-1.8-1.7c-1.2-1.7-1.3-3.7-1.6-5.6c0-0.2-0.3-0.2-0.3,0c0.2,1.8,0.2,3.8,1.2,5.4c0.5,0.9,1.3,1.5,2,2.1
					c-0.1,0-0.2,0.1-0.3,0.2c-4.7-0.2-9.3-0.3-14-0.8c1.2-0.9,2.2-2.2,3.3-3.3c0,0,0-0.1-0.1-0.1c-1.2,1.1-2.3,2.4-3.6,3.3
					c-1.6-0.1-3.1-0.3-4.7-0.5c-0.9-0.1-1.8-0.2-2.6-0.4c2-0.6,3.6-1.9,5.3-3.1c0,0,0-0.1,0-0.1c-1.8,1.4-3.9,2.7-6.1,3.1
					c-1.5-0.2-2.9-0.5-4.4-0.8c0,0,0,0,0-0.1c3.5,0.5,7.1-2.4,9.5-4.7c0,0,0-0.1-0.1-0.1c-2.5,2.1-5.9,4.8-9.3,4.3
					c0-0.1,0-0.3,0-0.4c0-0.4-0.2-0.7-0.4-0.9c0.3-0.1,0.6-0.1,0.9-0.1c0.4,0,0.7-0.1,1.1-0.2c0.9-0.1,1.8-0.3,2.7-0.8
					c0.7-0.3,1.3-0.7,1.9-1.2c0.5-0.3,1.1-0.6,1.6-0.9c2.4-1.4,5.5-3.4,6.6-6.1c0,0,0-0.1-0.1,0c-1.3,2.5-3.9,4.3-6.5,5.7
					c0,0-0.1-0.1-0.1,0c-0.2,0.1-0.3,0.2-0.4,0.3c-0.4,0.2-0.7,0.4-1.1,0.6c-1.8,1-3.8,1.9-5.9,2.1c-0.2,0-0.4,0-0.6,0.1
					c0,0,0-0.1,0-0.1c2.1-2.4,4.1-4.8,5.7-7.6c1.1-2,2.8-4.9,1.9-7.2c0.6-0.6,1.2-1.2,1.8-1.8c1.2-0.3,2.4-0.6,3.6-0.9
					c-1,2.4-2.2,4.6-3.8,6.6c-0.1,0.1,0.1,0.3,0.2,0.2c1.7-2.1,3.1-4.4,4.1-6.9c1.4-0.4,2.8-0.8,4.2-1.2c-0.4,2.7-1.3,5.3-2.7,7.6
					c0,0,0.1,0.1,0.1,0.1c1.6-2.2,2.7-5,3.1-7.8c0.9-0.3,1.8-0.5,2.7-0.8c0,1.4-0.1,2.9-0.3,4.3c0,0.1,0.1,0.1,0.1,0
					c0.3-1.4,0.5-2.9,0.5-4.4c5.3-1.6,10.6-3.2,15.8-4.8c0,0,0,0,0,0c0.1,0,0.3,0.1,0.4,0.1c0.1,0.1,0.3,0.2,0.4,0.2
					c-0.2,0.2-0.3,0.3-0.5,0.5c-0.7,0.7-1.3,1.4-1.9,2.1c-1.2,1.4-2.3,2.8-3.2,4.4c0,0,0,0.1,0.1,0c1-1.5,2.2-2.8,3.5-4.1
					c0.7-0.7,1.3-1.4,2-2c0,0,0.1-0.1,0.1-0.1c-1.2,3.7-2.4,7.5-5.9,9.8c0,0,0,0.1,0,0.1c3.6-2,5-5.8,6.2-9.5
					c-0.1,0.9-0.2,1.9-0.3,2.1c-0.2,1-0.6,2-0.9,3c-0.7,1.9-1.7,3.9-3.3,5.2c-0.1,0,0,0.1,0.1,0.1c2-1.4,3.1-3.7,3.9-5.9
					c0.4-1.2,0.8-2.3,1-3.6c0.1-0.6,0.1-1.1,0.1-1.7c0.1,0.1,0.2,0.2,0.3,0.2c-0.1,1.6-0.1,3.3,0.2,5c-0.1,0.3-0.2,0.7-0.3,1
					c-0.8,3-1.7,6-2.7,8.9c0,0,0,0,0.1,0c1.3-2.9,2.3-5.9,3.1-9c0.6,2.7,1.9,5.3,3.7,7.2c0,0,0.1,0,0-0.1c-1.8-2.1-3-4.9-3.6-7.8
					c0.3-1,0.8-2.7,0.7-4.1c0.7,3.7,1.5,7.7,4.2,10.3c0,0,0.1,0,0.1-0.1c-1.2-1.9-2.3-3.7-2.9-5.9c-0.6-2-1-4-1.3-6.1
					c1.1-0.7,3,2.1,3.5,2.7c0.9,1.3,2.1,3.2,1.6,4.8c0,0,0,0,0,0c1.1-1.8-2.4-7.2-4.4-8c0.4-0.1,0.7-0.2,1-0.3
					c1.3-0.6,2.6-1.4,3.6-2.4c0,0,0-0.1,0-0.1c-0.9,0.6-1.8,1.2-2.8,1.7c-0.6,0.3-1.4,0.7-2.1,0.8c-0.4,0.1-0.7,0-0.9-0.1
					c0-0.1,0-0.2,0-0.3c0,0,0,0,0.1,0c0,0,0,0,0,0c0,0,0,0-0.1,0c0,0,0,0,0,0c0.1-0.6,0.1-1.2,0.2-1.8c0.2-1,0.4-2,0.5-3.1
					c0.4-2.7,0.8-6.9,3.6-8.2c0.1,0,0-0.1,0-0.1c-3.2,1.3-3.4,5.8-4,8.7c-0.1,0.4-0.4,1.7-0.7,3.1c-0.1-0.1-0.3-0.1-0.4,0
					c-0.1-0.4-0.2-0.7-0.2-1.1c-0.1-0.4-0.2-0.9-0.3-1.3c-0.3-3.6-0.1-7.2,1.6-10.4c0,0,0-0.1-0.1,0c-1.6,2.7-2,5.8-2,8.9
					c-0.1-0.3-0.2-0.5-0.3-0.8c-0.9-2.4-2.2-4.6-3.8-6.5c0,0-0.1,0-0.1,0.1c1.5,2.1,2.7,4.5,3.6,6.9c0.2,0.7,0.5,1.4,0.6,2.2
					c0.1,1.1,0.2,2.2,0.4,3.2c-0.1,0-0.2,0.1-0.2,0.2c0,0.1,0,0.1-0.1,0.2c0,0,0,0,0,0c-0.4-0.5-0.8-1.1-1.1-1.6
					c-0.7-1-1.3-2.1-1.9-3.2c-1-2.2-1.8-4.4-1.9-6.8c0,0-0.1-0.1-0.1,0c-0.3,2.3,0.8,4.9,1.7,6.9c0.5,1.1,1,2.1,1.6,3
					c0.4,0.6,0.9,1.2,1.3,1.8c-0.2,0-0.5,0.1-0.7,0.1c-0.4-0.2-0.7-0.5-1-0.9c-0.7-0.8-1.4-1.7-1.9-2.7c-1-1.8-2.3-4.5-1.4-6.5
					c0,0,0,0,0,0c-1.1,2.2,0,4.8,1,6.8c0.6,1.2,1.4,2.4,2.4,3.3c-0.1,0-0.2,0-0.3-0.1c-0.8-0.3-1.7-0.7-2.4-1.3
					c-1.2-0.9-2-2-2.4-3.4c-0.8-2.7-0.5-5.8,0.6-8.4c0,0,0-0.1-0.1,0c-1.4,2.7-1.8,6.4-0.7,9.2c0.6,1.5,1.6,2.6,2.9,3.5
					c0.6,0.4,1.4,0.9,2.1,1c0.1,0,0.3,0,0.4,0c-1.3,0.4-2.6,0.8-3.9,1.1c-3.9,1.1-7.8,2.3-11.7,3.5c0-1.9-0.4-3.7-1.2-5.4
					c-0.2-0.4-0.9-2.4-1.7-3.3c0.1,0,0.3,0,0.4-0.1c2.3,1.8,2.8,5.3,3.7,7.9c0,0.1,0.1,0,0.1,0c-0.7-2.7-1.2-6-3.3-8
					c0,0,0.1,0,0.1,0c2.2,1.8,4.9,5.3,5.2,6.1c0.1,0.1,0.3,0.1,0.2-0.1c-0.4-0.9-2.7-4.2-4.9-6.2c0.3-0.1,0.5-0.2,0.6-0.3
					c0,0,0,0,0.1,0c0.4,0.1,0.9,0.2,1.3,0.5c1.6,0.9,2.9,2.4,3.4,4.2c0,0.1,0.1,0,0.1,0c-0.4-2.3-2.1-4.2-4.2-5
					c2.1-1.6,3.8-3.9,4.8-6.3c0-0.1-0.1-0.1-0.1,0c-1,2.1-2.6,4.4-4.5,5.8c-0.1,0.1-0.4,0.3-0.7,0.4c-0.5-0.1-1.3-0.2-1.9-0.2
					c-0.2-0.1-0.4-0.2-0.6-0.3c0,0,0,0,0-0.1c1.7-1.1,3-3,3.9-4.8c1-1.9,1.7-3.9,2.1-6c0-0.1-0.1-0.1-0.1,0
					c-0.5,2.1-1.3,4.1-2.3,5.9c-0.5,0.9-1.1,1.9-1.8,2.7c-0.3,0.4-0.7,0.8-1.1,1.1c-0.1,0.1-0.5,0.4-0.7,0.5c0-0.3-0.2-0.7-0.3-0.9
					c0.3-2,0.5-4.6,0.5-4.9c0.2-1.4,0.3-2.9,0.6-4.3c1-0.9,2-1.7,3-2.5c2.6-2.1,5.6-4.1,8.1-6.5c-1.2,2.5-2.2,5.2-3.5,7.6
					c0,0,0,0,0,0c1.9-2.8,3-6.1,4.7-9c0.5-0.6,1-1.2,1.4-1.9c0,0.1,0,0.2,0,0.2c0.1,0.5,0.1,0.9,0.1,1.4c0.1,1.1,0.1,2.2,0.1,3.3
					c0,1.2,0,2.3-0.3,3.5c-0.4,2-1.2,3.8-1.6,5.8c0,0.1,0.1,0.1,0.1,0c1.4-3.2,2.4-6.5,2.4-10.1c0-0.3,0-2.5-0.2-4c0,0,0.1,0,0.1,0
					c2.3,4.1,4.1,8.3,3.7,13.1c0,0,0,0,0,0c0.9-4.5-0.7-9-2.9-12.9c0.1,0.1,0.2,0.2,0.3,0.2c0.8,0.6,1.5,1.1,2.3,1.7
					c1.8,1.5,2.8,3.1,2.9,5.5c0,0,0,0,0,0c0.2-2-0.6-3.8-2-5.2c-0.8-0.8-1.6-1.4-2.5-2.1c-0.5-0.4-1-0.9-1.6-1.4
					c0-3.4,0.8-7,2.5-9.9c0,0,0-0.1,0,0c-1.5,2.6-2.5,5.5-2.8,8.5c0-0.1-0.1-0.2-0.1-0.2c0,0,0,0,0,0c0.2-1.8-0.3-3.6-0.3-5.4
					c0-2.4,0.2-4.7,1-6.9c0,0-0.1-0.1-0.1,0c-0.8,1.9-1.2,3.9-1.2,6c-0.1,1.9,0.3,3.8,0.2,5.7c0,0,0,0,0,0c-0.2-0.2-0.4-0.2-0.6-0.1
					c-0.4-0.8-0.9-1.6-1.3-2.4c-0.2-0.7-0.4-1.3-0.7-1.9c0-0.1,0-0.1-0.1-0.2c-0.7-2.7-1.1-5.7-0.1-8.4c0,0,0-0.1-0.1,0
					c-1,2.3-0.9,4.8-0.6,7.2c0,0-0.1-0.1-0.1-0.1c-1.6-2.6-3.8-4.8-6.4-6.4c0,0-0.1,0,0,0c2.5,1.9,4.8,4.1,6.3,6.8
					c0.2,0.4,0.4,0.8,0.6,1.2c0.2,0.7,0.4,1.3,0.7,2c0.1,0.5,0.3,0.9,0.4,1.4c-0.8-1.3-1.6-2.7-2.6-3.9c-1.7-2.1-3.6-4-5.6-5.7
					c0,0-0.1,0,0,0.1c2,2,4.1,4,5.7,6.4c1.2,1.7,2.1,3.5,3.1,5.3c0.1,0.3,0.2,0.6,0.3,0.9c0,0,0,0-0.1,0c-0.5-0.2-0.9-0.4-1.4-0.6
					c-1-0.5-1.9-1.1-2.8-1.9c-2.1-1.8-3.7-4.1-5.1-6.5c0-0.1-0.1,0-0.1,0.1c1.4,2.9,3.3,5.6,5.8,7.6c0.3,0.3,1.8,1.4,3,1.9
					c0,0,0,0,0,0c-0.8,0.5-1.4,1.3-1.9,2.1c-1.1,1.6-2.1,3.5-3.6,4.8c0,0,0,0.1,0,0c1.5-0.7,2.5-2.5,3.4-3.8
					c0.6-0.8,1.1-1.6,1.9-2.3c0.3-0.3,0.7-0.5,1-0.6c0,0,0,0,0.1,0c-0.6,0.9-1.1,1.8-1.6,2.8c-1.6,1.6-3.3,3-5.1,4.3
					c-2.1,1.6-4.2,3.3-6.3,5.1c0.1-0.4,0.2-0.8,0.3-1.1c0.3-1.1,0.9-3.2,2.5-3c0,0,0,0,0,0c-1.1-0.2-1.8,0.7-2.2,1.6
					c-0.4,0.9-0.7,1.9-0.9,2.8c-0.5,0.5-1.1,0.9-1.6,1.4c-0.2,0.1-0.3,0.3-0.5,0.4c0.1-1.6,0.3-3.2,0.7-4.7c0.3-1.3,0.9-3.2,2.4-3.5
					c0,0,0-0.1,0-0.1c-1.3,0.2-2,1.6-2.4,2.7c-0.6,1.8-0.9,3.8-1.1,5.7c0,0,0,0.1,0,0.1c-0.9,0.8-1.8,1.5-2.8,2.2
					c-0.2-0.6-0.3-1.2-0.4-1.7c-0.4-2.7,0.1-5.5,0.9-8.1c0-0.1-0.1-0.1-0.1,0c-1,2.7-1.7,5.9-1.1,8.8c0.1,0.5,0.2,0.9,0.3,1.4
					c-0.1,0.1-0.1,0.1-0.2,0.2c-0.3-1-0.6-2.1-0.7-3.1c-0.5-2.9-0.9-6.9,0.9-9.4c0,0,0,0,0,0c-2,2.4-1.7,6.4-1.3,9.2
					c0.2,1.2,0.4,2.5,0.8,3.7c-0.2,0.2-0.5,0.4-0.7,0.5c-0.5-0.7-1-1.4-1.5-2.1c-1.5-2.5-2.8-5.4-2.4-8.4c0-0.1-0.1-0.1-0.2,0
					c-0.6,2.9,0.5,5.9,2,8.5c0.5,0.8,1,1.6,1.6,2.4c-0.6,0.5-1.2,1-1.8,1.4c-2-1.1-3.8-2.5-5.2-4.3c1-3.6-1.4-7.5-3.3-10.4
					c-1.2-1.8-2.3-3.7-3.5-5.4c-0.5-0.7-1-1.3-1.6-1.9c0.7,0.4,1.5,0.8,2.2,1.3c1.1,0.7,2.1,1.5,3.1,2.4c1.9,1.8,3.5,4,4.3,6.5
					c0,0,0,0,0,0c-0.6-2.6-2.1-4.9-4-6.8c-1-1-2-1.8-3.1-2.6c-0.1-0.1-0.3-0.2-0.4-0.3c1.6,0.6,3.1,1.4,4.5,2.2
					c1.5,0.8,3,1.7,4.5,2.7c0.8,0.5,1.7,1,2.5,1.7c0,0,0.1,0,0-0.1c-0.8-0.8-1.8-1.4-2.7-2c-1.7-1.1-3.4-2.2-5.2-3.2
					c-0.4-0.2-3.7-2.1-5.6-2.4c1.8-0.4,4.9-0.9,5.1-0.9c3.4-0.1,6.6,1,9.8,1.8c0,0,0,0,0-0.1c-4-1.4-7.8-2.8-12.1-2
					c-1,0.2-2.1,0.3-3.1,0.5c1-1.7,2.8-3,4.5-4c2-1.2,4.1-2.1,6.3-2.9c0,0,0-0.1,0-0.1c-2.4,0.8-4.7,1.8-6.9,3
					c-1.3,0.7-2.7,1.7-3.7,2.8c0-0.1,0.1-0.2,0.1-0.3c1.2-1.9,2.4-3.9,3.6-5.9c2.2-3.9,4.3-7.9,6-12.1c0.4,1.8,1.3,3.3,2.4,4.8
					c0,0,0.1,0,0,0c-1-1.4-1.9-3.1-2.1-4.8c0-0.2,0-0.5,0-0.7c0.4-1,0.8-2,1.1-3c0.1,0.1,0.3,0.2,0.4,0.2c0.6,1.1,0.7,2.6,1.1,3.7
					c1,2.6,2.5,5.1,2.9,8c0,0.1,0.1,0.1,0.1,0c-0.4-3.1-1.9-5.7-2.7-8.7c-0.1-0.3-0.2-1.3-0.5-2.2c0,0,0,0,0.1,0
					c1.4,1.5,2.5,3.2,3.3,5c1,2.1,1.9,4.3,2.2,6.7c0,0,0,0,0,0c-0.5-3.9-1.7-7.8-4.1-10.9c0.6,0.3,1.1,0.7,1.6,1.1
					c0.2,0.3,0.4,0.6,0.6,0.8c1.2,2,2.1,4.1,3.2,6.2c0,0,0,0,0,0c-0.9-2.2-1.8-4.4-3-6.4c2,1.8,3.8,3.8,5.9,5.5c0,0,0.1,0,0,0
					c-2.4-2.3-4.4-5-7-7c-0.1-0.1-0.2-0.2-0.3-0.4c0.9,0.5,1.9,0.9,2.9,1.1c2,0.4,3.9-0.1,5.9-0.2c0,0,0,0,0,0
					c-1.8,0-3.7,0.4-5.5-0.1c-1.7-0.4-3.3-1.2-4.7-2.2c0.8,0.2,1.6,0.3,2.5,0.3c1.8,0.1,3.8,0,5.5-0.7c0,0,0-0.1,0-0.1
					c-1.9,0.5-4,0.5-5.9,0.2c-0.8-0.1-1.6-0.2-2.3-0.4c0.2-0.2,0.4-0.4,0.5-0.5c1-1.4,0.3-2.9-0.2-4.4c0,0,0,0,0,0
					c0.2,1,0.7,2.2,0.3,3.2c-0.2,0.6-0.7,1.2-1.3,1.5c-0.1,0-0.2-0.1-0.3-0.1c-0.1-0.1-0.1-0.2-0.2-0.3c0.6-1.6-1-3.5-1.9-4.5
					c-1.4-1.5-3-2.9-4.8-4.1c0,0-0.1,0,0,0.1c1.4,1.1,2.7,2.4,3.9,3.7c0.9,1,2.5,2.8,2.3,4.3c-0.4-0.4-0.8-0.8-1.3-1.1
					c-1.1-0.8-2.2-1.7-3.4-2.3c-2.8-1.4-5.9-1.5-8.9-1.7c-0.1,0-0.1,0.1,0,0.1c2.8,0.3,5.9,0.5,8.4,1.8c1.2,0.6,2.3,1.4,3.3,2.2
					c0.4,0.3,0.8,0.7,1.2,1.1c0,0,0,0,0,0c-0.1,0-0.1-0.1-0.2-0.1c0,0,0,0-0.1,0c-0.9-0.5-1.8-1-2.8-1.3c-1.3-0.4-2.6-0.6-3.9-0.8
					c-2.2-0.3-4.8-0.7-6.8,0.6c0,0,0,0,0,0c2.3-1,4.8-0.5,7.2,0c1.2,0.2,2.4,0.4,3.5,0.8c-1,0-1.9,0-2.8,0c-2.6-0.1-5.5-1.1-8,0.1
					c0,0,0,0,0,0c2.6-0.8,5.2,0.1,7.8,0.2c1.2,0,2.4,0,3.6,0.1c0.3,0,0.5,0.1,0.8,0.1c0.1,0.1,0.2,0.1,0.3,0.2
					c-1.2-0.1-2.5-0.1-3.7,0c-2.9,0.2-5.8,0.6-8.6,1.3c0,0,0,0,0,0c2.6-0.5,5.3-0.8,7.9-0.8c1.4,0,3.2-0.2,4.7,0.1
					c0,0.1,0.1,0.2,0.2,0.2l0.1,0c-0.1,0.1-0.1,0.2-0.2,0.2c-0.8,0.4-1.6,0.8-2.3,1.2c-1.4,0.8-3,1.4-4.7,1.5c-2,0.1-4-0.4-5.9-0.9
					c-0.1,0-0.1,0.1,0,0.1c3.2,1,6.7,1.6,9.9,0.2c0.8-0.4,1.6-0.8,2.4-1.2c0.1,0,0.2-0.1,0.4-0.2c-0.2,1-0.2,2.2-0.1,2.7
					c0,0,0,0,0,0.1c-0.7,1.7-1.5,3.5-2.3,5.2c-2,4.2-4.4,8.2-6.8,12.1c0.1-0.6,0.2-1.1,0.2-1.2c0.6-3.3,0.7-7.2-0.7-10.4
					c0,0,0,0,0,0c1.1,3,0.9,6.6,0.4,9.7c-0.2,1-0.4,1.9-0.7,2.9c0,0.1-0.1,0.2-0.1,0.3c-0.3,0.4-0.5,0.8-0.8,1.2c0,0,0,0,0-0.1
					c1-3.8,0.3-7.8-1-11.5c0,0-0.1,0-0.1,0c1.1,3.6,1.6,7.5,0.6,11.1c-0.1,0-0.1-0.1-0.2-0.1c0-0.3,0.1-0.7,0.1-1
					c0.1-1.1,0-2.3-0.2-3.4c-0.6-3-1.5-5.7-2.7-8.4c0,0-0.1,0-0.1,0c1.2,3,2.3,6.1,2.6,9.4c0.1,1.1,0,2.2-0.1,3.3
					c-0.1,0-0.2,0-0.4,0c-0.8-2.4-1.9-4.9-3.2-7.1c-1.4-2.4-3.3-4.9-6.1-5.7c0,0,0,0,0,0c2.8,1,4.8,3.8,6.1,6.4
					c1.1,2,1.8,4.1,2.6,6.3c0,0,0,0,0,0c-0.7-0.5-1.5-0.9-2.3-1.3c-1.1-1.3-2.2-2.6-3.7-3.6c-2-1.4-4.4-2.4-6.9-2.6
					c-0.1,0-0.1,0.1,0,0.1c2.7,0.6,5.3,1.5,7.5,3.4c0.8,0.7,1.5,1.5,2.1,2.4c-0.8-0.3-1.6-0.6-2.4-0.8c-2.7-0.7-5.8-1.2-8.6-0.8
					c-0.1,0-0.1,0.2,0,0.2c2.7-0.4,5.6,0.2,8.3,0.9c1.1,0.3,2.3,0.7,3.4,1.3c0.1,0.2,0.3,0.3,0.4,0.5c-4.4-1.6-9.5-2.2-13.9-0.7
					c0,0,0,0.1,0,0.1c4.3-1.1,9.2-0.6,13.5,1c-2.2-0.3-4.5-0.3-6.7-0.4c-2.3-0.1-5.8-0.3-7.3,1.8c0,0,0,0,0,0
					c1.9-1.9,5.5-1.5,7.9-1.4c2.5,0.2,5.3,0.1,7.7,0.8c0.1,0.1,0.1,0.1,0.2,0.2c0.1,0.1,0.2,0.1,0.3,0c0,0.1,0.1,0.2,0.1,0.3
					c0,0,0,0,0,0c-0.1,0-0.2,0-0.3,0c-0.3,0-0.6,0-0.8,0c-0.7,0-1.3,0.1-2,0.2c-1.5,0.2-3,0.5-4.5,0.9c-2.7,0.7-5.3,1.7-7.2,3.8
					c-0.1,0.1,0,0.2,0.1,0.1c2.2-2.1,5.2-3,8.1-3.7c1.7-0.4,3.4-0.6,5.2-0.8c0.3,0,0.8,0.1,1.3,0.1c-1,0.5-2,1.3-2.7,2
					c-1.3,1.2-2.4,2.5-3.3,3.9c-1.9,2.8-3.6,5.8-5.2,8.7c0,0.1,0,0.1,0.1,0c1.9-2.8,3.4-5.8,5.4-8.5c1-1.3,2-2.6,3.2-3.7
					c0.6-0.6,1.3-1.1,2-1.5c0.2-0.1,0.4-0.2,0.6-0.3c-0.2,0.2-0.4,0.5-0.6,0.7c-0.8,1.2-1.6,2.4-2.3,3.6c-3.7,5.3-6.8,11-10.7,16.2
					c0.4-2,0.9-4,1.1-6.1c0-0.1-0.1-0.1-0.1,0c-0.6,2.2-1.1,4.4-1.5,6.7c-0.2,0.2-0.4,0.5-0.6,0.7c-1.7,0.7-3.1,2.3-4.3,3.7
					c-1.4-2.2-2.6-4.6-3.4-7.1c0-0.1-0.2,0-0.1,0c0,0,0,0.1,0,0.1c-1-0.4-2.1-0.6-3.1-0.9c0.2-1.3,0.4-2.6,0.6-4
					c1.1,0,2.3,0.1,3.4,0.3c0.1,0,0.1-0.1,0-0.1c-1.1-0.3-2.3-0.4-3.4-0.5c0.2-1.3,0.5-2.6,0.8-4c0.9-4.1,1.7-8.3,2.7-12.4
					c-0.2,1.3-0.5,2.5-0.8,3.8c0,0.1,0.1,0.1,0.1,0c0.9-2.9,1.4-5.9,1.9-8.9c0.7-2.6,1.5-5.2,2.3-7.8c0.7,1.7,1.1,3.4,1.3,5.3
					c0.4,4.1-0.1,8-0.7,12c0,0,0,0,0,0c1-3.9,1.4-8,1.1-12c-0.1-1.2-0.3-2.4-0.6-3.6c0.4,0.8,0.8,1.6,1.1,2.5c0.9,2.3,1,4.6,0.6,7.1
					c0,0,0.1,0.1,0.1,0c0.5-2.3,0.5-4.7-0.2-6.9c-0.6-1.8-1.5-3.4-2.4-5c0.1-0.3,0.2-0.6,0.3-0.9c0.4,0.1,0.7,0.3,1,0.5
					c1.2,0.6,2.4,1.3,3.6,2c2.4,1.5,4.8,3.1,6.9,5.1c0.1,0,0.1,0,0.1-0.1c-2.3-2.1-4.7-4-7.4-5.6c-1.1-0.7-2.5-1.7-3.9-2.3
					c1,0.1,2,0.2,2.2,0.2c2.3,0.3,4.6,1,6.8,1.7c0,0,0,0,0,0c-1.8-0.8-3.7-1.3-5.5-1.8c-0.8-0.3-1.7-0.4-2.6-0.5
					c-0.1,0-0.5-0.1-0.9-0.1c0.1-0.4,0.3-0.8,0.5-1.2c0.4,0,0.8,0,1.3,0c2.9,0,6.1,0.9,8.6,2.6c0,0,0,0,0,0c-2.3-1.7-5-2.7-7.9-3
					c-0.6-0.1-1.1-0.1-1.7-0.1c0.2-0.4,0.4-0.9,0.5-1.3c0.2-0.1,0.4-0.2,0.7-0.3c1.5-0.6,3.1-1.2,4.8-1.2c0,0,0,0,0,0
					c-1.8,0-3.6,0.5-5.3,1.1c1.6-3.7,3.5-7.3,5.8-10.6c0.6-0.4,1.2-0.9,1.7-1.5c0,0,0,0,0,0c0.3,1.5,1.2,2.9,2,4
					c1.3,1.8,2.8,3.4,4.5,4.8c0,0,0.1,0,0,0c-1.4-1.4-2.7-2.9-3.9-4.5c-0.8-1.1-1.8-2.6-2.1-4c0.6,0.9,1.3,1.7,2,2.5
					c1.7,1.9,3.5,3.7,5.2,5.7c0,0,0.1,0,0,0c-1.4-1.7-2.8-3.3-4.2-5c-0.8-1-1.7-2-2.5-3c-0.3-0.3-0.5-0.7-0.7-1c0,0,0-0.1,0-0.1
					c0.2,0,0.3,0,0.5,0c0.2,0,0.3-0.1,0.4-0.3c0.7,0.4,1.5,0.8,2.2,1.2c2.1,1.4,3.9,3.2,4.9,5.5c0,0,0.1,0,0.1,0
					c-1-2.7-3.1-4.9-5.6-6.3c-0.2-0.1-0.7-0.4-1.3-0.8c0.3-0.1,0.6-0.2,1-0.2c1.2-0.1,2.3,0.1,3.5,0.3c2,0.4,4.3,0.9,6.1,2
					c0.1,0,0.1,0,0-0.1c-1.9-1.3-4.4-2-6.7-2.4c-1.2-0.2-2.4-0.4-3.6-0.2c-0.2,0-0.5,0.1-0.8,0.2c1.2-0.6,2.9-0.7,4-0.7
					c1.7,0,3.5,0,5.2,0.3c0,0,0,0,0-0.1c-2-0.5-4.1-0.7-6.1-0.6c-0.4,0-0.8,0-1.3,0.1c1.1-0.4,2.2-1,3.2-1.9c0.1-0.1,0-0.2-0.1-0.1
					c-2,1.7-4.5,2.3-7,2.4c-3.1-1.1-5.6-3.8-7.8-6.1c0,0-0.1,0,0,0c1.9,2.3,4.2,4.7,7,6.1c-0.3,0-0.7,0-1,0c-0.1,0-0.2,0-0.2,0.1
					c-1.3-0.3-2.7-1-3.7-1.6c-1.8-1-3.7-2.3-4.8-4c0,0-0.1,0-0.1,0c1.1,2,3.2,3.5,5.2,4.5c1.2,0.7,2.7,1.3,4.1,1.5
					c-1.1,0.5-4,0.7-4.5,0.7c-2.6-0.1-4.8-1.1-6.3-3.3c0,0-0.1,0-0.1,0c1.6,2.8,4.6,3.9,7.8,3.6c1.1-0.1,2.3-0.2,3.3-0.6
					c0.1-0.1,0.3-0.2,0.5-0.3c0,0,0,0,0,0c0,0.1,0,0.1,0,0.2c-0.1,0.2-0.2,0.5-0.4,0.7c-0.4,0.4-0.9,0.6-1.4,0.8
					c-1.2,0.3-2.5,0.2-3.6,0c-2.1-0.5-4.7-1.5-5.9-3.4c0,0,0,0,0,0c1.1,2.2,4.2,3.4,6.5,3.8c1.2,0.2,2.6,0.3,3.7-0.1
					c0.1-0.1,0.3-0.1,0.5-0.2c-1.2,1-2.7,1.5-4.2,1.2c-2.7-0.5-5.3-2.1-6.8-4.4c-0.1-0.1-0.2,0-0.1,0.1c1.7,2.5,4.7,4.6,7.7,4.8
					c1.4,0.1,2.4-0.3,3.5-1.2c0.4-0.3,1.4-0.9,1.6-1.5c0.2,0,0.3,0.1,0.5,0.1c-0.1,0.2-0.1,0.4-0.2,0.6c-0.5,0.5-1.2,1.2-1.3,1.2
					c-0.9,0.7-1.6,1.1-2.8,1.2c-2.8,0.2-6.1-0.6-8.2-2.6c-0.1,0-0.1,0-0.1,0.1c1.3,1.3,3.1,2.1,4.8,2.5c1.4,0.3,3.5,0.7,4.9,0.1
					c0.3-0.1,0.6-0.3,0.9-0.4c-1.7,2.2-3,4.7-4.3,7.2c-0.5,1.1-1,2.2-1.5,3.3c-0.5,0.2-1.1,0.5-1.7,0.8c1-2.1,2.1-4.2,3.7-5.9
					c0,0,0,0,0,0c-1.9,1.8-3.2,4-4.3,6.3c-0.2,0.1-0.4,0.3-0.5,0.4c0.7-2.6,0.6-5.4,0.7-8c0,0-0.1,0-0.1,0c-0.4,1.5-0.3,3.1-0.5,4.6
					c-0.1,1.2-0.3,2.4-0.6,3.6c-0.1-0.1-0.1-0.1-0.2-0.2c0,0,0,0,0,0c-0.1-0.3-0.1-0.7-0.2-1c-0.2-0.9-0.4-1.8-0.7-2.7
					c-0.7-1.9-1.9-3.5-3-5.2c0,0-0.1,0-0.1,0c1,1.9,2.1,3.6,2.8,5.6c0.3,0.9,0.5,1.9,0.6,2.9c-0.5-0.6-1-1.1-1.7-1.6
					c-0.3-0.3-0.5-0.5-0.5-0.6c-2.5-2.3-5.4-3.5-8.7-4.1c-0.1,0-0.1,0.1,0,0.1c2.8,0.7,5.4,1.8,7.6,3.7c-3.2-1.4-7.3-1.7-10.2-2
					c-0.1,0-0.1,0.1,0,0.1c3.6,0.5,8.7,1,11.8,3.5c0.2,0.3,0.5,0.6,0.7,0.9c-0.1,0-0.3,0.1-0.4,0.2c-4.6-2.1-10.2-1.3-14.9,0.1
					c0,0,0,0,0,0c4.5-0.9,9.3-1.4,13.6,0.1c-3.1-0.4-6.5,0.7-9.4,1.5c-2.8,0.7-5.9,1.7-7.6,4.2c-0.4,0-0.9,0-1.3-0.1
					c0.1-0.7,0.2-1.4,0.3-2.1c0.6-0.1,1.1-0.1,1.7-0.2c0,0,0-0.1,0-0.1c-0.5,0-1.1,0-1.6,0.1c0.7-5.3,1.9-10.4,3.9-15.4
					c0.3-0.4,0.5-0.8,0.7-1.3c3,2.2,6.8,3.3,10.4,1.8c0.1,0,0.1-0.2-0.1-0.2c-3.6,1.3-7.3,0.2-10.2-2c0-0.1,0-0.1,0.1-0.2
					c0.1,0,0.2,0,0.3,0.1c1,1,3.1,1.2,4.3,1.3c2.4,0.3,4.6,0,6.9-0.8c0.1,0,0-0.2,0-0.1c-2.3,0.6-4.4,0.9-6.8,0.5
					c-1.1-0.2-2.2-0.4-3.2-0.8c0.1,0,0.1-0.1,0.1-0.2c3.6,0.4,7.5-0.2,10.1-2.9c0,0,0-0.1,0,0c-2.7,2.5-6.6,3-10.2,2.5
					c0.1-0.1,0-0.3,0-0.4c1.3-0.9,2.7-1.3,4.2-1.9c1.9-0.8,3.7-2,5.7-2.5c0,0,0,0,0,0c-2.3,0.4-4.3,1.6-6.4,2.3
					c-0.5,0.2-1,0.3-1.5,0.5c1.8-1.4,3.4-3.2,3.8-3.6c0.1-0.1,0-0.1-0.1-0.1c-1.2,1.2-2.5,2.3-3.8,3.3c-0.2,0.2-0.7,0.5-1.1,0.9
					c-0.5,0.2-1,0.5-1.4,0.8c-0.3-0.1-0.6-0.1-0.8-0.1c-0.3,0-0.6,0.1-0.9,0.1c0,0,0,0,0,0c-0.1-0.1-0.3,0-0.3,0.1
					c-0.1,0.1-0.1,0.2-0.1,0.2c-2.6-0.8-5.2-2.4-6.3-4.7c0-0.1-0.2,0-0.1,0.1c0.7,1.7,2.3,3,3.9,3.8c0.6,0.4,1.3,0.7,2,1
					c-3.7,0.7-7.9-0.5-10.3-3.3c0-0.1-0.1,0-0.1,0.1c1.1,2,3.6,3,5.7,3.5c1.5,0.3,3,0.4,4.5,0.2c-0.5,0.3-1,0.6-1.5,0.9
					c-1,0.5-2.2,0.5-3.3,0.5c-2.2,0-6.3-0.3-7-3c0,0-0.1,0-0.1,0c0.6,2.9,4.8,3.3,7.1,3.3c1.4,0,2.7-0.1,3.9-0.7
					c0.5-0.3,1-0.6,1.5-0.9c-0.3,0.5-0.7,1-1.1,1.5c-0.7,0.7-1.6,1.3-2.5,1.6c-1.9,0.8-4,0.8-6,0c-0.1,0-0.1,0.1-0.1,0.1
					c2,0.8,4.3,0.9,6.4,0.1c1.5-0.6,3.2-1.8,4-3.3c0.1,0.1,0.2,0.2,0.4,0.3c-0.9,2.8-3.6,4-6.4,4.5c-0.1,0,0,0.1,0,0.1
					c2.1-0.3,4.1-1,5.5-2.4c-2,4.7-3.2,9.7-3.9,14.8c-2.3,0.3-4.6,1.1-6.4,2.5c0.9-1.5,1.9-3,3-4.4c1.1-1.4,2.4-3.1,4.1-3.7
					c0,0,0,0,0,0c-1.8,0.5-3.1,2.2-4.2,3.6c-1.1,1.3-2.2,2.6-3.1,4.1c0,0-0.1-0.1-0.1-0.1c1.1-3.4,1.9-6.8,4.2-9.7c0,0,0,0,0,0
					c-2.4,2.7-3.4,6.1-4.5,9.5c-0.1,0-0.2-0.1-0.3-0.1c0,0,0,0,0,0c0-0.1-0.1-0.2-0.2-0.1c0,0,0,0.1,0,0.1c-0.1,0-0.1,0-0.2,0
					c0.3-3.5,0.9-7.1,3.2-9.9c0,0,0-0.1,0,0c-2.6,2.4-3.4,6.4-3.7,10c-0.1,0-0.2,0.1-0.3,0.2c-0.1-0.3-0.2-0.7-0.2-1
					c-0.1-1-0.2-1.9-0.1-2.9c0.1-1.9,0.5-4.1,1.9-5.6c0,0,0-0.1-0.1-0.1c-1.5,1.4-2.1,3.7-2.2,5.7c-0.1,1.1-0.1,2.3,0.2,3.4
					c0,0.1,0,0.2,0.1,0.4c-0.6-0.9-1.3-1.7-1.9-2.4c-1.4-1.4-3-2.5-4.8-3.3c-0.1,0-0.1,0.1,0,0.1c1.7,0.8,3.3,2,4.6,3.4
					c0.2,0.3,0.5,0.6,0.7,0.8c-0.7-0.5-1.6-0.8-2.4-1c-2.2-0.6-4.4-0.8-6.7-0.7c-0.1,0-0.1,0.1,0,0.1c3.4,0.3,8.4,0.3,10.2,3.7
					c-0.1,0-0.2,0-0.4,0.1c-0.9,0.1-1.9,0.2-2.8,0.3c-1.2,0.1-2.5,0.3-3.6,0.8c-1.9,0.9-4,2.5-5,4.4c-1-4.6-2-9.2-3.5-13.6
					c0.1-0.4,0.2-0.8,0.3-1.2c0.4,0.6,0.8,1.2,1.3,1.8c0.9,1.1,2.1,2.2,3.6,2.4c0.1,0,0.1-0.1,0-0.1c-1.4-0.3-2.7-1.5-3.5-2.7
					c-0.4-0.5-0.9-1.2-1.3-1.9c0-0.2,0-0.4,0-0.6c3.8,2.6,8.2,1.2,11.9-0.9c0.1,0,0-0.2-0.1-0.1c-3.6,1.9-8.2,3.1-11.8,0.5
					c0,0-0.1,0-0.1,0c0.1,0,0.2-0.1,0.2-0.1c0,0,0-0.1,0-0.1c0,0.1,0.1,0.2,0.2,0.2c0,0,0.1,0.1,0.2,0.1c0,0,0,0,0.1,0
					c0,0,0,0,0.1,0c0.1,0,0.2,0,0.3,0.1c0,0,0,0,0.1,0c2,0.4,4.2,0.5,6.2-0.3c2.1-0.8,3.8-2.1,5.4-3.6c0,0,0-0.1,0-0.1
					c-1.7,1.3-3.5,2.6-5.5,3.3c-1,0.3-2,0.5-3.1,0.5c-0.1,0-0.5,0-0.9,0c3.6-0.5,6.9-3.3,8.5-6.4c0,0,0-0.1-0.1,0
					c-1.9,3.3-5.7,6.1-9.6,6c0,0,0,0,0,0c0.5-0.1,1.1-0.3,1.6-0.4c0.9-0.2,1.7-0.4,2.5-0.9c1.7-1,2.9-2.5,4-4.1c0,0,0-0.1-0.1,0
					c-1.2,1.7-2.7,3.3-4.6,4.1c-1,0.4-2.2,0.5-3.3,0.7c0.2-0.3,0.3-0.6,0.4-0.7c1.1-1.9,2.7-3.5,4.2-5.1c0,0,0-0.1-0.1-0.1
					c-1.4,1.4-2.9,2.8-4.1,4.4c-0.3,0.4-0.6,0.9-0.8,1.3c0,0,0,0,0,0c-0.1,0-0.2,0-0.2,0c0-0.2-0.2-0.4-0.5-0.4c0,0,0,0-0.1,0
					c1.5-3,3.9-5.4,6.9-7.2c0.1,0,0-0.1-0.1-0.1c-3.2,1.6-5.9,4.1-7.5,7.3c-0.2-0.1-0.5-0.2-0.9-0.2c0.2-0.5,0.3-1,0.6-1.5
					c0.7-1.5,2.1-3.1,3.6-3.9c0,0,0-0.1,0-0.1c-2.3,1.1-3.7,3.2-4.6,5.5c-0.5,0-1,0-1.2,0c-1.4-0.1-3.1-0.2-4.5,0.2
					c-0.1,0,0,0.1,0,0.1c1.2-0.2,2.5-0.1,3.7,0c0.6,0,1.2,0.1,1.8,0.2c0,0,0,0,0,0.1c-0.1,0-0.2,0.1-0.3,0.1c0,0,0,0,0,0
					c-1.2,0-2.4,0.3-3.6,0.6c-2.5,0.6-5.1,1.3-7.2,2.9c-0.1,0,0,0.1,0.1,0.1c2.4-1.2,4.7-2,7.3-2.6c0.7-0.2,1.6-0.4,2.4-0.5
					c0,0,0,0,0,0c-0.6,0.3-1.2,0.7-1.7,1.1c-0.4,0.2-0.8,0.3-1.2,0.5c-2.5,0.9-5,1.6-6.9,3.6c-0.1,0.1,0.1,0.3,0.2,0.2
					c1.7-1.8,4.1-2.4,6.4-3.1c-1.6,1.2-3.7,2.5-4.7,4.4c-0.1-0.6-0.2-1.1-0.3-1.7c0-0.1-0.1,0-0.1,0c0.1,0.6,0.2,1.3,0.2,2
					c0,0.1-0.1,0.2-0.1,0.4c0,0.1,0.1,0.1,0.1,0c0,0,0-0.1,0.1-0.1c0.2,4.1-0.6,8.8-4.1,10.9c0,0-0.1,0-0.1,0c0-0.1-0.1-0.2-0.1-0.3
					c0.1-0.3,0.1-0.6,0.1-1c1.5-2.1,2.5-4.6,2.9-7.3c0-0.1-0.1-0.1-0.1,0c-0.5,2.5-1.5,4.8-2.9,6.8c-0.1-0.1-0.3-0.1-0.4-0.1
					c0.1-0.7,0.2-1.4,0.2-1.9c0.7-2,1.6-3.9,2.8-5.7c0,0,0-0.1,0,0c-1.1,1.6-2,3.3-2.7,5.1c0-1.2,0-2.5-0.1-3.7
					c0-0.9-0.1-1.9,0.2-2.8c0-0.1-0.1-0.1-0.1,0c-0.7,1.7-0.4,3.7-0.4,5.5c0,0.8,0,1.7-0.1,2.5c-0.3,0.8-0.5,1.5-0.7,2.3
					c-0.2,0.3-0.5,0.5-0.7,0.8c0,0-0.1,0-0.1,0c-0.6-2.6-0.4-5.5,0.1-8.1c0-0.1-0.1-0.1-0.1,0c-0.7,2.7-1,5.6-0.5,8.4
					c-1.4,1.1-2.2,2.8-2.8,4.5c-0.9,1.1-1.9,2.4-3.2,3C137.9,389.3,137.9,389.4,137.9,389.4z M218.9,354.6c0.1-0.1,0.1-0.3,0.1-0.4
					c0,0,0,0,0,0c0,0,0.1,0,0.1,0.1c0,0,0,0,0,0.1C219.1,354.4,219,354.5,218.9,354.6z M241.6,363.8c0.1-0.1,0.2-0.1,0.4-0.1
					c0,0,0,0,0,0c-0.3,0.8-0.6,1.5-1,2.3C241.1,365.2,241.2,364.4,241.6,363.8z M274.6,420.3c0.6,0.7,0.4,2,0.3,2.9
					c-0.1,0.4-0.1,0.8-0.2,1.2C274.5,423,274.5,421.6,274.6,420.3z M238.3,448c0.5,0,0.9-0.1,1.4-0.2c0.1,0,0.1,0,0.2,0
					c2.5,0.4,5.1,0.7,7.7,0.9c-0.8,0.5-1.8,0.8-2.8,0.8C242.4,449.5,240.3,448.9,238.3,448z M236.4,447.2c0.7,0.1,1.5,0.3,2.2,0.4
					c-0.5,0-1,0-1.5-0.1C236.9,447.4,236.6,447.3,236.4,447.2z M215.8,474.7c-0.3,0.3-0.7,0.5-1.1,0.8c-0.4,0.2-0.8,0.5-1.2,0.7
					c0.3-0.4,0.7-0.8,1.1-1.1C215.1,475,215.5,474.9,215.8,474.7z M213.3,471.1c0.1,0,0.2,0.1,0.3,0.1c0.5,0.2,0.9,0.5,1.4,0.8
					C214.4,471.8,213.9,471.5,213.3,471.1z M206.1,462c0.6,1.2,1.3,2.3,2.1,3.4c-0.9-0.9-1.5-2-2-3.2
					C206.1,462.2,206.1,462.1,206.1,462z M142.1,415c1.1,0.8,2,1.7,2.8,2.8c-0.8-0.5-1.5-1-2.2-1.5
					C142.5,415.9,142.3,415.4,142.1,415z M147.5,419.2c-0.6-0.3-1.2-0.6-1.7-0.9c-1-1.7-2.4-3.2-4.1-4.2c0.1,0,0.2-0.1,0.2-0.1
					c0.5,0.3,1.1,0.6,1.7,1c1.1,0.7,2.1,1.5,2.9,2.6C146.8,418.1,147.2,418.6,147.5,419.2z M177.3,378.9c-0.1,2.5,0.3,5,0.8,7.3
					c0.7,3.8,1.7,7.6,2.7,11.2c0.5,1.9,1.3,3.7,2.1,5.5c-2.5-3.7-5.3-7.9-4-12.3c0-0.1-0.1-0.1-0.1,0c-0.8,2.6-0.2,5.3,0.9,7.7
					c0.7,1.5,1.5,3,2.4,4.5c-0.2-0.2-0.4-0.4-0.6-0.6c-1.7-1.5-3.3-3-4.3-5.1c0-0.1-0.2,0-0.1,0c0.9,2.3,2.6,4,4.4,5.6
					c0.6,0.5,1.1,1.1,1.7,1.6c-0.1-0.1-0.2-0.1-0.4-0.2c-1.4-0.8-2.9-1.4-4.2-2.4c-2.9-2.2-5.9-4.8-6.8-8.5c0-0.1-0.1,0-0.1,0
					c0.6,3.5,3.2,6.2,5.9,8.3c1.3,1,2.6,1.7,4.1,2.5c0.8,0.4,1.6,0.9,2.4,1.4c-0.1,0-0.2,0.1-0.2,0.1c-0.1,0-0.2,0.1-0.3,0.1
					c-0.2-0.1-0.5-0.2-0.7-0.3c-0.8-0.3-1.7-0.5-2.5-0.9c-2.1-0.9-4-2.1-5.8-3.6c-0.1-0.1-0.2,0.1-0.1,0.1c2,1.7,4.2,3.2,6.7,4.2
					c0.6,0.2,1.2,0.5,1.8,0.7c-0.3,0.1-0.6,0.3-0.9,0.5c0,0-0.1,0-0.1,0.1c-2.8,0.2-5.6,0.2-7.8,1.7c-5.1-8.3-7.1-18-9.2-27.6
					c1.6-1.8,3.3-3.7,5.7-4.5c1.2-0.4,2.5-0.5,3.8-0.6c0.1,0,0.2,0,0.2,0c-0.9,0.5-1.8,1.1-2.8,1.7c-2.6,1.5-4.9,3.7-6.2,6.4
					c0,0,0,0,0,0c1.5-2.5,3.6-4.6,6.1-5.9c1-0.5,1.9-1.2,2.9-1.7c0.4-0.2,0.8-0.4,1.3-0.6c0.1,0,0.1,0,0.2,0
					c-1.7,0.7-3.1,2.7-4.2,4.1c-2.3,3-3.7,6.6-3.7,10.4c0,0.1,0.1,0.1,0.1,0c0.5-3.6,1.4-7.1,3.8-10c1.1-1.3,2.5-3.4,4.3-4
					c-0.3,0.5-0.5,1-0.6,1.1c-0.8,1.4-1.6,2.8-2,4.3c-0.5,2.2-0.7,4.4-0.7,6.7c0.1,1.9,0.2,4,1.2,5.7c0,0.1,0.1,0,0.1-0.1
					c-0.8-1.7-1-3.8-1-5.7c0-2,0.1-4.1,0.6-6c0.4-1.5,1-2.7,1.7-4c0.3-0.6,0.7-1.2,1-1.7c0.1,0.2,0.3,0.3,0.4,0.3
					c-0.4,1.5-0.8,3-1,4.6c-0.2,1.6-0.1,3.2-0.1,4.9c0.1,3,0.1,6.3,1.6,9c0,0.1,0.1,0,0.1,0c-1.3-2.9-1.3-6.2-1.3-9.3
					c0-1.7-0.1-3.4,0.2-5.1C177,380.1,177.1,379.5,177.3,378.9z M176.3,411.6c-0.1-0.2-0.3-0.3-0.4-0.5c-0.6-0.8-1.2-1.6-1.7-2.5
					c2-1.3,4.3-1.3,6.7-1.5c-0.9,0.6-1.7,1.4-2.4,2.3c-0.6,0.8-1,1.6-1.5,2.5c-0.1-0.2-0.2-0.3-0.3-0.5
					C176.6,411.2,176.2,411.3,176.3,411.6z M172.8,416.4c0.7,0.6,1.5,1.2,2.2,1.7c-0.3,0-0.6,0.1-1,0.2c-1,0.4-1.8,1.1-2.4,2
					c0.1-0.5,0.2-0.9,0.3-1.4C172.2,418.1,172.5,417.3,172.8,416.4z M172.7,415.9c-0.7-0.6-1.4-1.2-2.1-1.7c0.4,0.4,0.9,0.7,1.3,1
					C172.2,415.4,172.4,415.7,172.7,415.9C172.7,415.9,172.7,415.9,172.7,415.9z M169.9,428.4c0,0.4,0.1,0.8,0.1,1.1
					c0.2,1.4,0.6,2.7,1.2,4c0.2,0.4,0.4,0.8,0.6,1.2c-0.3,0.2-0.5,0.4-0.7,0.6c-0.4,0.3-0.7,0.7-1,1c0,0,0,0,0,0
					c-0.6-1.5-0.6-3.3-0.7-4.9c0-1.1-0.1-2.1,0-3.2C169.6,428.4,169.8,428.4,169.9,428.4z M169.6,427.4c0-0.1,0-0.2,0.1-0.4
					c0.1,0.1,0.1,0.1,0.2,0.2c0,0.1,0,0.2,0,0.2C169.8,427.4,169.7,427.4,169.6,427.4z M185.9,417.8c-0.6-0.3-1.1-0.4-1.6-0.6
					c-0.1,0-0.2-0.1-0.3-0.1c0-0.7,0-1.5,0.1-2.2c0.1-1.2,0.3-2.5,0.6-3.8c0.2,1.5,0.4,3,0.9,4.5
					C185.6,416.4,185.7,417.1,185.9,417.8z M186.8,409.2c0.1-0.7,0.1-1.3,0.1-2c0,0,0,0,0,0c0,0,0,0,0,0c-0.1,0.8-0.1,1.6,0,2.4
					C186.9,409.5,186.9,409.3,186.8,409.2z M183.6,414.9c-0.1,0.7-0.1,1.5-0.1,2.2c-0.4-0.1-0.8-0.3-1.2-0.5c0.7-2.2,1.2-4.4,2-6.5
					c0-0.1,0.1-0.2,0.1-0.4c0,0,0,0,0,0C184.1,411.4,183.8,413.1,183.6,414.9z M171.2,425.7C171.2,425.7,171.2,425.7,171.2,425.7
					c0,0,0.1,0,0.1,0c0.9,0.9,1.8,1.6,2.8,2.3c-0.3,0-0.6,0-0.9-0.1C172.6,427.2,171.9,426.5,171.2,425.7z M172.5,427.9
					c-0.1,0-0.3,0-0.4,0c-0.3-0.3-0.5-0.5-0.7-0.8c0-0.1,0-0.2,0-0.3C171.8,427.1,172.2,427.5,172.5,427.9z M174.6,430
					c-0.1-0.1-0.2-0.2-0.4-0.4c0.1,0,0.2,0.1,0.3,0.1c0.7,0.6,1.4,1.1,2.1,1.6c-0.1,0.1-0.2,0.1-0.3,0.2
					C175.7,431,175.1,430.5,174.6,430z M175.9,431.8c-0.3,0.2-0.6,0.4-0.9,0.6c0-0.4,0-0.9,0-1.3c0,0,0,0,0,0
					C175.3,431.3,175.6,431.5,175.9,431.8z M173.2,426.7c0.3,0.2,0.7,0.3,1,0.5c0.6,0.3,1.2,0.6,1.8,0.9c-0.3,0-0.6,0-0.9,0
					C174.4,427.6,173.8,427.2,173.2,426.7z M175.9,467.7c0,0-0.1,0-0.1,0c-0.7-0.3-1.5-0.5-2.3-0.8c0.2-0.4,0.3-0.9,0.4-1.3
					c0.6,0.2,1.1,0.5,1.7,0.7C175.7,466.8,175.8,467.3,175.9,467.7z M175.9,466.5c0.5,0.3,1,0.6,1.5,0.9c0,0,0,0,0,0
					c0,0.3-0.1,0.7-0.1,1c-0.4-0.2-0.8-0.4-1.3-0.6C176,467.4,176,466.9,175.9,466.5z M174.1,465.2c0.9-2.7,1.9-5.3,2.9-8
					c-0.1,0.3-0.1,0.6-0.2,0.9c-0.4,2.4-1.3,5.1-1.2,7.7C175.1,465.6,174.6,465.4,174.1,465.2z M178.4,418.6c0.1-0.5,0.2-1,0.3-1.5
					c0.5,0.6,1,1.1,1.6,1.5c0,0.2,0,0.3,0,0.5C179.7,419,179.1,418.8,178.4,418.6C178.5,418.6,178.5,418.6,178.4,418.6z
					 M180.4,420.3c0,0.5,0.1,0.9,0.1,1.4c-0.8-0.5-1.6-1.1-2.3-1.6c0-0.3,0.1-0.6,0.1-0.9C179,419.5,179.8,419.9,180.4,420.3z
					 M180.4,419.6c0,0.2,0,0.3,0,0.5c-0.4-0.3-0.9-0.6-1.3-0.8C179.5,419.4,179.9,419.5,180.4,419.6z M180.7,418.8
					c0.3,0.2,0.6,0.3,0.9,0.5c-0.3,0-0.6-0.1-0.9-0.1C180.6,419,180.7,418.9,180.7,418.8z M183.2,420.2c0.2,0.1,0.5,0.3,0.7,0.4
					c0,0.1,0,0.1,0,0.2c-0.4,0.8-0.8,1.5-1.1,2.4c0,0-0.1,0-0.1,0c-0.6-0.4-1.1-0.7-1.6-1.1c-0.1-0.1-0.2-0.1-0.3-0.2
					c0-0.5-0.1-0.9-0.1-1.4c0.3,0.2,0.6,0.4,0.8,0.6c0.1,0,0.1,0,0.1-0.1c-0.3-0.2-0.6-0.5-0.9-0.7c0-0.2,0-0.4,0-0.6
					C181.5,419.8,182.3,420,183.2,420.2z M181.5,422.8c-0.2-0.1-0.4-0.1-0.6-0.2c0-0.1,0-0.2,0-0.3
					C181,422.5,181.3,422.7,181.5,422.8z M180.8,423c-0.4,0-0.7,0-1.1,0c-3,0.1-5.8,0.7-8.5,1.9c-0.1-0.1-0.1-0.1-0.2-0.2
					c0-0.1,0-0.2,0-0.3l0,0c0.5-0.5,1.1-0.8,1.8-1c1.1-0.3,2.3-0.5,3.4-0.6C177.8,422.7,179.3,422.7,180.8,423
					C180.8,423,180.8,423,180.8,423C180.8,423,180.8,423,180.8,423z M171.2,423.7c0.1-0.6,0.1-1.2,0.2-1.8c0.1-0.1,0.2-0.3,0.3-0.4
					c0.7-1.2,1.6-2.4,3-2.7c0.3-0.1,0.6-0.1,0.9-0.1c0.8,0.6,1.6,1.2,2.4,1.8c0,0.6,0,1.2,0.1,1.7c0,0.1,0.1,0.1,0.1,0
					c0-0.5,0-1.1,0-1.6c0.6,0.4,1.2,0.9,1.9,1.3c0.2,0.1,0.4,0.3,0.6,0.4c0,0.1,0,0.2,0.1,0.4c-1.9-0.4-4.1-0.2-6,0
					C173.6,422.8,172.1,422.9,171.2,423.7z M176.2,418.6c0.6,0.1,1.3,0.2,1.9,0.5c0,0.3-0.1,0.6-0.1,0.8
					C177.4,419.5,176.8,419.1,176.2,418.6z M177.3,412.2c0.5-1,1.1-1.9,1.7-2.7c0.9-1.1,1.9-1.9,3.1-2.5c0.4,0,0.8-0.1,1.1-0.1
					c-0.3,0.4-0.6,0.9-0.9,1.3c-0.9,1.3-1.6,2.8-2.3,4.3c-0.3,0.6-0.5,1.2-0.7,1.9C178.5,413.8,177.9,413,177.3,412.2z M183.7,407.1
					c-0.1,0.3-0.3,0.5-0.4,0.8c-0.7,1.5-1.2,3.1-1.8,4.7c-0.4,1-0.6,2-0.8,3c-0.4-0.3-0.8-0.6-1.2-0.9c0.4-1.1,0.9-2.2,1.5-3.3
					C181.8,409.9,182.6,408.4,183.7,407.1z M184.5,406.9C184.5,406.9,184.5,406.9,184.5,406.9c0.1,0.4,0,0.7,0,1.1
					c-0.1,0.5-0.2,1-0.3,1.3c-0.6,2.4-1.2,4.8-1.9,7.2c-0.4-0.2-0.8-0.4-1.2-0.7c0.2-1,0.5-2,0.9-3c0.5-1.4,1-2.7,1.6-4.1
					C183.8,408.1,184.1,407.5,184.5,406.9z M184.1,404.6C184.1,404.5,184,404.5,184.1,404.6c-1-2.3-2-4.6-2.8-6.9
					c-0.1-0.2-0.1-0.5-0.2-0.7c0.9,2.6,2.3,5,3.7,7.4c0,0.2-0.1,0.5-0.1,0.7C184.5,404.9,184.3,404.7,184.1,404.6z M178.6,453.6
					c0.4-1.1,0.9-2.3,1.7-3.2c0,0,0,0,0.1,0.1c-0.5,1.3-0.9,2.7-1.2,4.1c-0.2,1.4-0.2,2.8-0.3,4.2c0,0.1,0,0.2,0,0.3
					c-0.3,1.8-0.6,3.5-0.9,5.3c-0.5-0.2-1-0.4-1.5-0.6c-0.1,0-0.1,0.1,0,0.1c0.5,0.2,1,0.4,1.5,0.7c-0.1,0.8-0.2,1.6-0.3,2.4
					c0,0-0.1,0-0.1-0.1c-0.5-0.3-1-0.6-1.6-0.8c-0.1-2.7,0.9-5.4,1.3-8C177.5,456.5,178,455,178.6,453.6z M179.9,453.9
					c-0.2,0.7-0.3,1.3-0.5,2c0.1-0.6,0.1-1.1,0.2-1.7c0.2-1.1,0.6-2.2,1-3.3c0,0.1,0.1,0.1,0.1,0.2c0,0,0,0,0,0.1
					C180.4,452,180.1,453,179.9,453.9z M180.7,447.3c0.5-1.1,0.9-2.2,1.5-3.3c-0.2,1.2-0.4,2.5-0.4,3.7c-0.2,0.1-0.4,0.2-0.6,0.3
					c0-0.2-0.2-0.3-0.4-0.2c0,0,0-0.1,0-0.1C180.7,447.6,180.7,447.5,180.7,447.3z M181.8,448.5
					C181.8,448.5,181.8,448.6,181.8,448.5c0,0.2-0.1,0.3-0.1,0.4c0,0,0,0,0,0c-0.1,0-0.1,0-0.2,0c-0.1,0-0.2-0.1-0.2-0.1
					C181.4,448.7,181.6,448.6,181.8,448.5z M177.2,469.7c-1.5-0.3-3-0.4-4.6-0.3c0.2-0.7,0.5-1.4,0.7-2.1c0.8,0.2,1.5,0.5,2.2,0.8
					c0.6,0.2,1.2,0.5,1.7,0.8C177.3,469.1,177.3,469.4,177.2,469.7z M176.8,428.1c-0.7-0.3-1.4-0.7-2.1-1.1c-0.9-0.5-2.1-1-3-1.6
					c-0.1-0.1-0.2-0.2-0.2-0.3c2.8-1.1,5.8-1.7,8.9-1.7c0.7,0,1.5,0,2.2,0.1l0,0c0,0,0.1,0,0.1,0.1c-0.4,1.2-0.6,2.5-0.5,3.8
					C180.3,427.8,178.6,428,176.8,428.1z M178.2,430.3c-0.5,0.3-0.9,0.5-1.4,0.8c-0.6-0.4-1.1-0.8-1.6-1.2
					C176.2,430.1,177.2,430.2,178.2,430.3z M175.8,439C175.8,439,175.7,439,175.8,439c-0.4-0.3-0.7-0.6-1.1-0.9
					c0.2-0.1,0.5-0.3,0.7-0.4C175.5,438.1,175.6,438.6,175.8,439z M175.7,439C175.7,439.1,175.6,439.1,175.7,439
					c-0.9,0.7-1.8,1.4-2.6,2.1c-0.2-0.6-0.4-1.2-0.5-1.8c0.6-0.4,1.3-0.8,2-1.2C174.9,438.5,175.3,438.8,175.7,439z M172.1,434.6
					c-0.3-0.5-0.5-1.1-0.7-1.7c-0.5-1.2-0.8-2.5-0.9-3.9c0-0.1,0-0.3,0-0.4c0.4,0.1,0.9,0.2,1.3,0.3c0.4,0.1,0.8,0.3,1.2,0.4
					c0.5,0.4,0.8,0.7,1,0.8c0.3,0.3,0.7,0.6,1,0.9c0,0,0,0,0,0c-0.1,0.5-0.1,1-0.1,1.5C173.8,433.2,172.9,433.9,172.1,434.6z
					 M172.9,416.1C172.9,416.1,172.9,416,172.9,416.1c0.9,0.5,1.7,1.1,2.7,1.6c0,0.1,0,0.2,0,0.3c0,0,0.1,0,0.1,0c0-0.1,0-0.2,0-0.3
					c0.3,0.2,0.7,0.4,1,0.5c-0.4-0.1-0.7-0.1-1.1-0.1C174.7,417.5,173.8,416.8,172.9,416.1z M176.7,413.4c0.4,1.2,1,2.4,1.8,3.4
					c-0.1,0.6-0.3,1.1-0.4,1.7c-0.9-0.3-1.7-0.8-2.5-1.2C175.9,416,176.2,414.6,176.7,413.4z M180.2,393.1c0.1,0.9,0.2,1.8,0.5,2.6
					c-0.4-1.4-0.7-2.7-1.1-4.1C179.8,392.1,180,392.6,180.2,393.1C180.3,393,180.2,393,180.2,393.1z M178,380.2
					c0.2,1.7,0.5,3.5,0.6,5.2c0.1,1.1,0.2,2.2,0.3,3.3c-0.1-0.5-0.2-1-0.3-1.5c-0.7-3.3-1.4-7.1-0.8-10.5c0,0,0,0,0,0c0,0,0,0,0.1,0
					c0,0,0,0,0.1,0c0,0.3,0,0.5,0,0.7C177.9,378.4,177.9,379.3,178,380.2z M183.7,394.4c0.4-4-0.4-8.1-1.6-11.9
					c-0.5-1.6-1.1-3.2-1.9-4.7c-0.2-0.3-0.4-0.8-0.7-1.3c0.7,0.6,1.3,1.2,1.9,2.1c0.7,1.2,1.3,2.4,1.7,3.7c0.8,2.4,1.2,4.9,1.7,7.4
					c-0.1,4.5-0.3,9.1,0,13.6c-2-3.2-4-6.3-4.5-10.2c0.2,0.3,0.4,0.7,0.7,1c0,0.1,0.1,0,0.1-0.1c-1.9-2.5-1.9-6.1-2.1-9.1
					c-0.1-1.6-0.4-3.1-0.6-4.7c-0.1-0.9-0.1-1.9-0.1-2.8c0-0.2,0-0.4,0.1-0.7c0.1,0,0.2,0,0.3,0c0.1,0,0.1-0.1,0.1-0.1
					c1.4,2,2.2,4.5,3,6.7C183.1,386.9,183.8,390.6,183.7,394.4C183.7,394.4,183.7,394.4,183.7,394.4z M180.1,375.8
					c0.4,0.2,0.8,0.4,1.2,0.7c1.1,0.8,2.1,1.9,2.8,3c0.4,0.6,0.7,1.2,1,1.8c-0.1,2.4-0.2,4.8-0.3,7.2c0,0.1,0,0.3,0,0.4
					c-0.4-2.4-0.7-4.9-1.5-7.3c-0.5-1.3-1-2.6-1.9-3.8c-0.4-0.6-1-1.3-1.6-1.9C179.9,375.9,180,375.9,180.1,375.8z M185.7,374.5
					c-0.4,0-0.9,0-1.3,0c-0.5,0-2.4,0-3.7,0.3c-0.1,0-0.2,0-0.4,0.1c1.7-1.2,3.6-2,5.6-2.4C185.9,373.1,185.8,373.8,185.7,374.5z
					 M185.6,375.6c-0.7-0.3-1.5-0.5-2.3-0.7c0.7,0,1.4,0,2,0c0.1,0,0.2,0,0.4,0C185.6,375.1,185.6,375.3,185.6,375.6z M185.2,380.7
					c-0.3-0.7-0.7-1.3-1.2-1.9c-0.8-1.1-1.7-2.1-2.8-2.8c-0.2-0.1-0.4-0.3-0.7-0.5c0.1-0.1,0.3-0.1,0.4-0.2c1.5-0.1,3.1,0.2,4.5,0.6
					C185.4,377.6,185.3,379.2,185.2,380.7z M205.5,369.7c-0.1,0-0.3,0-0.4,0c-5.9-0.6-11.3,3.7-13.5,9.1c-1.4-1.2-3.2-2.1-4.8-2.8
					c-0.2-0.1-0.4-0.2-0.6-0.2c0-0.3,0.1-0.6,0.1-0.9c0.4,0,0.8,0,1.2,0c-0.1,0.1-0.1,0.2-0.2,0.3c0,0.1,0.1,0.1,0.1,0
					c0.1-0.1,0.2-0.2,0.2-0.4c1.4,0,2.8,0.1,4.1,0.5c0.1,0,0.1-0.1,0-0.1c-1.2-0.4-2.5-0.6-3.9-0.7c1.8-2.3,5-3.2,7.8-3.8
					c1.7-0.4,3.4-0.8,5.1-1.1c1-0.2,2.1-0.3,3.1-0.2C204.3,369.5,204.9,369.5,205.5,369.7z M206.5,371.5c-1.9,2.8-3.2,6-4.2,9.2
					c-0.1,0.5-0.3,0.9-0.4,1.4c-0.4,1.1-0.8,2.3-1.2,3.4c-0.5,1.5-1.2,2.7-1.3,4.3c0,0,0.1,0.1,0.1,0c0.2-1.5,0.9-2.8,1.4-4.1
					c-0.6,2.7-1.2,5.4-1.6,8.1c0,0.1,0,0.2-0.1,0.4c-2.2,0.7-4.1,2.3-5.8,3.7c-2.1,1.7-3.9,3.8-5.2,6.2c-0.2,0.1-0.5,0.2-0.7,0.3
					c0-0.1-0.1-0.1-0.1-0.2c0-0.1,0.1-0.2,0.1-0.3c0.6-1.6,1.2-3.2,1.9-4.8c1-2.4,1.9-4.8,3.2-7c0,0-0.1-0.1-0.1,0
					c-1.5,2.6-2.7,5.5-4,8.2c-0.1,0.2-0.7,1.5-1.3,2.9c0.1-0.9,0.1-1.9,0.3-2.8c0.2-1.7,0.6-3.4,1.1-5.1c0.8-2.9,1.7-6.7,4.5-8.2
					c0,0,0-0.1,0-0.1c-2.8,1.2-3.9,4.9-4.6,7.5c-0.5,1.8-1,3.6-1.3,5.4c-0.2,1.3-0.3,2.6-0.4,3.9c-0.2,0-0.4,0-0.7,0.2
					c-0.1,0.1-0.3,0.2-0.4,0.3c-0.1-0.4-0.1-0.8-0.2-1.2c0-0.1,0-0.3,0-0.4c0-0.1,0-0.1-0.1-0.1c-0.1-0.5-0.1-0.9-0.2-1.4
					c-0.1-2.1-0.1-4.1-0.1-6.2c0.2-2.7,0.9-5.4,2.6-7.6c0-0.1,0-0.1-0.1-0.1c-1.2,1.6-2,3.3-2.5,5.2c0-1.8,0.1-3.6,0.2-5.4
					c0.1-1.6,0.1-3.3,0.2-5c0.6,1.3,1,2.6,1.3,4c0,0,0,0,0,0c-0.3-1.5-0.7-3-1.3-4.5c0.1-1.9,0.2-3.7,0.4-5.6
					c0.2,0.1,0.5,0.2,0.7,0.3c1.6,0.6,3.3,1.4,4.7,2.5c-0.1,0.3-0.2,0.5-0.3,0.8c0,0.1,0.1,0.1,0.1,0c0.1-0.2,0.2-0.5,0.3-0.7
					c0.4,0.3,0.8,0.7,1.1,1.1c0,0.1,0.1,0,0.1-0.1c-0.3-0.5-0.7-0.9-1.1-1.3c2.1-4.7,6.5-8.1,11.6-8.5c-0.5,0.3-1.1,0.7-1.5,1.1
					c-1.3,1.2-2.3,2.7-3,4.3c-1.5,3.1-2.6,6.7-3,10.2c0,0.1,0.1,0.1,0.1,0c0.9-3.3,1.6-6.7,3.1-9.8c0.8-1.6,1.8-3.3,3.3-4.4
					c0.7-0.5,1.4-1,2.3-1.3c0.1,0,0.2-0.1,0.4-0.1c0.3,0,0.5,0,0.8,0.1c0.1,0.5,0.4,0.9,0.8,1.1
					C206.5,371.5,206.5,371.5,206.5,371.5z M188.3,406.6c-0.1,0-0.2,0-0.4,0c0-0.2,0-0.3,0.1-0.5c0-0.1,0-0.2,0-0.2
					c0-0.1,0.1-0.1,0.1-0.1c0.6-0.1,1.3-0.1,1.9,0c1.5,0.1,2.9,0.2,4.4,0.4c0.8,0.1,1.7,0.1,2.5,0.2c-0.3,1-0.6,2-0.8,3
					c-0.2-0.1-0.4-0.2-0.6-0.3c-1.5-0.7-2.9-1.3-4.5-1.7C190.1,407,189.2,406.7,188.3,406.6z M194.6,409.1c0.4,0.2,0.9,0.4,1.3,0.6
					c-0.1,0.4-0.2,0.9-0.2,1.3c-0.8-0.6-1.7-1.1-2.5-1.6c-0.3-0.2-1.5-1-2.8-1.7C191.8,408,193.2,408.5,194.6,409.1z M188,447.6
					c-0.2,0.4-0.3,0.9-0.5,1.3c-0.1,0-0.2,0.1-0.3,0.1C187.4,448.5,187.7,448.1,188,447.6z M191.2,441.4c-0.3,0.4-0.6,0.9-0.8,1.3
					c0.2-0.4,0.3-0.9,0.4-1.3c0.1-0.1,0.1-0.2,0.2-0.3C191,441.2,191.1,441.2,191.2,441.4C191.1,441.4,191.1,441.4,191.2,441.4z
					 M196.7,455.1c-0.3,0.1-0.6,0.1-0.9,0.2c-0.1,0-0.1-0.1-0.2-0.1c0.2-0.5,0.3-1,0.5-1.5c0.2,0.2,0.3,0.5,0.5,0.7
					c0.7,1,1.6,2,2.6,2.8c0,0,0,0,0,0c-0.5-0.2-0.9-0.5-1.3-0.7c-0.6-0.3-1.3-0.7-1.9-1.1C196.2,455.3,196.5,455.2,196.7,455.1
					C196.8,455.1,196.8,455,196.7,455.1z M201.8,417.7c0.6,0.4,1.1,0.7,1.7,1c-0.5,0.3-1,0.6-1.5,0.8c0,0,0-0.1,0-0.1
					C201.9,418.9,201.8,418.3,201.8,417.7z M198.3,438.3c0,0.3,0,0.7,0.1,1c-0.1-0.3-0.3-0.6-0.5-0.9
					C198.1,438.4,198.2,438.4,198.3,438.3z M193.2,456.9c0,0.1,0,0.1,0,0.2c-0.7-0.1-1.4-0.3-2-0.4c0.2-0.4,0.5-0.8,0.7-1.2
					c0.5,0.3,1,0.7,1.5,1C193.2,456.6,193.2,456.7,193.2,456.9z M191.9,455.2c0.3-0.7,0.7-1.3,1-2c0.3,0.3,0.6,0.6,0.9,0.9
					c-0.1,0.4-0.2,0.9-0.3,1.3C193,455.3,192.5,455.3,191.9,455.2L191.9,455.2z M194.3,451.4c-0.2,0-0.4,0.1-0.6,0.1
					c0.2-0.4,0.3-0.8,0.5-1.2c0.1,0.1,0.2,0.3,0.2,0.4C194.3,450.9,194.3,451.1,194.3,451.4z M194.4,449.3c0,0.3,0,0.6,0,0.9
					c-0.1-0.1-0.1-0.2-0.2-0.3C194.3,449.7,194.3,449.5,194.4,449.3z M195.8,440c0.2,0.3,0.5,0.6,0.7,0.9c0,0.3,0.1,0.7,0.1,1
					C196.4,441.2,196.1,440.6,195.8,440z M197.4,445.7c0.1,0.3,0.2,0.6,0.3,1c0.1,1.2,0.3,2.5,0.6,3.7c-0.5,0.2-1,0.4-1.4,0.5
					C197.2,449.1,197.5,447.4,197.4,445.7C197.4,445.7,197.4,445.7,197.4,445.7z M198.3,448.4c0.2,0.6,0.4,1.1,0.5,1.7
					c-0.1,0-0.1,0-0.2,0.1C198.5,449.6,198.4,449,198.3,448.4z M198.9,450.2c0.4,1.4,0.9,2.7,1.4,4.1c0.1,0.3,0.3,0.6,0.4,1
					c-0.5-0.8-0.9-1.7-1.3-2.6c-0.3-0.8-0.5-1.5-0.7-2.3C198.8,450.3,198.8,450.3,198.9,450.2z M201.5,457.2
					c-0.8-0.5-1.7-1.1-2.4-1.8c-1-1-1.9-2.1-2.6-3.3c0.1-0.3,0.2-0.6,0.2-1c0.5-0.2,1.1-0.4,1.6-0.6c0.3,1.1,0.6,2.2,1.1,3.2
					C200,454.9,200.6,456.2,201.5,457.2z M193.8,453.7c-0.3-0.3-0.6-0.5-0.8-0.8c0.2-0.4,0.3-0.7,0.5-1.1c0.2,0,0.5-0.1,0.7-0.1
					C194.1,452.4,194,453.1,193.8,453.7z M193.5,455.5c0,0.2-0.1,0.4-0.1,0.5c-0.3-0.2-0.6-0.4-1-0.6
					C192.7,455.5,193.1,455.5,193.5,455.5z M192.9,459.2c-0.9-0.2-1.8-0.6-2.6-1.1c0.2-0.3,0.4-0.7,0.6-1c0.7,0.2,1.5,0.3,2.2,0.4
					C193,458.1,192.9,458.6,192.9,459.2z M197.9,413.8c0-0.2,0-0.4,0-0.6c0,0,0,0,0,0c0,0,0-0.1,0-0.1c0.3,0.2,0.5,0.4,0.8,0.5
					c0,0.1,0,0.1,0,0.2c0,0.3-0.1,0.5-0.1,0.8C198.3,414.3,198.1,414,197.9,413.8z M198.5,414.9c-0.1,0.4-0.1,0.8-0.1,1.2
					c-0.1-0.1-0.1-0.1-0.2-0.2c-0.1-0.6-0.1-1.1-0.2-1.7C198.1,414.5,198.3,414.7,198.5,414.9z M197.9,412.6c0-0.6,0-1.2,0-1.9
					c0.4,0.2,0.8,0.4,1.2,0.6c-0.1,0.6-0.3,1.2-0.4,1.9C198.5,413,198.2,412.8,197.9,412.6z M198,410.2c0-1.3,0.1-2.6,0.2-3.9
					c0.7,0.1,1.4,0.2,2.2,0.3c-0.4,1.4-0.8,2.9-1.1,4.3C198.8,410.7,198.4,410.5,198,410.2z M198.2,406c0.1-1.1,0.2-2.2,0.3-3.2
					c1-0.1,2.1-0.1,3.1-0.1c-0.4,1.2-0.8,2.5-1.2,3.7C199.7,406.2,198.9,406.1,198.2,406z M197.7,403.2c-0.3,0.9-0.5,1.8-0.8,2.6
					c-1.9-0.2-3.7-0.4-5.6-0.6c-0.9-0.1-2-0.3-3-0.2c0.1-0.1,0.2-0.3,0.2-0.4c0.4-0.2,0.7-0.3,1.2-0.4c1.6-0.5,3.3-0.7,4.9-1
					c1.2-0.2,2.3-0.3,3.5-0.4c0,0.1,0,0.1,0,0.2C197.9,403,197.7,403,197.7,403.2z M194,402.9c-1.6,0.2-3.4,0.5-5,1
					c0.5-1,1.1-2,1.9-2.9c0.9-1.1,2-2.1,3.1-3c1.6-1.3,3.4-2.8,5.4-3.6c-0.4,2.7-0.9,5.3-1.2,8C196.7,402.6,195.3,402.7,194,402.9z
					 M207.1,378.4c-0.1,0.8-0.2,1.5-0.4,2.3c-1.2,4.3-2.1,8.6-3,12.9c-0.5,2.5-1.1,5.1-1.6,7.7c-0.1,0.4-0.3,0.8-0.4,1.2
					c-1,0-2.1,0-3.1,0c0.3-2.7,0.7-5.4,1.2-8.1c0.4-0.1,0.8-0.2,1.3-0.3c0.1,0,0-0.1,0-0.1c-0.4,0-0.8,0.1-1.2,0.2c0,0,0-0.1,0-0.1
					c0.6-3.6,1.2-7.3,2.2-10.9c0.4-1,0.7-2,1.1-3c1.1-2.9,2.4-5.8,4.1-8.4c0.1,0,0.3,0,0.4,0C207.9,373.9,207.4,376.3,207.1,378.4z
					 M209.2,369.1c0.2-0.2,0.5-0.4,0.7-0.6c0.4-0.2,0.7-0.4,1.1-0.6c-0.1,0.4-0.3,0.7-0.4,1.1C210.1,368.9,209.7,369,209.2,369.1z
					 M209.9,370.6c-0.2,0-0.3,0-0.5,0c0-0.2-0.1-0.5-0.4-0.7c-0.1,0-0.1-0.1-0.2-0.1c0-0.1,0.1-0.1,0.1-0.2c0.5-0.1,0.9-0.1,1.4-0.2
					C210.2,369.8,210.1,370.2,209.9,370.6z M209.4,371.9c-0.1-0.2-0.2-0.4-0.3-0.6c0,0,0,0,0,0c0.2,0,0.3,0.1,0.5,0.1
					C209.6,371.6,209.5,371.7,209.4,371.9z M208.2,373.4c0-0.5,0-1.1,0-1.7c0,0,0,0,0,0c0.1,0,0.2,0.1,0.3,0.1c0.1,0,0.2,0,0.2,0
					c0.1,0.2,0.2,0.4,0.4,0.6c0,0.1,0,0.1,0.1,0.2c-0.5,1.4-1,2.8-1.4,4.3C208,375.7,208.2,374.6,208.2,373.4z M208,414.7
					c-0.4,0.4-0.7,0.8-1.1,1.1c0,0-0.1,0.1-0.1,0.1c-1.4-1.7-2.3-3.8-2.7-6c0-0.1-0.2-0.1-0.2,0c0.3,2.3,1.1,4.5,2.5,6.4
					c-0.7,0.7-1.5,1.4-2.4,2c-0.8-0.4-1.5-0.8-2.3-1.2c-0.1-1.3-0.2-2.6-0.3-3.8c0-0.2,0-0.4,0-0.6c0.8,0.5,1.5,1.1,2.2,1.8
					c0.1,0.1,0.2-0.1,0.1-0.1c-0.7-0.7-1.5-1.4-2.3-2c0-1.5,0-3.1,0.1-4.6c0-0.3,0.1-0.7,0.1-1c1.1,0.2,2.1,0.4,3.1,0.7c0,0,0,0,0,0
					C205.5,410.1,206.6,412.5,208,414.7z M206.8,436.3c0.4-1.9,1.4-3.8,2.2-5.3c0-0.1,0.1-0.1,0.1-0.2c0.6,0.1,1.3,0.1,1.9,0.2
					c-0.3,0.7-0.5,1.3-0.7,2c-0.4,1.5-0.8,3-0.8,4.5C208.6,437.2,207.7,436.8,206.8,436.3z M209.5,438.1c0,0.1,0,0.2,0,0.4
					c-0.2-0.1-0.4-0.2-0.6-0.4c-0.4-0.3-0.7-0.5-1.1-0.8C208.3,437.6,208.9,437.9,209.5,438.1z M238.7,428.3
					c0.1,0.1,0.2,0.2,0.3,0.3c-0.8,0.2-1.7,0.3-2.5,0.5c-0.6,0.1-1.3,0.2-1.9,0.3c-0.3-1-0.6-2-1-2.9c0-0.1-0.1,0-0.1,0
					c0.3,1,0.6,1.9,0.8,2.9c-2,0.3-4,0.6-6,0.8c0-0.1-0.2-0.2-0.2,0c0,0,0,0,0,0c-0.6,0.1-1.2,0.1-1.8,0.2c0-0.1,0-0.1,0.1-0.2
					c0-0.1-0.1-0.2-0.2-0.1c0,0.1-0.1,0.2-0.1,0.3c-2.2,0.2-4.4,0.3-6.6,0.3c0-0.2-0.1-0.5-0.1-0.7c-0.3-1.5-0.4-3-0.4-4.5
					c0.2-0.1,0.3-0.1,0.5-0.2c0.3-0.1,0.6-0.2,0.9-0.4c0.6,0.7,1.3,1.4,2,2c2.1,1.5,5.4,2.9,7.9,1.7c0.1,0,0-0.2,0-0.1
					c-2.4,1-5.6-0.4-7.5-1.9c-0.6-0.5-1.3-1.1-1.9-1.8c0.2-0.1,0.3-0.1,0.5-0.2c1.2,0,2.4-0.1,3.7-0.3c1.8,0.7,3.7,1,5.7,0.7
					c0,0,0-0.1,0-0.1c-1.7,0.2-3.4-0.1-5-0.7c8.3-1,16-4.1,22.6-9.2c0.2-0.1,0.4-0.1,0.6-0.2c0.3-0.2,0.6-0.4,0.8-0.7
					c0,0.1,0,0.1-0.1,0.2c-0.3,1-0.8,1.8-1.3,2.7c-0.5,0.5-1.1,1-1.7,1.5c-1,0.9-2,1.8-3,2.6c-2.2,2-5.3,5-8.6,3.8
					c-0.1,0-0.1,0.1-0.1,0.1c2.9,1.6,6.4-1.3,8.4-3.1c1.2-1.1,2.4-2.1,3.6-3.1c-0.8,1-1.6,2-2.4,3.1c-1.9,2.5-4,5-7,6.4
					c-0.1,0,0,0.2,0,0.1c3.1-1.3,5.3-3.6,7.3-6.2c1.2-1.5,2.4-3,3.5-4.6c-1.6,4-4.1,7.4-7.2,10.4c-0.7,0.2-1.4,0.3-2,0.4
					c-0.1-0.1-0.2-0.3-0.4-0.4C238.7,428.2,238.6,428.3,238.7,428.3z M240.8,428.5c-0.4,0.4-0.8,0.8-1.3,1.1c0-0.3-0.1-0.6-0.2-0.8
					C239.8,428.7,240.3,428.6,240.8,428.5z M216.9,426.4c0,0.7,0.1,1.3,0.1,1.9c0.1,0.8,0.2,1.5,0.4,2.3c-0.6-0.1-1.3-0.3-1.9-0.5
					c0.2-1.2,0.5-2.3,0.9-3.5C216.6,426.5,216.8,426.5,216.9,426.4z M216.7,425.8c0.1-0.3,0.2-0.5,0.3-0.8c0,0.2,0,0.5-0.1,0.7
					C216.9,425.8,216.8,425.8,216.7,425.8z M215.8,424.7c0.3,0,0.6,0,0.8,0c-0.1,0.4-0.3,0.8-0.4,1.3c-0.5,0.1-0.9,0.1-1.4,0.2
					c0,0,0,0,0,0C215.1,425.6,215.4,425.1,215.8,424.7z M215.4,424.2c0,0-0.1,0-0.1,0c0.2-0.2,0.3-0.5,0.5-0.7c0,0,0.1,0,0.1,0.1
					C215.8,423.8,215.6,424,215.4,424.2z M214,423c0.3,0,0.5,0.1,0.8,0.1c-0.1,0.1-0.2,0.2-0.3,0.2c-0.6,0.3-1.1,0.5-1.7,0.7
					c-1.2-0.1-2.3-0.2-3.5-0.4c0.3-0.1,0.7-0.2,1-0.3c0.5-0.2,1-0.3,1.6-0.5C212.6,422.8,213.3,422.9,214,423z M211.9,422.3
					c-0.5,0-1.1,0-1.6,0c-2.2,0-4.3-0.4-6.3-0.9c0.7-0.5,1.3-1.1,1.9-1.7c1.6,0.6,3.2,1,4.7,1.6c0.8,0.3,1.7,0.6,2.5,0.9
					C212.7,422.1,212.3,422.2,211.9,422.3z M209,426c1.3-0.5,2.7-0.9,4-1.4c-0.5,0.5-1,1-1.4,1.6c-0.7,0-1.5-0.1-2.2-0.2
					C209.3,426,209.2,426,209,426z M209.1,430.1c0,0.1-0.1,0.1-0.1,0.2c-0.5-0.1-0.9-0.1-1.4-0.2c0-0.1,0-0.2,0-0.3
					c0.1,0,0.2,0,0.3,0.1C208.3,429.9,208.7,430,209.1,430.1z M209.5,430.2c0.4,0.1,0.8,0.2,1.3,0.3c-0.4,0-0.9-0.1-1.3-0.1
					C209.5,430.3,209.5,430.2,209.5,430.2z M213.3,429.4c-0.3-0.1-0.6-0.2-0.9-0.3c0.2-0.5,0.5-0.9,0.7-1.4c0.2,0,0.4-0.1,0.6-0.1
					C213.6,428.2,213.4,428.8,213.3,429.4z M212.3,426.2c0.5-0.6,1.1-1.2,1.6-1.7c0.2,0,0.3,0,0.5,0c-0.3,0.5-0.7,1.1-1,1.6
					C213,426.2,212.7,426.2,212.3,426.2z M214.7,423.9c0.1,0,0.1-0.1,0.2-0.1c-0.1,0.1-0.2,0.2-0.2,0.4c-0.1,0-0.2,0-0.3,0
					C214.5,424.1,214.6,424,214.7,423.9z M215,424.6C215.1,424.6,215.1,424.6,215,424.6c-0.3,0.5-0.6,1-0.8,1.6c-0.1,0-0.1,0-0.2,0
					C214.4,425.7,214.7,425.1,215,424.6z M215.9,426.8c-0.3,1-0.5,2.1-0.7,3.1c-0.5-0.1-0.9-0.3-1.4-0.4c0.1-0.7,0.3-1.4,0.5-2.1
					C214.8,427.2,215.4,427.1,215.9,426.8z M216.1,424.3c0-0.1,0.1-0.1,0.1-0.2c0.1-0.1,0.1-0.1,0.2-0.2c0.1,0.1,0.2,0.1,0.4,0.2
					c0,0.1,0,0.1-0.1,0.2C216.5,424.3,216.3,424.3,216.1,424.3z M215.7,440.2c-0.7-0.3-1.3-0.6-2-0.8c-0.8-2.6-0.6-5.4-0.1-8.1
					c0.2,0,0.4,0,0.6,0c0.3,0.1,0.5,0.1,0.8,0.1C214.5,434.4,214.6,437.4,215.7,440.2z M217.7,424.1c0.1,0,0.2-0.1,0.4-0.2
					c0.1-0.1,0.2-0.2,0.2-0.2c0,0.2,0,0.4,0,0.7c-0.2,0-0.4,0-0.6,0C217.7,424.3,217.7,424.2,217.7,424.1z M218.3,424.7
					c0,0.2,0,0.4,0,0.6c-0.2,0.1-0.4,0.2-0.6,0.2c0-0.3,0-0.5,0.1-0.8C217.9,424.7,218.1,424.7,218.3,424.7z M218.3,425.8
					c0,1.7,0.2,3.4,0.6,5c-0.3,0-0.6-0.1-0.9-0.1c-0.2-0.8-0.3-1.6-0.4-2.4c-0.1-0.7,0-1.5,0-2.2c0.1,0,0.1-0.1,0.2-0.1
					C217.9,426,218.1,425.9,218.3,425.8z M219,431.5c0.3,1.3,0.8,2.6,1.6,3.7c0,1,0.2,1.9,0.5,2.9c-0.9-1.6-1.7-3.2-2.4-4.9
					c-0.2-0.5-0.4-1-0.5-1.6C218.5,431.6,218.8,431.5,219,431.5z M219.8,424.7c-0.3,0.1-0.6,0.2-0.9,0.4c0-0.1,0-0.2,0-0.4
					C219.2,424.7,219.5,424.7,219.8,424.7z M218.9,424.3c0-0.4,0.1-0.7,0.1-1.1c0.2,0.3,0.3,0.6,0.5,0.8c0.1,0.1,0.1,0.2,0.2,0.3
					C219.4,424.3,219.1,424.3,218.9,424.3z M219.1,421.6c0.1-0.1,0.2-0.2,0.3-0.3c0.7,0.5,1.4,1,2.1,1.4c0.4,0.3,0.8,0.5,1.3,0.7
					c-0.7,0.3-1.3,0.6-2,0.8c-0.2,0-0.3,0-0.5,0C219.6,423.5,219.2,422.6,219.1,421.6z M223.3,423.8c0.3,0.1,0.6,0.3,0.8,0.4
					c-0.7,0.1-1.3,0.1-2,0.1C222.5,424.1,222.9,423.9,223.3,423.8z M223.7,423.6c5.8-2.7,11.2-6,16.4-9.7c0.1,0,0.2,0.1,0.2,0.1
					c1.7,0.8,3.7,1.2,5.6,1.4c0.7,0,1.4,0,2-0.1c-6.8,5-14.6,8.1-23,8.9c0,0,0,0-0.1,0c-0.3-0.1-0.5-0.2-0.8-0.4
					C223.9,423.7,223.8,423.6,223.7,423.6z M232.5,443.6c-0.1,0-0.2,0-0.3,0.1c0,0.1,0,0.1-0.1,0.2c-0.1-0.1-0.3,0-0.3,0.2
					c0,0.1,0,0.2,0,0.2c-2.8-3.9-4.6-8.9-3.7-13.6c2.1-0.2,4.1-0.5,6.2-0.9C235.3,434.5,234.7,439.4,232.5,443.6z M231.7,445.9
					c-0.3-0.1-0.6-0.1-0.9-0.2c0,0,0,0,0,0c0.1,0,0.1,0,0.2,0c0.1,0,0.2,0,0.3-0.1c0,0,0.1,0,0.1,0c0.1,0,0.1,0.1,0.2,0.1
					C231.7,445.8,231.7,445.9,231.7,445.9z M227.2,438.8c-0.8-2.4-1.8-5.4-1.2-7.9c0.6-0.1,1.2-0.1,1.8-0.2
					c-1.1,4.7,0.7,9.8,3.4,13.8c0,0,0,0.1,0,0.1c0,0,0.1,0.1,0.1,0.1c0,0,0,0,0,0C229.5,443.3,228,441.2,227.2,438.8z M230.5,445
					c-2.8-0.6-5.7-1.6-7.4-4c-1.1-1.5-2-3.5-2.2-5.4c0.6,0.8,1.4,1.5,2.3,1.9c0,0,0.1,0,0-0.1c-1-0.5-1.8-1.4-2.4-2.4
					c0-0.5,0-1,0.2-1.5c0-0.1-0.1-0.1-0.2,0c-0.1,0.4-0.2,0.8-0.2,1.2c-0.5-1-0.9-2.2-1.2-3.3c0.2,0,0.3-0.1,0.5-0.1
					c1.9,0,3.9-0.2,5.8-0.3c-0.7,2.6,0.1,5.6,0.9,8c0.7,2.1,1.9,4,3.5,5.6c0,0.1,0,0.1,0.1,0.2C230.4,444.8,230.4,444.9,230.5,445z
					 M226.7,444.8c0.3,0.1,0.6,0.2,0.9,0.3c0.5,0.1,0.9,0.3,1.4,0.4c-0.1,0-0.1,0-0.2,0c-1.2,0-2.5-0.3-3.6-0.7
					c-0.6-0.2-1.1-0.4-1.7-0.7C224.6,444.4,225.6,444.6,226.7,444.8z M222.4,443.5c-0.1-0.1-0.2-0.2-0.3-0.3
					c0.6,0.2,1.1,0.4,1.7,0.6C223.3,443.7,222.8,443.6,222.4,443.5z M229.9,445.7c-0.8,0.4-1.9,0.5-2.6,0.6
					c-1.2,0.1-2.5,0.1-3.7-0.5c-1.2-0.6-2.1-1.4-2.8-2.5c0.6,0.2,1.2,0.3,1.9,0.5c0.7,0.4,1.4,0.8,2.3,1.1c1.1,0.4,2.5,0.9,3.7,0.9
					C229,445.9,229.4,445.8,229.9,445.7C229.8,445.7,229.9,445.7,229.9,445.7z M220.4,442.9c-0.1-0.1-0.2-0.3-0.2-0.4
					c0.4,0.2,0.9,0.3,1.3,0.5c0.1,0.1,0.2,0.2,0.3,0.3C221.4,443.2,220.9,443.1,220.4,442.9z M219.9,441.8c-0.4-1-0.7-2-0.8-3.1
					c0-0.2-0.3-0.2-0.3,0c0.1,0.9,0.3,1.9,0.7,2.9c-1.1-0.4-2.2-0.9-3.3-1.3c-1.1-2.8-1.2-5.8-0.7-8.9c0.4,0.1,0.8,0.1,1.2,0.2
					c0.4,0,0.8,0,1.2,0c0.2,0.6,0.3,1.1,0.6,1.7c0.8,2.1,1.9,4,3.2,5.8c0.4,0.9,0.9,1.7,1.4,2.4c1,1.4,2.4,2.3,3.9,2.9
					c-0.2-0.1-0.4-0.2-0.7-0.2c-1.7-0.6-3.3-1.2-5-1.9c-0.4-0.6-0.8-1.3-0.9-2.1c0-0.1-0.1-0.1-0.1,0c0.1,0.8,0.4,1.4,0.8,2
					C220.6,442.1,220.2,442,219.9,441.8z M219.9,442.8c-1.1-0.3-2.1-0.7-3.2-1.1c-0.1-0.2-0.2-0.5-0.3-0.7c1.1,0.5,2.2,0.9,3.3,1.3
					C219.7,442.5,219.8,442.6,219.9,442.8z M216.3,441.5c-0.7-0.3-1.4-0.6-2.1-0.8c-0.1-0.2-0.2-0.5-0.3-0.7
					c0.7,0.3,1.4,0.6,2.1,0.9C216.1,441.1,216.2,441.3,216.3,441.5z M213.8,440.5c-1.1-0.4-2.1-0.9-3.1-1.4
					c-0.3-0.1-0.6-0.3-0.8-0.4c0-0.1,0-0.3,0-0.4c0.9,0.4,1.8,0.8,2.7,1.1c0.3,0.1,0.6,0.3,1,0.4
					C213.6,440.1,213.7,440.3,213.8,440.5z M209.9,437.7c0.1-1.7,0.5-3.5,1.1-5.1c0.2-0.5,0.4-1.1,0.6-1.6c0.3,0,0.6,0.1,0.9,0.1
					c0.2,0,0.4,0,0.5,0c0,0.1,0,0.2,0,0.3c-0.3,2.6-0.4,5.2,0.3,7.7c-0.9-0.4-1.9-0.8-2.8-1.2C210.3,437.9,210.1,437.8,209.9,437.7z
					 M210.7,428.4c0.1-0.1,0.1-0.2,0.2-0.3c0.1,0,0.1,0,0.2,0c0.5-0.1,1-0.1,1.5-0.2c-0.2,0.4-0.4,0.7-0.5,1.1c0,0-0.1,0-0.1,0
					C211.5,428.8,211.1,428.6,210.7,428.4z M206.6,436.2c-0.3-0.1-0.5-0.3-0.8-0.4c-0.3-0.2-0.6-0.5-0.9-0.7
					c0.1-0.1,0.2-0.3,0.2-0.5c0,0,0,0,0,0c2-0.6,2.7-2.2,2.6-3.9c0.3,0,0.7,0.1,1,0.1c-0.1,0.1-0.2,0.3-0.2,0.4
					C207.7,432.7,206.9,434.5,206.6,436.2z M205.8,425.3c-0.1-0.1-0.1-0.2-0.2-0.3c0.4-0.1,0.9-0.3,1.3-0.4c0.5-0.2,1.1-0.4,1.6-0.6
					c1.1,0.2,2.3,0.3,3.4,0.4c-1.3,0.5-2.7,0.9-3.9,1.4C207.2,425.6,206.5,425.4,205.8,425.3z M205.3,424.6
					c-0.3-0.4-0.6-0.8-0.8-1.2c1,0.2,1.9,0.3,2.9,0.5C206.6,424.1,206,424.3,205.3,424.6z M204.1,422.8c-0.2-0.3-0.5-0.7-0.7-1
					c0,0,0,0,0,0c2,0.6,4.2,1,6.3,1.1c0.1,0,0.2,0,0.2,0c-0.6,0.2-1.1,0.4-1.7,0.6C206.8,423.3,205.4,423.1,204.1,422.8z M208,418.1
					c1.5,1.3,3.2,2.4,4.9,3.2c0.2,0.1,0.4,0.2,0.6,0.3c0.1,0,0.1,0.1,0.2,0.1c-1-0.3-2.1-0.7-3.1-1c-1.5-0.5-3-0.9-4.5-1.4
					c0.3-0.3,0.5-0.6,0.8-0.9c0.2-0.2,0.4-0.5,0.6-0.7C207.7,417.8,207.9,418,208,418.1z M208.9,416.2c0.7,1,1.4,2,2.1,3
					c0.3,0.4,0.6,0.8,1,1.1c-1-0.6-2-1.3-2.9-2c-0.4-0.3-0.8-0.6-1.1-1C208.2,416.9,208.5,416.6,208.9,416.2z M213.3,417.1
					c0.2,0.5,1,2.9,1.9,4.4c0,0,0,0,0,0c-0.2,0-0.4-0.1-0.6-0.1c-0.3-0.1-0.6-0.2-1-0.3c-0.1-0.1-0.3-0.2-0.4-0.3
					c-1.3-1.1-2.3-2.4-3.3-3.7c-0.3-0.4-0.6-0.8-0.8-1.2c0,0,0.1-0.1,0.1-0.1c0.9-0.9,1.7-1.9,2.5-2.9c0.4-0.4,0.8-0.8,1.2-1.3
					c0,0.1,0,0.2,0,0.3C212.8,413.6,212.7,415.4,213.3,417.1z M213.7,410.4c0.8-1,1.6-2.1,2.3-3.1c1.4-2,2.9-4,4.3-6
					c-0.4,0.9-0.8,1.8-1.2,2.7c-0.6,0.8-1,1.9-1.3,2.8c-0.5,1.5-0.8,3.1-0.9,4.7c-0.3,3-0.2,6.1,0.4,9c-0.1,0-0.1,0-0.2,0
					c-0.4,0-0.8,0.1-1,0.3c-0.1,0.1-0.2,0.2-0.3,0.3c0,0,0,0,0,0c-0.3-0.5-0.5-1.1-0.7-1.3c-0.6-1.1-1.1-2.2-1.5-3.4
					c-0.5-1.6-0.4-3.5-0.2-5.2c0.1-0.2,0.3-0.3,0.4-0.5C213.9,410.5,213.8,410.4,213.7,410.4z M223.4,394.9
					c-0.7,1.3-1.3,2.6-1.9,3.9c-0.8,1.1-1.6,2.3-2.4,3.4c-0.9,1.3-1.9,2.7-2.8,4c0.5-0.8,1.1-1.6,1.6-2.5
					C219.6,400.8,221.4,397.8,223.4,394.9z M228.4,388.9c-1.9,2.8-3.8,5.5-5.7,8.2c0.5-1,1.1-2.1,1.7-3.1c0.9-1.6,1.8-3.1,2.9-4.5
					c0.2-0.2,0.5-0.5,0.8-0.9C228.1,388.7,228.3,388.8,228.4,388.9z M239.2,405.7c-0.4-0.6-0.8-1.2-1.2-1.9c-0.5-3.1-1.6-6.2-3-9.1
					c0.2,0.3,0.5,0.7,0.7,1C237.8,398.7,239.7,402,239.2,405.7z M244.1,410.4c-1.3,1-2.7,2-4,2.9c-2.8-1.5-3.9-4.4-4.6-7.4
					c0,0-0.1,0-0.1,0c0.6,3,1.5,6.1,4.3,7.7c-4,2.8-8.2,5.4-12.6,7.7c-1.3,0.7-2.6,1.3-4,1.9c-0.6-0.3-1.2-0.7-1.8-1.1
					c-0.5-0.4-1.1-0.8-1.6-1.2c0.9-0.9,2-1.8,2.3-1.9c2.4-1.2,5.9-2.2,8.5-1.1c0,0,0,0,0,0c-1.5-0.8-3.3-0.7-5-0.4
					c-1.4,0.2-3,0.5-4.1,1.4c-0.2,0.2-1.2,0.9-2.1,1.8c0.1-0.1,0.2-0.3,0.3-0.4c1-1,2-2.1,3.3-2.8c2.6-1.4,5.4-1.5,8.2-0.7
					c0,0,0,0,0,0c-2.9-1-6.3-1.2-9,0.7c-1.2,0.8-2.5,1.9-3.4,3c0,0,0,0,0,0c1.1-1.7,2.5-3,4.2-4.2c2.4-1.7,5.1-3.1,7.9-3.6
					c0.1,0,0.1-0.1,0-0.1c-3,0.4-6,1.7-8.4,3.5c-1.5,1.1-3.2,2.5-4.3,4.1c0.3-1,0.6-1.9,1.1-2.9c0.8-1.6,1.9-2.8,3.2-4.1
					c2.3-2.2,4.7-4.5,8-5.3c0,0,0,0,0,0c-3.4,0.7-5.9,3-8.4,5.3c-2.1,2-3.5,4.3-4.3,7c-0.7-2.9-0.7-6-0.5-9c0.3-2.8,0.9-5.5,2.4-7.9
					c0,0,0-0.1-0.1-0.1c-0.1,0.1-0.2,0.2-0.3,0.3c0.6-1.2,1.2-2.3,1.8-3.5c1.3-1.8,2.6-3.6,3.8-5.4c1.3-1.8,2.6-3.7,3.8-5.6
					c0.1,0,0.2,0.1,0.4,0.1c0.4,2.3-0.1,4.8-0.7,7c-0.9,3.5-2.5,6.7-4,9.9c0,0,0,0.1,0,0c1.7-3.3,3.5-6.5,4.4-10.1
					c0.2-0.9,0.5-1.9,0.6-2.9c0,1.1,0,2.1,0,3.1c-0.2,3.5-1.9,6.8-3.2,10c0,0,0,0,0,0c1.5-3.4,3.3-6.6,3.6-10.4
					c0.1-1.6,0.2-3.2,0.1-4.8c0-0.6,0-1.3-0.2-2c0.1,0,0.2,0,0.3,0c0,0,0.1,0,0.1,0c0,0.1,0.1,0.2,0.1,0.2c0.3,0.6,0.5,1.3,0.7,1.9
					c0.4,1.5,0.5,3.1,0.3,4.7c-0.2,3-0.9,5.9-1.8,8.8c0,0,0,0,0.1,0c0.9-3,1.9-6.1,2.1-9.3c0.1-1.5,0-3-0.3-4.5
					c-0.2-0.6-0.4-1.4-0.6-2.1c3.3,4.4,5.9,9.2,7.1,14.5c-0.2-0.6-0.5-1.2-0.6-1.8c0-0.1-0.1,0-0.1,0c0.2,1,0.5,1.9,0.9,2.7
					c0.1,0.4,0.2,0.8,0.2,1.2c0,0,0,0,0,0c0-0.3-0.1-0.6-0.1-0.9C239.5,407,241.7,408.9,244.1,410.4z M244.5,410.6
					c1.7,1,3.5,1.8,5.3,2.6c-0.3,0.2-0.6,0.6-0.8,0.8c-0.7,0.7-1.9,0.9-2.8,0.8c-1.8-0.1-3.9-0.5-5.6-1.3c0,0,0,0,0,0
					c0.8-0.6,1.6-1.2,2.4-1.7C243.4,411.4,243.9,411,244.5,410.6z M249.8,412.6c-1.7-0.7-3.4-1.4-5-2.3c0.6-0.4,1.2-0.9,1.7-1.3
					C247.5,410.3,248.6,411.5,249.8,412.6z M247.8,408.8c0.4,0.9,0.9,1.7,1.5,2.5c-0.8-0.8-1.6-1.7-2.3-2.6c0.2-0.2,0.4-0.3,0.6-0.5
					C247.6,408.4,247.7,408.6,247.8,408.8z M248.8,409.7c-0.1-0.2-0.2-0.4-0.3-0.5c-0.2-0.4-0.4-0.8-0.5-1.2
					c0.1-0.1,0.1-0.1,0.2-0.1C248.3,408.4,248.5,409,248.8,409.7z M250.8,409.4c0,0.5-0.2,1.7-0.1,2.7l0,0c0,0-0.1,0.1-0.1,0.1
					c0,0,0-0.1,0-0.1c-0.8-1.4-1.6-3-2.1-4.6c0.6-0.5,1.1-0.9,1.7-1.4c0.3-0.3,0.6-0.5,1-0.8C251,406.6,250.9,408,250.8,409.4z
					 M252.4,411.7c-0.1-0.1-0.2-0.1-0.2-0.2c-0.1-0.1-0.1-0.1-0.2-0.2c-0.3-0.3-0.7,0-0.8,0.3c0,0,0,0,0,0c0,0,0,0,0,0
					c-0.1-1.1,0.1-2.4,0.1-3.3c0.1-1.1,0.1-2.2,0.2-3.4c0.7-0.6,1.4-1.2,2.1-1.8c-0.1,0.6-0.2,1.3-0.3,1.9
					C253.1,405.6,252.8,409.2,252.4,411.7z M253.6,421c0-0.6-0.4-3.9-1-5.5c0,0,0.1,0,0.1,0c0.7,0.4,2.1,3.6,2.3,4
					c0.6,1.5,0.9,3.1,1,4.7c-0.9,0.3-1.8,0.5-2.6,0.8C253.6,423.6,253.7,422.3,253.6,421z M248.8,426.2c0.4-1.1,0.8-2.1,1.1-3.3
					c0.5-1.9,0.9-3.8,1.2-5.7c0-0.3,0.1-0.6,0.1-0.9c0.1-0.2,0.1-0.5,0.2-0.7c0.2,0.2,0.5,0.2,0.7,0c0,0,0,0,0,0
					c0.1,0.2,0.1,0.5,0.1,0.5c0.2,0.6,0.3,1.2,0.4,1.8c0.3,1.4,0.5,2.8,0.5,4.2c0,1-0.1,2-0.2,2.9
					C251.6,425.5,250.2,425.9,248.8,426.2z M244.9,427.2c1.3-1.5,2.5-3,3.5-4.7c0.7-1.2,1.3-2.3,1.8-3.6c-0.3,1.4-0.5,2.9-0.9,4.3
					c-0.3,1.1-0.6,2.1-1,3.1C247.2,426.7,246.1,426.9,244.9,427.2z M244.5,427.4c-0.9,0.2-1.8,0.4-2.7,0.6c3.5-3.1,6.4-7.1,7.8-11.6
					c0,0,0.1-0.1,0.1-0.1c0.2-0.3,0.6-0.8,0.9-1.2c0.1,0.1,0.1,0.3,0.2,0.4c0,0,0,0,0,0c0,0.1,0,0.3,0,0.4c-0.2,0.8-0.4,1.5-0.6,2.3
					c-0.6,1.5-1.3,3-2.1,4.5C246.9,424.3,245.7,425.9,244.5,427.4z M234.4,443.5c0.4-0.9,0.8-1.8,1.3-2.7c0.7-1.3,1.3-2.6,1.9-3.9
					c0.7-1.8,1.5-3.6,1.8-5.5c0.1-0.4,0.2-1,0.2-1.5c0.6-0.5,1.2-0.9,1.8-1.4c0.9-0.2,1.8-0.4,2.7-0.6c0.1,0,0.1,0,0.2-0.1
					c-0.5,0.5-0.9,1.1-1.4,1.6c0-0.1-0.1,0-0.1,0c0,0,0,0,0,0.1c-0.3,0.3-0.6,0.6-0.9,0.9c0,0,0,0.1,0.1,0.1
					c0.3-0.3,0.6-0.5,0.9-0.8c0.6,2.6-1.1,5.2-2.4,7.3c-1.6,2.6-3.6,4.7-5.5,7.1c0-0.1,0-0.1-0.1-0.2
					C234.6,443.6,234.5,443.5,234.4,443.5z M234.1,442.7c-0.1,0.2-0.3,0.5-0.4,0.9c-0.1,0.1-0.1,0.1-0.2,0.2
					c-0.1-0.1-0.2-0.3-0.3-0.5c2-4.1,2.4-9,1.3-13.5c1.5-0.3,3-0.6,4.5-0.9c0.1,0.3,0.2,0.6,0.2,0.9c-0.1,0.1-0.1,0.1-0.2,0.2
					c-0.1,0.1,0,0.2,0.1,0.1c0,0,0.1-0.1,0.1-0.1c0,1.1-0.5,2.5-0.8,3.2c-0.6,1.7-1.3,3.3-2,5C235.8,439.8,234.8,441.2,234.1,442.7z
					 M221.6,459.9c3.7-0.3,6.6-2.7,8.5-5.9c1-1.7,1.9-3.5,2.6-5.3c-0.1,3-1.7,5.9-2.8,8.7c-0.7,1.7-1.5,3.5-2.4,5.1
					c-1.7-0.8-3.5-1.5-5.2-2.3C222.1,460.1,221.8,460,221.6,459.9z M217.5,458c-1.2-0.6-2.5-1.3-3.6-2c1.6-1.3,3-2.8,4.1-4.6
					c0-0.1-0.1-0.1-0.1,0c-1.1,1.7-2.6,3.3-4.3,4.5c-0.2-0.1-0.4-0.3-0.6-0.4c1.5-1.8,2.7-3.7,3.9-5.7c0,0,0-0.1,0,0
					c-1.2,2-2.5,3.9-4,5.6c-0.7-0.4-1.3-0.9-2-1.3c0.1-0.1,0.2-0.3,0.2-0.4c1.3-2.3,2-4.9,2.7-7.5c0,0,0,0-0.1,0
					c-0.8,2.5-1.5,5.1-2.8,7.4c-0.1,0.1-0.2,0.3-0.2,0.4c-1-0.7-2-1.5-2.9-2.3c-1.1-1-2.1-1.9-3.2-2.9c0-2.1,0.2-4.2,0.7-6.2
					c0,0,0,0-0.1,0c-0.5,1.9-0.8,3.9-0.9,6c-0.4-0.4-0.8-0.8-1.2-1.1c0.1-1.3,0.2-2.5,0.2-3.8c0-0.1-0.1-0.1-0.1,0
					c0,1.2-0.2,2.4-0.3,3.5c-0.4-0.3-0.7-0.7-1.1-1c-0.1-0.1-0.2-0.2-0.3-0.3c0.2,0.1,0.3,0.2,0.5,0.3c0.1,0.1,0.3-0.1,0.2-0.3
					c-0.4-0.3-0.8-0.7-1.1-1.2c0-0.2,0.1-0.4,0.1-0.6c0-0.1-0.1-0.1-0.1,0c0,0.2-0.1,0.3-0.1,0.5c-0.9-1.3-1.5-2.8-2.2-4.2
					c-0.1-0.6-0.1-1.3-0.1-1.9c1.4-0.4,2.7-1,3.9-1.9c1.3,0.8,2.6,1.6,4,2.3c0.2,0.7,0.5,1.4,1,2.1c0,0,0.1,0,0.1-0.1
					c-0.5-0.6-0.7-1.2-0.9-1.9c0.9,0.4,1.8,0.7,2.8,0.9c0.2,1.8,1,3.6,2.4,5c0,0,0.1,0,0.1-0.1c-1.3-1.4-1.9-3.1-2.2-4.8
					c0.3,0.1,0.7,0.1,1,0.1c0.1,0,0.1,0,0.2-0.1c1,0.5,2,0.9,2.9,1.3c0,0.1,0.1,0.2,0.1,0.3c0.1,0.1,0.3,0,0.2-0.1
					c0.7,0.3,1.4,0.6,2.1,0.8c0.5,0.9,1.2,1.8,2,2.6c0,0,0.1,0,0,0c-0.7-0.8-1.2-1.6-1.7-2.4c1,0.4,2.1,0.7,3.1,1
					c0.8,1.5,2.1,2.8,3.8,3.3c1.5,0.5,3,0.5,4.5,0.2c0.6-0.1,1.7-0.3,2.2-0.8c0.3,0.1,0.6,0.2,0.9,0.2c-0.3,0.4-0.5,0.8-0.9,1.1
					c-0.6,0.6-1.4,1.1-2.2,1.4c-1.5,0.6-3.1,0.9-4.7,0.7c-3.4-0.4-6.2-2.6-6.8-6.1c0-0.1-0.2-0.1-0.2,0c0.5,3.7,3.4,6.2,7.1,6.5
					c1.8,0.2,3.5-0.1,5.1-0.9c0.7-0.3,1.5-0.8,2.2-1.4c-0.3,0.5-0.6,1-0.8,1.4c-0.8,1.4-1.6,2.7-2.7,3.9c-2.9,3-7.3,4.9-11,1.9
					c-0.1-0.1-0.2,0.1-0.1,0.2c3.5,3.1,8.2,1.5,11.2-1.6c1.3-1.3,2.3-2.9,3.2-4.6c0.3-0.5,0.8-1.4,1.1-2.2c0,0.1,0.1,0.2,0.1,0.4
					c-0.1,0.6-0.2,1.1-0.5,1.6c-0.6,1.3-1.4,2.6-2.3,3.8c-1.9,2.3-4.3,4.1-7,5.4c-0.1,0.1-0.1,0.2,0.1,0.2c2.9-1.3,5.6-3.3,7.6-5.8
					c1-1.3,1.9-2.7,2.4-4.2c0-0.1,0-0.1,0.1-0.2c0,0,0,0.1,0.1,0.1c-0.2,0.5-0.4,1-0.6,1.5c-0.7,1.5-1.3,3-2.2,4.4
					c-1.9,3.2-4.7,5.7-8.4,6c-1.2-0.5-2.3-1.1-3.5-1.6c0.6-0.2,1.3-0.3,1.9-0.5c0.1,0,0.1-0.1,0-0.1
					C219,457.6,218.3,457.8,217.5,458z M204.5,456.8c-0.2-0.2-0.3-0.4-0.5-0.6c-0.8-1.2-1.5-2.4-2-3.7c-0.8-2.2-1.3-4.5-1.1-6.8
					c0.6,0.6,1.2,1.2,1.9,1.8c-0.2,1.5-0.3,3-0.1,4.5C202.9,453.8,203.7,455.3,204.5,456.8z M202.9,451.3c-0.1-1.2,0-2.4,0.1-3.5
					c0.1,0.1,0.1,0.1,0.2,0.2c0.3,0.3,0.7,0.6,1,0.9c-0.1,2.5,0.2,5,0.5,7.4C203.9,454.7,203,453.2,202.9,451.3z M200.9,450
					c-0.7-1.8-1.3-3.7-1.6-5.6c0-0.1,0-0.2-0.1-0.3c0,0,0.1,0.1,0.1,0.1c0.5,0.5,0.9,1,1.4,1.4C200.6,447,200.6,448.5,200.9,450z
					 M212.7,455.7c0.2,0.1,0.4,0.2,0.6,0.3c-0.4,0.3-0.9,0.6-1.3,0.8c-0.2,0.1-0.4,0.2-0.6,0.3c0.3-0.3,0.7-0.7,1-1
					C212.5,456,212.6,455.9,212.7,455.7z M209,458.9c0.1,0,0.2-0.1,0.3-0.1c0.4-0.2,0.8-0.5,1.2-0.8c0.8-0.2,1.5-0.6,2.2-1.1
					c0.3-0.2,0.6-0.4,0.9-0.7c1.1,0.7,2.3,1.3,3.5,1.9c-1.3,0.3-2.6,0.8-3.9,1C211.8,459.3,210.4,459.1,209,458.9z M207.4,458.3
					c0.7,0,1.4,0,2.1-0.1c0.1,0,0.1,0,0.2,0c0,0,0,0-0.1,0c-0.6,0.3-1.1,0.5-1.6,0.5c-0.2,0-0.5-0.1-0.7-0.1
					C207.4,458.5,207.4,458.4,207.4,458.3z M205.5,457.7c0,0,0.1,0,0.2,0c1-0.6,2.3-0.7,3.2-1.4c0.7-0.6,1.3-1.3,1.7-2
					c0.6,0.4,1.3,0.9,1.9,1.3c0,0,0,0,0,0.1c-0.6,0.6-1.2,1.3-1.8,1.8c-0.8,0.2-1.7,0.3-2.6,0.3c-0.6,0-1.3,0-1.9,0.1
					C206,457.8,205.7,457.8,205.5,457.7C205.5,457.8,205.5,457.8,205.5,457.7z M205.2,456c-0.1-0.7-0.2-1.3-0.3-2
					c-0.1-1.2-0.3-2.5-0.3-3.7c0-0.4,0-0.7,0-1.1c1.8,1.7,3.7,3.5,5.8,4.9c0,0,0,0,0.1,0c-0.6,1-1.5,1.9-2.6,2.3
					c-0.7,0.3-1.8,0.4-2.3,1c0-0.1-0.1-0.1-0.2-0.1C205.2,456.9,205.2,456.2,205.2,456z M203.5,456.3c0.1,0.2,0.3,0.4,0.4,0.6
					c0.3,0.4,0.6,0.8,1,1.2c-0.2,0-0.3,0.1-0.5,0.2C204.1,457.6,203.8,456.9,203.5,456.3z M201.9,456.8
					C201.9,456.8,201.9,456.8,201.9,456.8c-0.7-1.2-1.2-2.5-1.6-3.6c-0.4-1-0.7-2.1-1.1-3.1c0.3-0.1,0.5-0.3,0.8-0.4
					c0.1,0,0-0.1-0.1-0.1c-0.3,0.1-0.5,0.3-0.8,0.4c-0.3-1-0.6-1.9-0.9-2.9c-0.1-0.3-0.2-0.5-0.2-0.8c0-0.6-0.1-1.2,0-1.8
					c0-0.2-0.3-0.2-0.3,0c0,0.1,0,0.2,0,0.3c-0.2-1-0.4-2-0.5-3c0,0,0,0,0,0c0.1,0.1,0.2,0.2,0.3,0.3c0.5,0.6,1,1.2,1.5,1.7
					c0.1,0.3,0.1,0.6,0.2,0.9c0.5,2.6,1.4,5,2.4,7.4c0.1,0.3,0.2,0.5,0.3,0.8c0.3,0.6,0.5,1.3,0.9,1.9c0,0.1,0.1,0.2,0.1,0.3
					c0.5,1.1,1,2.2,1.5,3.3c0,0-0.1,0-0.1,0l0,0c-0.1-0.1-0.3-0.1-0.4-0.2c-0.1-0.1-0.2-0.2-0.4-0.2
					C202.8,457.7,202.3,457.3,201.9,456.8z M202.7,458.6c-0.2-0.1-0.4-0.1-0.6-0.2c-0.5-0.3-1.1-0.5-1.6-0.8
					c-0.6-0.4-1.1-0.8-1.7-1.3c-0.9-0.9-1.7-1.9-2.4-2.9c-0.1-0.1-0.1-0.2-0.2-0.2c0.1-0.3,0.2-0.6,0.3-0.9c0.6,1.2,1.3,2.2,2.3,3.1
					c0.9,0.9,1.8,1.7,2.9,2.3c0.3,0.2,0.6,0.4,0.9,0.6C202.6,458.4,202.7,458.4,202.7,458.6C202.7,458.6,202.7,458.6,202.7,458.6z
					 M200.6,458.7c-1.4-0.3-2.8-0.6-4.1-1.1c-0.1-0.1-0.3-0.1-0.4-0.2c0,0,0,0-0.1,0c0,0,0,0,0,0c-0.3-0.1-0.6-0.2-0.8-0.4
					c0.2-0.5,0.3-1,0.5-1.5c0.9,0.6,1.9,1.2,2.8,1.7c0.4,0.2,2.3,1.2,4,1.9C201.7,458.9,201.1,458.8,200.6,458.7z M194.1,460.2
					c0.2-0.9,0.5-1.8,0.8-2.7c0.2,0,0.3,0,0.5,0c0.4,0.2,0.7,0.3,1.1,0.5c1.5,0.6,3.1,1,4.7,1.3c0.2,0,0.4,0.1,0.6,0.1
					C199.4,460.5,196.7,460.7,194.1,460.2z M189.8,458.8c0.1-0.2,0.2-0.3,0.3-0.5c0.9,0.5,1.8,0.8,2.8,1c0,0.2,0,0.4-0.1,0.6
					C191.8,459.7,190.8,459.3,189.8,458.8z M190.5,448c-0.4,0.2-0.8,0.3-1.3,0.5c-0.4,0.1-0.9,0.2-1.3,0.3c0.6-1.7,1.4-3.4,2.3-5
					c0.3-0.6,0.7-1.1,1-1.6C191.3,444.1,190.9,446.1,190.5,448z M189.5,451.5c-0.2,0-0.4,0-0.5,0c0-0.2,0-0.3-0.1-0.5
					c0-0.1-0.1,0-0.1,0c0,0.2,0,0.3,0,0.4c-0.6,0-1.2-0.1-1.7-0.2c0.2-0.6,0.4-1.3,0.6-1.9c0.7-0.2,1.4-0.4,2.2-0.6
					c0.2-0.1,0.3-0.1,0.5-0.2c0,0.1,0,0.2-0.1,0.2C190.1,449.8,189.8,450.7,189.5,451.5z M189.3,452.4c-0.1-0.1-0.1-0.2-0.1-0.3
					c0.1,0,0.2,0,0.2,0C189.3,452.1,189.3,452.2,189.3,452.4z M188.6,454.3c-0.4-0.2-0.8-0.3-1.2-0.5c-0.2-0.1-0.5-0.2-0.7-0.4
					c0.1-0.5,0.2-1,0.4-1.5c0.7,0.1,1.3,0.1,2,0.2c0.1,0.2,0.1,0.4,0.2,0.6C189,453.2,188.8,453.7,188.6,454.3z M188.1,455.5
					c-0.6-0.3-1.2-0.6-1.7-1c0.1-0.2,0.1-0.5,0.2-0.7c0.5,0.2,1,0.4,1.5,0.6c0.1,0.1,0.3,0.1,0.4,0.1
					C188.3,454.9,188.2,455.2,188.1,455.5z M187.8,456.3c-0.2-0.2-0.5-0.4-0.7-0.6c0.3,0.1,0.5,0.3,0.8,0.4
					C187.8,456.1,187.8,456.2,187.8,456.3z M183.8,468.6c0,0,0-0.1,0-0.1C183.8,468.5,183.9,468.6,183.8,468.6
					c0.4,0.6,1.1,2.3,0.5,2.9C183.9,470.6,183.8,469.6,183.8,468.6z M183.8,470.3c-0.1-0.3-0.2-0.5-0.3-0.8c0-0.1,0.1-0.3,0.1-0.4
					C183.6,469.5,183.7,469.9,183.8,470.3z M183.3,470.2c0.2,0.5,0.3,0.9,0.4,1.4c-0.2,0-0.5,0-0.7,0
					C183,471.2,183.1,470.7,183.3,470.2z M184.4,462.6c0.5-2.4,1.1-4.8,1.7-7.2c0.5,0.4,1,0.8,1.5,1.2c-0.6,1.2-1.2,2.4-1.8,3.7
					c-0.5,0.8-0.9,1.7-1.4,2.6C184.4,462.8,184.4,462.7,184.4,462.6z M186.8,451.3c-0.3,0-0.5-0.1-0.8-0.1c0.3-0.5,0.6-1,0.9-1.5
					c0.2,0,0.3-0.1,0.5-0.1C187.1,450.1,186.9,450.7,186.8,451.3z M186.3,453.2c-0.4-0.2-0.7-0.4-1-0.6c0.1-0.3,0.3-0.6,0.4-0.9
					c0,0,0,0,0,0c0.3,0,0.6,0.1,0.9,0.1C186.5,452.3,186.4,452.8,186.3,453.2z M186,454.3c-0.4-0.3-0.8-0.6-1.1-0.9
					c0-0.1,0.1-0.2,0.1-0.3c0.4,0.2,0.7,0.4,1.1,0.6c0,0,0,0,0,0C186.1,454,186,454.2,186,454.3z M184,463.4c0,0.1,0,0.3-0.1,0.4
					c0,0,0,0.1-0.1,0.1c-0.6-1-0.9-2.2-1.2-3.4c0.5-2.2,1.1-4.4,2-6.5c0.1,0.1,0.3,0.3,0.4,0.4c0.3,0.2,0.5,0.5,0.8,0.7
					C185.2,457.9,184.5,460.6,184,463.4z M180.4,470.2c0.1-0.2,0.1-0.5,0.2-0.7c0.7,0.6,1.3,1.3,1.7,2.1c0,0,0,0,0,0.1
					c0,0-0.1,0.1-0.1,0.1C181.6,471.2,181,470.7,180.4,470.2z M181,471.3c-0.3-0.2-0.5-0.3-0.8-0.5c0,0,0-0.1,0-0.1
					C180.5,470.9,180.8,471.1,181,471.3z M180.6,469.1c0.2-0.7,0.4-1.5,0.5-2.2c0.5,0.5,0.9,1,1.2,1.6c-0.1,0.7-0.2,1.4-0.2,2.2
					c-0.3-0.4-0.6-0.7-0.9-1C181.1,469.5,180.9,469.3,180.6,469.1z M181.3,466.5c0.1-0.4,0.2-0.8,0.3-1.1c0.5,0.3,0.9,0.8,1.3,1.3
					c-0.1,0.4-0.2,0.8-0.3,1.3C182.2,467.4,181.7,466.9,181.3,466.5z M181.6,465.2c0.3-1.3,0.6-2.6,0.9-3.9c0.3,1,0.7,2,1.3,2.8
					c-0.3,0.7-0.6,1.4-0.8,2.2C182.6,465.8,182.1,465.4,181.6,465.2C181.6,465.2,181.6,465.2,181.6,465.2z M179.9,472.6
					c0.1-0.4,0.2-0.9,0.3-1.3c0.7,0.4,1.3,1,1.9,1.6c0,0,0,0,0,0c-0.5-0.1-1.1-0.1-1.5-0.2C180.3,472.7,180.1,472.6,179.9,472.6z
					 M189.2,415.2c-0.5-1.1-0.9-2.1-1.4-3.2c-0.1-0.2-0.2-0.5-0.3-0.7c-0.2-1.4-0.2-2.7,0-4.1c0.7,0.1,1.8,0.7,2,0.8
					c1.5,0.7,3,1.6,4.4,2.5c0.5,0.3,1.1,0.7,1.6,1c-0.1,0.7-0.2,1.4-0.2,2.1c0,0.3,0,0.6,0,0.9C193.3,414,191.1,414.2,189.2,415.2z
					 M182.9,442.6c0.1-0.3,0.3-0.5,0.4-0.8c0.6-1.1,1.2-2.3,1.9-3.3c0.1-0.1,0.2-0.1,0.3-0.2c-0.1,1.5-0.6,3.1-1.2,4.5
					c-0.7,1.6-1.4,3.1-2.1,4.7c0,0,0,0,0,0C182.3,445.8,182.6,444.1,182.9,442.6z M171.6,472.6c0.3-0.9,0.6-1.9,0.9-2.8
					c1.6,0,3.2,0.1,4.7,0.4c-0.1,0.7-0.1,1.4-0.2,2c0,0-0.1,0-0.1,0C175.2,472,173.3,472,171.6,472.6z M176.1,438.7
					c-0.1-0.4-0.3-0.8-0.4-1.2c1.2-0.6,2.4-1.3,3.7-1.8c-0.2,0.3-0.4,0.6-0.5,0.9C178,437.3,177,438,176.1,438.7z M174.1,447.2
					c-0.3-0.1-0.7-0.3-1-0.5c0.5-0.5,1-1,1.5-1.4c0,0.1,0.1,0.1,0.1,0.2C174.6,446,174.3,446.6,174.1,447.2z M168,456.3
					c0.1-0.4,0.3-0.8,0.4-1.2c0,0.1,0.1,0.2,0.1,0.3c0,0.1,0.1,0,0.1,0c-0.1-0.1-0.1-0.3-0.2-0.4c0.5-1.5,1.1-2.9,1.7-4.2
					c0.7-1.4,1.6-2.7,2.7-3.8c0.4,0.2,0.7,0.4,1.1,0.6c-1.5,3.8-2.9,7.7-4.3,11.6C169.2,458.2,168.6,457.2,168,456.3z M166.4,451.4
					c-0.4-0.6-0.9-1.1-1.4-1.6c0.3-0.6,0.6-1.1,0.9-1.7c1.6-3.2,3.3-6.6,6.4-8.6c0.1,0.7,0.3,1.3,0.5,1.9c-1.9,1.7-3.6,3.7-4.8,6
					C167.3,448.8,166.9,450.1,166.4,451.4z M165.7,453.8c-0.5-0.5-1-0.9-1.6-1.3c-0.1-0.1-0.3-0.2-0.4-0.3c0.4-0.7,0.7-1.4,1.1-2.1
					c0.5,0.5,1,1,1.5,1.5C166.1,452.5,165.9,453.2,165.7,453.8z M165,456.4c-0.6-1-1.3-1.9-2.1-2.7c0.2-0.4,0.5-0.7,0.7-1.1
					c0.3,0.2,0.5,0.4,0.7,0.5c0.4,0.3,0.9,0.7,1.3,1.1C165.4,455,165.2,455.7,165,456.4z M161.7,455.4c0.4-0.5,0.7-0.9,1-1.4
					c0.8,0.8,1.6,1.7,2.2,2.7c-0.2,0.8-0.5,1.7-0.8,2.5c-0.4-0.9-0.9-1.8-1.5-2.7C162.3,456.2,162,455.8,161.7,455.4z M162.2,451.3
					c-1.4-0.7-3-1.3-4.5-1.2c0.4-0.8,0.5-1.7,0.5-2.7c1.3,0,2.8,0.4,3.8,0.9c0.4,0.2,0.8,0.4,1.2,0.6
					C162.9,449.8,162.6,450.6,162.2,451.3z M161.6,452.6c-0.1-0.1-0.3-0.2-0.4-0.3c-0.9-0.6-1.8-1.1-2.8-1.5c-0.1,0-0.2-0.1-0.4-0.1
					c1.4,0,2.8,0.4,4,1C161.9,452,161.8,452.3,161.6,452.6z M156.3,451.8c1.1,0.7,2.2,1.3,3.3,2.2c0.3,0.3,0.6,0.5,0.9,0.8
					c-0.3,0.6-0.7,1.1-1.1,1.7c-0.4-0.9-0.8-1.8-1.4-2.6C157.5,453.1,156.9,452.5,156.3,451.8z M157.5,447.5
					c-0.4,0.7-0.8,1.5-1.1,2.3c0-0.3-0.1-0.6-0.1-0.9c0-0.3,0.1-0.5,0.1-0.8C156.6,447.8,157,447.6,157.5,447.5z M157.1,450
					C157.1,450,157.1,449.9,157.1,450c-0.1-0.3-0.5-0.1-0.5,0.1c0,0,0,0,0,0c0,0-0.1,0-0.1,0c0.3-0.7,0.7-1.4,1.1-2.1
					C157.6,448.7,157.4,449.4,157.1,450z M160.2,452.1c0.4,0.3,0.8,0.5,1.2,0.8c-0.2,0.5-0.5,0.9-0.7,1.4c-1.2-1.2-2.6-2.2-4.1-2.9
					c0.1-0.1,0.1-0.2,0.1-0.4c0-0.1,0-0.1,0-0.2c0,0,0,0,0,0c0,0,0.1,0,0.1,0c0.1,0.1,0.2,0.1,0.4,0
					C158.2,451.2,159.3,451.6,160.2,452.1z M167.2,438.8C167.2,438.8,167.2,438.8,167.2,438.8c0.7-0.4,1.3-0.8,2-1.2
					c-2.6,3.3-4.1,7.1-5.7,11c-0.6-0.4-1.3-0.7-2.1-1c-1-0.3-2-0.6-3.1-0.6c1.1-1.6,2.4-3,3.8-4.3
					C163.7,441.3,165.4,440,167.2,438.8z M168.9,426.6c0,0.1,0,0.2-0.1,0.3c-0.2,0.1-0.5,0.3-0.8,0.3c0,0-0.1,0-0.1,0
					c0.1-0.1,0.2-0.1,0.3-0.2c0.2-0.1,0.3-0.3,0.5-0.3C168.7,426.7,168.7,426.7,168.9,426.6C168.8,426.7,168.8,426.7,168.9,426.6z
					 M169,428.2c0,0.3,0,0.5,0,0.8c0,1.3,0.1,2.5,0.2,3.8c0.1,1.2,0.2,2.6,0.7,3.8c0,0-0.1,0-0.1,0.1c-0.9,0.5-1.8,1-2.7,1.6
					c-0.2-2,0.4-4.1,0.8-6.1c0.3-1.3,0.5-2.7,0.9-4C168.9,428.2,169,428.2,169,428.2z M170.1,414.2c0.8,0.7,1.7,1.4,2.5,2
					c-0.3,0.8-0.6,1.6-0.9,2.4c-0.2,0.8-0.5,1.7-0.6,2.6c0,0.1-0.1,0.1-0.1,0.2c-0.2,0.4-0.5,0.8-0.7,1.3c-0.2-1-0.3-1.9-0.4-2.9
					C169.9,417.9,169.8,416,170.1,414.2z M166,410.2c1.2,1,2.4,2.1,3.6,3.1C168.3,412.3,167.1,411.2,166,410.2z M161.1,405.5
					c-0.1-0.1-0.3-0.3-0.4-0.4c-0.7-0.7-1.3-1.4-1.9-2.2c-0.4-0.5-0.8-1-1.2-1.5c0-0.1,0.1-0.3,0.1-0.4c0.3,0.5,0.8,0.9,1.1,1.2
					c1,0.8,2.1,1.5,3.2,2.1c2.3,1.2,4.8,1.9,7.2,2.8c0.1,0,0.1-0.1,0.1-0.1c-2.2-1-4.4-1.8-6.6-2.9c-1.2-0.6-2.3-1.2-3.3-2.1
					c-0.4-0.4-0.9-0.8-1.2-1.3c0,0,0-0.1-0.1-0.1c0.1-0.1,0.2-0.1,0.3-0.2c0.5-0.2,1-0.4,1.5-0.5c1.2-0.2,2.4-0.2,3.6-0.2
					c2.2,0.2,4.4,0.6,6.5,1c1.1,2.8,2.3,5.5,3.9,8.1c-0.5,0.4-0.9,0.9-1.4,1.5c-0.1,0.1,0.1,0.2,0.1,0.1c0.4-0.5,0.9-1,1.4-1.3
					c0.8,1.3,1.6,2.5,2.6,3.7c0,0.2,0.1,0.3,0.1,0.5c-0.5,1.4-0.9,2.8-1,4.3c-0.9-0.5-1.7-1-2.5-1.6c0.6-1.3,1.3-2.4,2.4-3.3
					c0,0,0-0.1,0,0c-1.1,0.8-1.9,2-2.5,3.2c-0.4-0.3-0.7-0.5-1-0.8c-0.6-0.4-1.1-0.9-1.7-1.3c0.1-0.7,0.3-1.5,0.6-2.2
					c0.1-0.1-0.1-0.2-0.2-0.1c-0.3,0.7-0.5,1.4-0.7,2.1c-1.3-1.1-2.5-2.2-3.8-3.3c-0.1-0.1-0.3-0.2-0.4-0.3c0.3,0.1,0.6,0.1,0.9,0.1
					c0,0,0.1-0.1,0-0.1c-0.4-0.1-0.8-0.2-1.1-0.3C164,408,162.5,406.8,161.1,405.5z M158.3,402.7
					C158.3,402.7,158.3,402.8,158.3,402.7c-0.3-0.2-0.6-0.6-0.9-0.9c0,0,0.1-0.1,0.1-0.2C157.7,402,158,402.4,158.3,402.7z
					 M156.9,402.1c0.1,0,0.1-0.1,0.2-0.1c1.1,1.2,2.3,2.4,3.6,3.5c0.1,0.1,0.2,0.2,0.3,0.2c0.9,1,1.9,1.9,2.8,2.8
					c-1.3-0.7-2.6-1.6-3.6-2.6C158.9,404.9,157.7,403.6,156.9,402.1z M147.9,388c0.9-1.6,1.2-4.5-0.1-5.9c0.7-0.4,1.4-1,2-1.6
					c2.2-2,3.9-4.5,4.4-7.5c0-0.1-0.1-0.1-0.1,0c-0.6,2.4-1.9,4.6-3.7,6.3c-0.8,0.8-1.7,1.7-2.7,2.3c-0.1,0.1-0.2,0.1-0.3,0.1
					c-0.1,0-0.1-0.1-0.2-0.1c3.6-2.4,4.4-7.3,3.9-11.5c1.1-1.9,3.3-3.1,5-4.4c0.4-0.3,0.7-0.6,1.1-0.8c0.8-0.4,1.7-0.8,2.5-1.1
					c0.2-0.1,0.4-0.1,0.7-0.2c-0.2,0.2-0.3,0.3-0.4,0.4c-1,0.9-1.8,2-2.7,3c-1.9,2.1-3.4,4.5-4.4,7.1c0,0.1,0.1,0.1,0.1,0
					c1.7-3.9,4.6-7.3,7.8-10.2c0.1,0.2,0.2,0.4,0.3,0.6c0,0.4,0,0.8-0.1,1.2c-0.1-0.3-0.2-0.5-0.3-0.8c0,0-0.1,0,0,0
					c0.1,0.3,0.2,0.6,0.3,0.9c-0.1,1-0.4,1.9-0.9,2.9c-0.7,1.5-1.4,2.9-2,4.4c0,0.1,0.1,0.1,0.1,0c0.8-1.8,1.9-3.4,2.6-5.2
					c0.1-0.3,0.3-0.7,0.4-1.1c1.2,4.3,2.2,8.7,3.2,13.1c1.4,6.5,2.9,13.6,5.4,20.2c-2.4-0.6-4.8-1.2-7.2-1.4
					c-1.3-0.1-2.6-0.1-3.8,0.3c-0.3,0.1-0.6,0.2-0.9,0.4c0.2-0.4,0.4-0.8,0.6-1.1c0.5-0.7,1.1-1.3,1.8-1.8c1.6-1.1,3.4-1.8,5.3-2.1
					c0,0,0,0,0,0c-2.1,0.3-4.2,1-5.9,2.3c-0.7,0.5-1.5,1.2-2,2c0-0.1,0-0.1-0.1-0.1c0.4-0.9,1.1-1.8,1.6-2.4c1.5-1.7,3.5-3,5.6-3.9
					c0.1,0,0-0.1,0-0.1c-2.3,0.9-4.7,2.3-6.3,4.2c-0.3,0.3-0.5,0.7-0.8,1.1c0.6-3.6,2.7-6.7,4.7-9.6c0,0,0-0.1-0.1,0
					c-2.4,3.2-4.6,6.6-5.3,10.6c-0.1-0.3-0.2-0.5-0.3-0.7c-0.1-0.1-0.1-0.2-0.2-0.2c-0.2-0.8-0.3-1.6-0.3-2.5
					c-0.1-1.3,0-2.6,0.2-3.9c0.3-2.4,0.7-5.1,2.4-6.9c0,0,0-0.1-0.1-0.1c-1.8,1.8-2.3,4.5-2.7,6.9c-0.2,1.3-0.4,2.7-0.3,4
					c0,0.8,0.1,1.6,0.3,2.4c0,0,0,0,0,0c-0.1-0.1-0.1-0.1-0.2-0.1c0,0,0,0,0,0c-1.1-3-1.1-6.3-0.2-9.5c0-0.1-0.1-0.1-0.2,0
					c-0.8,2.8-1.1,5.7-0.5,8.4c-1-2.2-1.6-4.5-1.2-7.1c0,0,0,0,0,0c-0.7,2.9,0,6,1.4,8.6c-0.1,0.2-0.2,0.4-0.3,0.7
					c-0.1-0.1-0.2-0.1-0.3-0.2c0-0.1-0.1-0.2-0.1-0.3c-0.3-0.9-0.7-1.7-1-2.7c-0.8-3-0.5-6.2,0-9.2c0-0.1-0.1-0.1-0.1,0
					c-0.7,3.1-1.1,6.5-0.1,9.6c0.2,0.7,0.5,1.4,0.7,2.1c-0.2-0.1-0.3-0.3-0.5-0.4c-0.7-0.9-1.4-1.9-2.1-2.9
					c-0.5-1.1-0.8-2.3-0.9-3.4c0-0.1-0.2-0.1-0.2,0c0.1,0.7,0.2,1.4,0.3,2.1C149.5,391.5,148.6,389.8,147.9,388z M146.8,382.5
					c0.1,0,0.3-0.1,0.4-0.1c1.4,1.3,1.4,3.7,0.6,5.5c-0.4-0.9-0.7-1.8-1-2.8C146.9,384.2,146.9,383.4,146.8,382.5z M144.5,383.8
					c0.1-0.3,0.2-0.6,0.4-0.9c0,0,0,0,0.1,0C144.8,383.2,144.6,383.5,144.5,383.8z M144.4,381.9
					C144.5,381.9,144.5,381.9,144.4,381.9c0.1-0.1,0.1-0.1,0.1-0.1c0,0,0,0,0.1,0c0,0,0,0,0.1,0c-0.1,0.1-0.1,0.2-0.2,0.4
					C144.5,382.1,144.5,382,144.4,381.9z M141.8,385.5c0.5-1.3,1.2-2.5,2.2-3.3c0,0.2,0.1,0.4,0.1,0.6c0,0,0,0,0,0
					c-0.3,0.5-0.6,0.9-1,1.3C142.7,384.6,142.2,385,141.8,385.5z"/>
			</g>
			<path class="st0" d="M310.7,350.2c-0.4,2.8,1,5.7,3,7.6c1.1,1,3.3,1.2,4.9,0.7c-0.1,0.3-0.1,0.7,0,1c-2.1,4.1-5,7.8-8.3,11
				c-1.8,1.7-3.7,3.4-5.8,4.8c-1.9,1.3-3.9,2.2-6,3.2c-0.5,0.3-0.1,1,0.4,0.8c2.1-0.8,4.1-2.3,5.9-3.6c2.1-1.6,4.2-3.3,6-5.3
				c3.1-3.2,5.8-6.8,7.8-10.8c0.5,1.8,3.2,3.6,4.6,4.2c0,0,0,0,0,0c-0.8-0.5-4-2.9-4.4-4.5c0.1-0.1,0.1-0.2,0.2-0.3
				c0.3,0.6,0.9,1.2,1.6,1.7c1.6,1.9,4.1,3.3,6.3,3.6c0,0,0,0,0,0c-1.7-0.4-3.6-1.4-5.1-2.8c0.3,0.1,0.6,0.3,0.8,0.4
				c2.2,0.9,4.4,0.7,6.7,0.6c0,0,0-0.1,0-0.1c-2,0.1-4.3,0.3-6.2-0.5c-0.7-0.3-1.4-0.7-2.1-1.2c-0.4-0.5-0.8-1.1-1.1-1.6
				c0.1,0.1,0.3,0.2,0.4,0.3c0.1,0.1,0.2-0.1,0.1-0.1c0,0,0,0-0.1-0.1c0.1,0,0.1,0.1,0.2,0.1c1.9,1.3,4.2,1.8,6.5,1.2c0,0,0-0.1,0,0
				c-2,0.3-3.5,0-5-0.8c2.7,0.3,5.9-0.9,8.2-1.7c0,0,0,0,0,0c-2,0.5-4,1.2-6,1.4c-1.3,0.1-2.3,0-3.3-0.4c-0.2-0.1-0.4-0.3-0.6-0.4
				c1.8,0.3,3.7,0.4,5.4-0.2c0.1,0,0-0.2,0-0.1c-1.4,0.4-2.8,0.3-4.3,0.1c1.4-0.2,2.8-1,4.1-1.4c0,0,0,0,0,0c-1.4,0.4-3,1.2-4.6,1.3
				c0,0,0,0,0,0c0,0-0.1-0.1-0.1-0.2c0-0.1-0.1-0.2-0.2-0.2c0,0,0,0-0.1,0c-0.1-0.1-0.2-0.1-0.3-0.2c0.9-0.1,1.9-0.6,2.6-0.8
				c0,0,0-0.1,0-0.1c-0.9,0.2-2,0.7-3,0.7c-0.2-0.6-0.3-1.1-0.2-1.7c0.1-0.9,0.3-1.8,0.6-2.6c0,0,0,0,0,0c-0.7,1.2-1.1,2.9-0.7,4.3
				c0,0-0.1,0-0.1,0c-0.4-0.6-0.9-1.1-1.4-1.7c-0.5-1.8-0.6-3.7-0.2-5.5c0,0,0,0,0,0c-0.4,1.4-0.5,3.3-0.2,5c0-0.1-0.1-0.1-0.1-0.2
				c-0.7-1.3-1.1-2.6-1.2-4.1c0-0.1-0.1-0.1-0.1,0c-0.1,1.4,0.3,3.2,1,4.6c-2-2.4-3.9-5.1-2.5-8.4c0,0,0,0,0,0
				c-1.6,3.1,0.3,6.9,2.7,9.5c-0.6-0.5-1.1-1.1-1.6-1.7c-1.2-1.5-2-3.1-3.1-4.7c0,0,0,0,0,0c1,2,1.9,4,3.4,5.7
				c0.7,0.8,1.3,1.3,2.1,1.6c0,0,0,0.1,0.1,0.1c-0.3,0-0.6,0.1-0.8,0.1c-1.6-0.8-3.1-2.3-3.8-3.7c0-0.1-0.1,0-0.1,0
				c0.7,1.5,2,2.8,3.3,3.8c-0.5,0-1,0-1.4-0.1c-2.6-0.9-3.4-3.6-3.7-6c0,0,0,0,0,0c0.1,2.2,0.7,4.4,2.5,5.8c1,0.7,2,0.7,3,0.6
				c0.3,0.2,0.6,0.3,0.9,0.5c-1.8,0.4-3.7-0.1-4.9-1.5C311.6,354.9,310.5,352.6,310.7,350.2C310.7,350.2,310.7,350.2,310.7,350.2z
				 M318.8,358.5c0,0.1,0.1,0.2,0.1,0.3c-0.1,0.1-0.1,0.2-0.2,0.3C318.7,358.9,318.7,358.7,318.8,358.5z"/>
			<path class="st0" d="M433.5,252.5c3.1-3.5,3.9-8.7,2.8-13.2c-0.6-2.4-3.4-4.7-6-5.5c0.5-0.4,0.8-0.8,1-1.4
				c6.7-3.6,14.1-6,21.5-7.4c4.1-0.7,8.2-1.3,12.4-1.3c3.9,0,7.4,0.7,11.2,1.3c1,0.2,1.1-1.3,0.2-1.5c-3.6-0.8-7.8-0.7-11.5-0.5
				c-4.4,0.2-8.8,0.7-13.1,1.6c-7.2,1.5-14.2,4-20.6,7.6c0.9-2.9-1.1-7.9-2.4-10c0,0-0.1,0-0.1,0c0.7,1.4,2.8,7.6,1.9,10.3
				c-0.2,0.1-0.4,0.2-0.5,0.3c0.2-1.2-0.1-2.5-0.6-3.8c-0.5-4.1-2.5-8.3-5.3-10.8c0,0-0.1,0,0,0c2,2.1,3.6,5.3,4.3,8.5
				c-0.3-0.5-0.5-0.9-0.8-1.3c-2.2-3.2-5.4-5.1-8.6-6.9c0,0-0.1,0,0,0.1c2.9,1.8,6.1,3.5,8,6.4c0.7,1.1,1.3,2.3,1.8,3.5
				c0.1,1.1,0.1,2.2,0,3.2c-0.1-0.3-0.2-0.5-0.3-0.8c-0.1-0.2-0.3-0.1-0.2,0.1c0,0,0,0.1,0,0.1c-0.1-0.1-0.1-0.2-0.2-0.3
				c-1.4-3.5-4.1-6.3-7.8-7.6c0,0-0.1,0.1,0,0.1c3,1.4,4.8,3.3,6.1,5.8c-3.5-2.9-8.9-4.2-12.7-5.3c0,0,0,0,0,0
				c3.2,1.1,6.6,2,9.5,3.7c1.9,1,3.2,2.2,4.2,3.6c0.1,0.4,0.3,0.7,0.4,1.1c-2.2-2-4.6-3.9-7.5-4.7c-0.1,0-0.2,0.2-0.1,0.2
				c2.4,0.7,4.2,2.2,5.9,3.8c-2.2-1-4.8-1.3-6.9-1.8c0,0,0,0,0,0c2.3,0.7,5.2,1.1,7.4,2.4c0,0,0,0,0,0.1c0,0.1,0,0.2,0,0.3
				c-0.1,0.1,0,0.3,0.1,0.4c0,0,0,0.1,0.1,0.1c0,0.2,0.1,0.4,0.2,0.5c-1.3-0.7-3.1-0.9-4.3-1.3c-0.1,0-0.1,0.1,0,0.1
				c1.4,0.6,3.4,0.8,4.7,1.8c-0.3,0.9-0.7,1.8-1.3,2.6c-0.9,1.2-2.1,2.1-3.2,3c0,0,0,0.1,0,0c2.1-1.1,4.1-3,4.9-5.2
				c0.1,0.1,0.1,0.1,0.2,0.2c0,1.2,0.2,2.4,0.3,3.6c-0.9,2.9-2.6,5.6-4.9,7.7c0,0,0,0,0,0c1.9-1.6,3.7-4,4.8-6.7c0,0.1,0,0.2,0,0.4
				c-0.2,2.4-0.9,4.6-2.1,6.7c0,0.1,0.1,0.2,0.1,0.1c1.4-1.9,2.5-4.6,2.9-7.3c0.6,5.2,0.6,10.6-4.3,13.8c0,0,0,0,0,0
				c5-2.7,5.9-9.7,5.1-15.4c0.4,1.3,0.5,2.6,0.6,3.9c0.2,3.1-0.1,6.2-0.1,9.3c0,0,0.1,0,0.1,0c0.5-3.6,1-7.2,0.6-10.9
				c-0.2-1.7-0.6-3-1.3-4.2c0-0.1,0-0.2,0-0.2c0.4,0.2,0.8,0.4,1.3,0.6c1.5,2.5,2,6,1.7,8.6c0,0.1,0.2,0.1,0.2,0
				c0.4-2.6-0.1-5.7-1.1-8.2c0.7,0.4,1.4,0.8,1.9,1.5c2.7,3.6,1.3,8-0.5,11.7c0,0,0,0,0,0c1.9-3,3.2-6.7,1.9-10.2
				c-0.7-1.9-2.1-2.8-3.5-3.6c-0.2-0.5-0.5-1-0.8-1.5c2.8,1.1,5,3.6,5.4,6.5C436.6,245.3,435.9,249.3,433.5,252.5
				C433.4,252.5,433.5,252.6,433.5,252.5z M430.1,233.6c0.1-0.2,0.1-0.4,0.1-0.5c0.2-0.1,0.3-0.2,0.5-0.3
				C430.6,233.1,430.4,233.4,430.1,233.6z"/>
			<path class="st0" d="M399.8,321.9c-1.6,2.4-1.6,5.5-0.6,8.1c0.5,1.4,2.4,2.5,4.1,2.8c-0.2,0.3-0.4,0.6-0.5,0.9
				c-3.7,2.7-8,4.8-12.3,6.2c-2.4,0.8-4.8,1.4-7.3,1.8c-2.3,0.3-4.5,0.2-6.8,0.2c-0.6,0-0.6,0.9,0,0.9c2.2,0.2,4.7-0.2,6.9-0.7
				c2.6-0.5,5.2-1.1,7.7-2c4.2-1.5,8.2-3.5,11.8-6.2c-0.3,1.8,1.3,4.6,2.2,5.8c0,0,0,0,0,0c-0.5-0.8-2.3-4.3-2-6
				c0.1-0.1,0.2-0.2,0.3-0.2c0,0.7,0.3,1.5,0.7,2.2c0.6,2.4,2.2,4.8,4.1,6c0,0,0,0,0,0c-1.4-1.1-2.6-2.9-3.3-4.8
				c0.2,0.3,0.4,0.5,0.6,0.7c1.6,1.7,3.6,2.6,5.8,3.5c0,0,0,0,0,0c-1.9-0.8-3.9-1.6-5.3-3.2c-0.5-0.6-1-1.3-1.4-2
				c-0.2-0.7-0.3-1.3-0.3-1.9c0.1,0.2,0.2,0.3,0.3,0.5c0.1,0.1,0.2,0,0.1-0.1c0,0,0-0.1,0-0.1c0,0.1,0.1,0.1,0.1,0.2
				c1.1,2,3,3.5,5.3,3.9c0,0,0,0,0,0c-1.9-0.6-3.2-1.6-4.1-3c2.3,1.4,5.7,1.8,8.1,2.1c0,0,0,0,0,0c-2-0.4-4.1-0.7-6-1.4
				c-1.2-0.5-2.1-1-2.8-1.8c-0.1-0.2-0.2-0.4-0.3-0.6c1.5,1,3.1,2,4.9,2.2c0.1,0,0.1-0.1,0-0.1c-1.5-0.2-2.7-1-3.9-1.8
				c1.4,0.4,3,0.4,4.3,0.5c0,0,0,0,0,0c-1.4-0.2-3.2-0.3-4.7-0.9c0,0,0,0,0,0c0-0.1,0-0.1,0-0.2c0-0.1,0-0.2-0.1-0.2c0,0,0,0,0,0
				c0-0.1-0.1-0.2-0.2-0.3c0.8,0.3,1.9,0.3,2.7,0.4c0,0,0.1-0.1,0-0.1c-0.9-0.2-2.1-0.2-3-0.7c0.1-0.6,0.2-1.1,0.6-1.7
				c0.5-0.8,1.1-1.4,1.7-2.1c0,0,0,0,0,0c-1.1,0.8-2.2,2.1-2.5,3.5c0,0-0.1-0.1-0.1-0.1c-0.1-0.7-0.3-1.4-0.5-2.2
				c0.3-1.8,1.1-3.6,2.3-5c0,0,0,0,0,0c-1,1.1-1.9,2.7-2.4,4.4c0-0.1,0-0.1,0-0.2c-0.1-1.5,0.1-2.9,0.7-4.2c0,0,0-0.1-0.1,0
				c-0.7,1.2-1.1,3-1.2,4.6c-0.8-3.1-1.2-6.3,1.4-8.6c0,0,0,0,0,0c-2.8,2-2.7,6.3-1.8,9.7c-0.3-0.7-0.5-1.5-0.7-2.3
				c-0.4-1.9-0.5-3.7-0.7-5.6c0,0,0,0,0,0c0,2.2,0,4.4,0.5,6.6c0.3,1,0.6,1.8,1.2,2.4c0,0,0,0.1,0,0.1c-0.3-0.1-0.5-0.2-0.8-0.3
				c-1.1-1.4-1.7-3.5-1.8-5c0-0.1-0.1-0.1-0.1,0c0,1.6,0.6,3.4,1.3,4.8c-0.5-0.2-0.9-0.4-1.2-0.8c-1.9-2-1.5-4.7-0.6-7c0,0,0,0,0,0
				c-0.9,2-1.4,4.3-0.3,6.3c0.6,1.1,1.5,1.5,2.4,1.9c0.2,0.3,0.4,0.6,0.6,0.8c-1.7-0.4-3.3-1.8-3.7-3.5
				C398.5,326.5,398.6,324,399.8,321.9C399.8,321.9,399.8,321.9,399.8,321.9z M403.4,333c0,0.1,0,0.2,0,0.3
				c-0.1,0.1-0.2,0.1-0.3,0.2C403.1,333.3,403.2,333.1,403.4,333z"/>
			<path class="st0" d="M383.7,387.1c-1.6-2.4-4.5-3.6-7.3-3.7c-1.5,0-3.3,1.2-4.2,2.7c-0.1-0.3-0.4-0.6-0.6-0.8
				c-1.1-4.5-1.4-9.2-1-13.7c0.2-2.5,0.5-5,1.2-7.4c0.6-2.3,1.5-4.2,2.5-6.4c0.2-0.5-0.6-0.9-0.8-0.4c-1,2-1.6,4.5-2.1,6.6
				c-0.6,2.6-1,5.3-1.1,7.9c-0.2,4.5,0.1,8.9,1.2,13.2c-1.6-1-4.8-0.6-6.2-0.2c0,0,0,0,0,0c0.9-0.2,4.9-0.5,6.3,0.5
				c0,0.1,0.1,0.2,0.1,0.4c-0.7-0.3-1.5-0.3-2.3-0.2c-2.5-0.3-5.3,0.2-7.1,1.5c0,0,0,0,0,0c1.6-0.9,3.7-1.3,5.7-1.2
				c-0.3,0.1-0.6,0.2-0.9,0.3c-2.2,0.8-3.8,2.4-5.4,4c0,0,0,0.1,0,0c1.5-1.4,3-3,5-3.7c0.7-0.2,1.5-0.4,2.3-0.5
				c0.7,0.1,1.3,0.3,1.9,0.5c-0.2,0-0.3,0-0.5,0.1c-0.1,0-0.1,0.2,0,0.2c0,0,0.1,0,0.1,0c-0.1,0-0.1,0-0.2,0.1
				c-2.3,0.2-4.3,1.4-5.6,3.4c0,0,0,0.1,0,0c1.3-1.5,2.7-2.3,4.3-2.7c-2.2,1.6-3.8,4.6-5.1,6.6c0,0,0,0,0,0c1.1-1.7,2.2-3.5,3.6-5
				c0.9-0.9,1.8-1.5,2.7-1.9c0.2,0,0.5-0.1,0.7-0.1c-1.5,1-3,2.1-3.9,3.7c0,0.1,0.1,0.1,0.1,0.1c0.8-1.3,1.9-2.1,3.1-2.9
				c-0.9,1.1-1.5,2.6-2.1,3.8c0,0,0,0,0,0c0.7-1.2,1.5-2.9,2.6-4c0,0,0,0,0,0c0.1,0,0.1,0,0.2,0.1c0.1,0.1,0.2,0.1,0.2,0
				c0,0,0,0,0.1,0c0.1,0,0.2,0,0.3,0c-0.6,0.7-1,1.7-1.4,2.3c0,0,0,0.1,0.1,0c0.6-0.8,1-1.9,1.8-2.5c0.5,0.3,0.9,0.7,1.3,1.2
				c0.5,0.7,0.9,1.5,1.3,2.4c0,0,0,0,0,0c-0.3-1.4-1.1-2.9-2.3-3.7c0,0,0.1,0,0.1-0.1c0.7,0.2,1.4,0.2,2.2,0.4c1.6,1,2.9,2.4,3.8,4
				c0,0,0,0,0,0c-0.6-1.3-1.8-2.8-3.2-3.9c0.1,0,0.1,0,0.2,0.1c1.4,0.5,2.6,1.2,3.6,2.3c0,0,0.1,0,0.1-0.1c-0.9-1.1-2.3-2.2-3.8-2.8
				c3.1,0.5,6.3,1.3,7.4,4.6c0,0,0,0,0,0c-0.8-3.4-4.8-4.9-8.2-5.4c0.8,0,1.6,0.1,2.4,0.2c1.9,0.4,3.6,1,5.4,1.5c0,0,0,0,0,0
				c-2-0.9-4.1-1.7-6.3-2c-1-0.1-1.9-0.1-2.6,0.1c0,0-0.1,0-0.1,0c0.2-0.2,0.4-0.4,0.6-0.6c1.7-0.5,3.8-0.2,5.3,0.3
				c0.1,0,0.1-0.1,0-0.1c-1.5-0.7-3.4-0.8-5-0.6c0.3-0.4,0.7-0.7,1.2-0.9c2.6-1,4.9,0.5,6.8,2.1c0,0,0,0,0,0
				c-1.5-1.6-3.4-2.9-5.7-2.7c-1.2,0.1-2,0.8-2.7,1.5c-0.3,0-0.7,0.1-1,0.2c1.1-1.5,2.9-2.4,4.6-2.1
				C380,384.2,382.2,385.2,383.7,387.1C383.7,387.2,383.8,387.1,383.7,387.1z M372.1,386.2c-0.1-0.1-0.2-0.1-0.3-0.2
				c0-0.1-0.1-0.2-0.1-0.3C371.9,385.8,372.1,386,372.1,386.2z"/>
			<path class="st0" d="M315.3,299.7c-0.6,1.8-2.1,3-3.7,3.8c-1.2,0.6-2.8,0.3-3.9-0.5c0.3,0,0.6,0,0.8-0.1c0.7,0.3,1.4,0.7,2.3,0.5
				c1.7-0.4,2.8-1.8,3.5-3.3c0,0,0,0,0,0c-1,1.7-2.3,3.3-4.5,3.1c-0.4,0-0.7-0.2-1.1-0.4c1.2-0.2,2.6-0.8,3.5-1.6c0,0,0-0.1-0.1-0.1
				c-0.9,0.8-2.5,1.4-3.8,1.5c-0.2-0.1-0.4-0.2-0.6-0.3c0,0,0.1,0,0.1-0.1c0.6,0,1.3-0.2,2-0.5c1.5-0.7,2.8-1.9,4.1-3c0,0,0,0,0,0
				c-1.2,0.8-2.4,1.7-3.6,2.3c-0.5,0.3-1.1,0.5-1.7,0.7c2.5-1.1,5-3.2,4.8-5.9c0,0,0,0,0,0c0,2.7-2.2,4.1-4.4,5.1c1-0.8,1.8-2,2.1-3
				c0,0,0-0.1-0.1,0c-0.5,1-1.2,1.8-2.1,2.5c0,0-0.1,0.1-0.1,0.1c0.8-1.1,1.3-2.4,1.4-3.6c0,0,0,0,0,0c-0.3,1.4-0.9,2.8-1.8,3.8
				c-0.5,0.3-1,0.5-1.5,0.8c0,0-0.1,0-0.1,0c0.7-0.9,0.9-2.2,0.8-3.2c0,0,0,0,0,0c-0.1,0.7-0.2,1.4-0.4,2c-0.2,0.5-0.4,0.8-0.7,1.2
				c-0.7-0.2-1.3-1-1.9-1.4c0,0-0.1,0,0,0c0.5,0.4,1,1,1.6,1.4c-0.1,0-0.2,0-0.3,0.1c0,0,0,0,0,0c-0.1,0-0.1,0-0.2,0.1
				c0,0-0.1,0.1-0.1,0.1c0,0,0,0,0,0c-1.1-0.5-2-1.6-2.8-2.3c0,0,0,0,0,0c0.7,0.7,1.5,1.7,2.4,2.3c-1.1-0.3-2.1-0.6-3-1.4
				c0,0-0.1,0-0.1,0.1c1,1,2.4,1.4,3.7,1.8c-0.2,0-0.4,0.1-0.5,0.1c-0.8,0-1.6-0.3-2.5-0.7c-1.4-0.8-2.6-1.9-3.8-2.8c0,0,0,0,0,0
				c1.4,1.2,3.3,3,5.3,3.7c-1.3,0.1-2.5-0.1-3.8-1c0,0,0,0,0,0c1.4,1.1,3.2,1.5,4.9,1.2c0.1,0,0.1,0,0.2,0c0,0,0,0-0.1,0
				c-0.1,0-0.1,0.1,0,0.1c0.1,0,0.3,0,0.4-0.1c-0.4,0.3-0.8,0.6-1.3,0.8c-0.6,0.1-1.3,0.2-1.8,0.2c-1.6,0-3.1-0.8-4.5-1.5
				c0,0,0,0,0,0c1.6,0.8,3.1,1.6,4.9,1.7c0.2,0,0.5,0,0.7,0c-1.5,0.5-3.1,0.7-4.4,0.4c0,0,0,0,0,0c1.7,0.5,3.8,0.2,5.6-0.6
				c0.6-0.1,1.2-0.3,1.7-0.7c0,0.1,0,0.2,0,0.3c-0.8,1.1-3.8,1.8-4.5,1.9c0,0,0,0,0,0c1.2-0.1,3.6-0.5,4.5-1.6c0.2,3.4,1,6.8,2.2,10
				c0.7,1.9,1.6,3.8,2.7,5.6c0.9,1.5,1.8,3.2,3.1,4.4c0.3,0.3,0.8-0.1,0.5-0.5c-1.2-1.3-2.3-2.6-3.3-4.1c-1-1.6-1.9-3.4-2.6-5.2
				c-1.3-3.3-2.3-6.8-2.5-10.3c0.2-0.2,0.3-0.5,0.3-0.7c1,0.8,2.6,1.4,3.7,1C312.9,303.4,314.8,301.8,315.3,299.7
				C315.4,299.7,315.4,299.7,315.3,299.7z M306.9,303.6c0-0.1,0-0.2,0-0.3c0.1-0.1,0.1-0.1,0.2-0.2
				C307.1,303.3,307,303.4,306.9,303.6z"/>
			<g>
				<path class="st0" d="M257.6,337.9c-0.1-0.1-0.2-0.3-0.3-0.4c-0.6-0.7-1.4-1.4-1.9-2.2c-1-1.5-3-3-2.2-5c0,0,0,0,0,0
					c-0.5,1.8,1.5,3.8,2.7,4.9c0.4,0.4,0.7,0.8,1.1,1.2c-1.1-2.4-1.9-4.8-1.3-7.6c0,0,0,0,0,0c-0.4,2.9,0.7,5.5,2,8
					c-0.9-3.1,0-6.6,1.1-9.6c0-0.1,0.1,0,0.1,0c-1,3.2-1.4,6.1-0.7,9.1c0.5-2.8,1.9-5.8,3.5-7.8c0,0,0.1,0,0.1,0
					c-1.8,2.4-2.9,5.8-3.1,8.9c0,0,0,0,0,0c0.2-0.2,0.5-0.3,0.7-0.3c0.4-1.3,1.1-2.5,1.6-3.7c1.1-2.3,2.4-4.5,3.6-6.7
					c0,0,0.1,0,0.1,0c-1,1.8-2,3.7-3,5.6c-0.6,1.1-1,2.3-1.4,3.5c1.6-2.3,3.8-4.2,5.9-6.2c0,0,0.1,0,0,0c-2.2,2.1-4.3,4.2-5.9,6.8
					c1-0.7,2.2-1.3,2.3-1.4c2.3-1.3,5.5-3.2,8.2-3.1c0,0,0,0.1,0,0.1c-2.2,0.1-4.7,1.6-6.6,2.6c-0.5,0.2-3.2,1.5-4.3,2.5
					c-0.1,0.1-0.1,0.2-0.2,0.3c0,0,0,0,0,0.1c2.6-2.1,7.5-0.9,10.5-1.7c0.1,0,0.1,0.1,0,0.1c-2.8,0.8-7.8-0.2-10.2,1.9
					c0,0,0,0,0,0.1c4.6-0.2,9.1,1.4,13,3.7c0,0,0,0.1,0,0c-3.9-2-8.3-3.4-12.7-3.2c2.6,3.3,4.5,7.8,9,8.8c0,0,0,0.1,0,0.1
					c-4-0.4-7-4.8-9.2-8.2c1.4,3.5,3.8,7.4,6.7,9.6c0,0,0,0.1,0,0c-2.9-2-4.6-5.1-6.3-8.1c0.3,1.3,0.7,2.5,1.2,3.8
					c1,2.4,2.7,5.7,5.5,6.3c0.1,0,0,0.1,0,0.1c-2.7-0.3-4.3-3.2-5.4-5.4c-0.7-1.4-1.7-3.3-2.2-5.2c-0.3,1.1-0.5,2.3-0.7,3.4
					c-0.4,2.3-0.8,5.6,0.8,7.5c0,0.1,0,0.1-0.1,0.1c-1.6-1.4-1.5-3.9-1.3-5.8c0.2-1.7,0.4-3.3,0.8-5c0,0-0.1,0-0.1-0.1
					c-0.2-0.2-0.7-0.2-0.8-0.5c0-0.1,0-0.2,0.1-0.3c0,0,0.1-0.1,0.1-0.1c0,0,0-0.1,0-0.1c-0.1,0.1-0.3,0-0.4-0.1
					c-0.6,1.7-0.7,4-0.9,5.1c-0.3,2.5-0.8,5.9,0.1,8.4c0,0,0,0.1-0.1,0c-1.2-2.8-0.6-6.4-0.2-9.3c0.1-0.6,0.3-2.7,0.8-4.4
					c-2.1,1.8-3.8,4.7-4.3,7.2c0,0.1-0.2,0.1-0.2,0c0.3-2,1.5-4,2.6-5.6c0.3-0.4,0.7-1.1,1.2-1.7c-2.8,1.1-5.1,3.9-6.7,6.3
					c0,0-0.1,0-0.1,0c1.7-3,4.1-5.3,7.2-6.8c0.1-0.1,0.2-0.2,0.3-0.3c0,0,0-0.1,0-0.1c-3,0.3-6,1-8.5,2.8c0,0-0.1,0,0,0
					C251.4,338.9,254.7,338.4,257.6,337.9z"/>
				<path class="st0" d="M261.4,339c4,2.5,7.9,5.2,11,8.8c2.8,3.4,5.3,8.6,4.4,13.1c-0.1,0.5-0.7,0.4-0.8-0.1
					c-0.3-2.3-0.1-4.5-0.8-6.8c-0.6-2.2-1.8-4.2-3.1-6C269.2,344.3,265.2,341.6,261.4,339C261.4,339,261.4,339,261.4,339z"/>
			</g>
			<g>
				<path class="st0" d="M372.4,271.3c0.1-0.2,0.2-0.4,0.3-0.6c0.5-1.1,0.9-2.5,1.5-3.6c1.2-2.1,1.8-5.5,4.7-5.7c0,0,0,0,0,0
					c-2.5,0.5-3.7,4.1-4.3,6.2c-0.2,0.7-0.5,1.4-0.8,2c2.3-2.7,4.7-5.2,8.4-6.2c0,0,0,0,0,0.1c-3.8,1.2-6.2,4.1-8.4,7.1
					c3.2-2.9,7.9-3.9,12.2-4.4c0.1,0,0.1,0.1,0,0.1c-4.5,0.7-8.2,1.9-11.4,4.7c3.7-1,8.1-1.2,11.4-0.4c0.1,0,0,0.1,0,0.1
					c-4-0.8-8.7,0-12.6,1.6c0,0,0,0,0,0c0.4,0.1,0.7,0.3,0.8,0.7c1.8-0.3,3.7-0.2,5.4-0.3c3.4-0.1,6.8,0.1,10.2,0.4
					c0.1,0,0.1,0.1,0,0.1c-2.8-0.2-5.7-0.3-8.5-0.2c-1.7,0-3.4,0.2-5,0.4c3.8,0.5,7.4,2,11,3.4c0,0,0,0.1,0,0.1
					c-3.9-1.4-7.7-2.7-11.7-3.1c1.4,0.8,2.9,1.8,3.1,2c3,2,7.1,4.7,8.6,8.1c0,0,0,0.1-0.1,0c-1.4-2.7-4.7-4.7-7-6.4
					c-0.6-0.4-3.7-2.9-5.6-3.7c-0.2,0-0.3,0-0.5,0c0,0,0,0.1,0,0.1c4.1,1.9,5.6,8.5,8.3,11.6c0,0.1,0,0.1-0.1,0.1
					c-2.6-2.9-4.4-9.5-8.4-11.1c0,0-0.1,0-0.1,0c3,5.4,3.7,11.8,3.3,17.9c0,0-0.1,0-0.1,0c0.1-5.9-0.8-12-3.7-17.2
					c-2.5,5.1-6.7,10-5.2,16c0,0.1-0.1,0.1-0.1,0c-1.9-5,1.6-11.3,4.4-16c-3.4,3.8-6.6,9.1-7.5,13.8c0,0-0.1,0-0.1,0
					c0.7-4.7,3.3-8.6,6-12.5c-1.3,1.2-2.7,2.3-3.8,3.7c-2.3,2.7-5.3,6.7-4.3,10.4c0,0.1-0.1,0.1-0.1,0c-1.2-3.4,1.3-7.1,3.2-9.7
					c1.3-1.7,3-4,4.9-5.7c-1.5,0.4-3,0.7-4.5,1.2c-2.9,0.9-7.2,2.3-8.5,5.5c0,0.1-0.2,0.1-0.1,0c0.7-2.7,3.8-4.1,6.2-5.1
					c2.1-0.8,4.3-1.5,6.5-2c0-0.1,0-0.1,0-0.2c0.1-0.4-0.1-0.9,0.2-1.2c0.1-0.1,0.2-0.1,0.4-0.1c0.1,0,0.1,0.1,0.2,0.1
					c0,0,0.1-0.1,0.1-0.1c-0.2-0.1-0.2-0.3-0.2-0.5c-2.4,0.3-5.2,1.5-6.7,2c-3.2,1.1-7.6,2.6-10.1,5.1c0,0-0.1,0-0.1-0.1
					c2.6-3.1,7.4-4.6,11.1-5.8c0.8-0.3,3.5-1.3,5.8-1.7c-3.4-1.4-8-1.7-11.2-0.9c-0.1,0-0.2-0.2-0.1-0.2c2.6-0.8,5.6-0.6,8.3-0.2
					c0.7,0.1,1.7,0.2,2.7,0.4c-3-2.7-7.8-3.8-11.5-4.3c-0.1,0-0.1-0.1,0-0.1c4.7,0.3,8.9,1.8,12.5,4.6c0.2,0.1,0.3,0.1,0.5,0.2
					c0,0,0.1-0.1,0.1-0.1c-2.1-3.5-4.8-6.6-8.4-8.6c0,0,0-0.1,0-0.1C367.4,264.4,370,268,372.4,271.3z"/>
				<path class="st0" d="M373.2,276.5c-0.6,6.3-1.6,12.6-4.1,18.5c-2.4,5.4-7.2,11.5-13.2,13.1c-0.6,0.2-0.9-0.7-0.4-1
					c2.7-1.7,5.4-2.8,7.8-5c2.3-2.1,4-4.6,5.4-7.4C371.5,289.2,372.4,282.7,373.2,276.5C373.2,276.5,373.2,276.5,373.2,276.5z"/>
			</g>
		</g>
	</g>
</g>
</svg>
