<svg xmlns="http://www.w3.org/2000/svg"
    xmlns:xlink="http://www.w3.org/1999/xlink"
  width="500" height="500" viewbox="0 0 500 500"
  >

  <path id="path1" fill="none" stroke="none" stroke-miterlimit="10" d="m 245.8,131.5
          c 0,0 -56,7 -53,32 
          3,24 20,62 20,69 
          26,6 27,-55 26,-53 
        23,2 18,43 38,55
          16,9 59,-10 74,-38
          14,-28 8,-85 -19,-96 z">
      
    </path>
<g id="bird" >
    <path id="pic" stroke="red" class="st0" d="m0,0c2,0,3.9,0.2,5.9,0.4c1,0.1,1.9,0.3,2.9,0.5l1.4,0.4c0.5,0.1,1,0.3,1.4,0.4
      c0.5,0.1,1,0.3,1.4,0.5c0.5,0.2,0.9,0.3,1.4,0.5l1.4,0.6c0.5,0.2,0.9,0.5,1.3,0.7c0.5,0.2,0.9,0.5,1.3,0.8
      c0.4,0.3,0.9,0.6,1.2,0.9c0.4,0.4,0.8,0.7,1.1,1.1l1,1.2l-1.8,0.3c0.3-1,0.7-1.8,1.1-2.7c0.4-0.9,0.8-1.8,1.2-2.6
      c0.4-0.9,0.9-1.7,1.4-2.5c0.5-0.8,1-1.6,1.6-2.4l0.9-1.2c0.3-0.4,0.6-0.8,0.9-1.1c0.3-0.4,0.6-0.7,1-1.1c0.3-0.3,0.7-0.7,1-1
      l1.1-1c0.4-0.3,0.8-0.6,1.1-0.9c0.4-0.3,0.8-0.6,1.2-0.8l1.3-0.7l-1.1,0.9c-0.4,0.3-0.7,0.6-1,1c-0.3,0.3-0.7,0.6-1,1l-0.9,1.1
      c-0.6,0.7-1.2,1.5-1.7,2.2c-0.3,0.4-0.5,0.8-0.8,1.2l-0.7,1.2c-0.5,0.8-0.9,1.6-1.4,2.4c-0.4,0.8-0.9,1.7-1.2,2.5
      c-0.4,0.8-0.8,1.7-1.1,2.6c-0.4,0.9-0.7,1.7-1,2.6l-0.6,1.7l-1.2-1.5l-0.8-1c-0.3-0.3-0.7-0.6-1-0.9c-0.3-0.3-0.7-0.6-1.1-0.9
      c-0.4-0.3-0.7-0.5-1.2-0.8c-0.4-0.2-0.8-0.5-1.2-0.7l-1.3-0.6c-0.4-0.2-0.9-0.4-1.3-0.6c-0.4-0.2-0.9-0.4-1.3-0.5
      c-0.4-0.2-0.9-0.4-1.3-0.5l-1.4-0.5c-0.9-0.3-1.8-0.6-2.8-0.8c-0.9-0.3-1.9-0.5-2.8-0.7z">

    </path>

    <animateMotion xlink:href="#pic"
        dur="10s"
        begin="0s"
        fill="freeze"
        repeatCount="indefinite"
        rotate="auto">
          <mpath xlink:href="#path1" />
    </animateMotion> 
  </g>
</svg>