<svg version="1.1"
  width="200" height="200" viewPort="0 0 200 300"
    xmlns="http://www.w3.org/2000/svg">


    <line stroke-dasharray="2%, 98%"              x1="10" y1="10" x2="190" y2="10" />
    <line stroke-dasharray="5, 10"             x1="10" y1="30" x2="190" y2="30" />
    <line stroke-dasharray="10, 5"             x1="10" y1="50" x2="190" y2="50" />
    <line stroke-dasharray="5, 1"              x1="10" y1="70" x2="190" y2="70" />
    <line stroke-dasharray="1, 5"              x1="10" y1="90" x2="190" y2="90" />
    <line stroke-dasharray="0.9"               x1="10" y1="110" x2="190" y2="110" />
    <line stroke-dasharray="15, 10, 5"         x1="10" y1="130" x2="190" y2="130" />
    <line stroke-dasharray="15, 10, 5, 10"     x1="10" y1="150" x2="190" y2="150" />
    <line stroke-dasharray="15, 10, 5, 10, 15" x1="10" y1="170" x2="190" y2="170" />
    <line stroke-dasharray="5, 5, 1, 5"        x1="10" y1="190" x2="190" y2="190" />

  <style>
    <![CDATA[
      line{
        stroke: black;
        stroke-width: 2;
      }
      ]]>
  
</style>

<!--
    <style>
      .path {
        stroke-dasharray: 1000;
        stroke-dashoffset: 1000;
        animation: dash 5s linear alternate infinite;
      }

      @keyframes dash {
        from {
          stroke-dashoffset: 1000;
        }
        to {
          stroke-dashoffset: 0;
        }
      }
    </style>

  <path class="path" fill="#FFFFFF" stroke="#000000" stroke-width="4" stroke-miterlimit="10" d="M66.039,133.545c0,0-21-57,18-67s49-4,65,8
  s30,41,53,27s66,4,58,32s-5,44,18,57s22,46,0,45s-54-40-68-16s-40,88-83,48s11-61-11-80s-79-7-70-41
  C46.039,146.545,53.039,128.545,66.039,133.545z"/>
-->

</svg>